<svg width="24" height="24" viewBox="0 0 24 24" fill="none" xmlns="http://www.w3.org/2000/svg">
<path fill-rule="evenodd" clip-rule="evenodd" d="M12 3.5C7.30558 3.5 3.5 7.30558 3.5 12C3.5 16.6944 7.30558 20.5 12 20.5C16.6944 20.5 20.5 16.6944 20.5 12C20.5 7.30558 16.6944 3.5 12 3.5ZM2 12C2 6.47715 6.47715 2 12 2C17.5228 2 22 6.47715 22 12C22 17.5228 17.5228 22 12 22C6.47715 22 2 17.5228 2 12Z" fill="#1C1D22" fill-opacity="0.36"/>
<path d="M12.9 8.80544C12.9 8.30839 12.497 7.90544 12 7.90544C11.5029 7.90544 11.1 8.30839 11.1 8.80544C11.1 9.3025 11.5029 9.70544 12 9.70544C12.497 9.70544 12.9 9.3025 12.9 8.80544Z" fill="#1C1D22" fill-opacity="0.36"/>
<path fill-rule="evenodd" clip-rule="evenodd" d="M12 10.325C12.4142 10.325 12.75 10.6607 12.75 11.075V16.625C12.75 17.0392 12.4142 17.375 12 17.375C11.5858 17.375 11.25 17.0392 11.25 16.625V11.075C11.25 10.6607 11.5858 10.325 12 10.325Z" fill="#1C1D22" fill-opacity="0.36"/>
</svg>
