<svg width="34" height="22" viewBox="0 0 34 22" fill="none" xmlns="http://www.w3.org/2000/svg">
<g clip-path="url(#clip0_5521_13263)">
<path d="M34.0002 0.0078125H25.875V21.6528H34.0002V0.0078125Z" fill="white"/>
<path d="M21.0627 0.0078125H12.9375V19.7061H21.0627V0.0078125Z" fill="white"/>
<path d="M13.4274 0.5H20.5552C20.4284 6.02491 18.2716 11.2916 14.527 15.2031C10.7885 19.1082 5.76428 21.3533 0.5 21.4931V14.0148C3.89003 13.8792 7.1097 12.4123 9.50944 9.9033C11.9128 7.39054 13.3068 4.02865 13.4274 0.5Z" fill="#38CA96" stroke="white"/>
<path d="M26.3673 0.5H33.495C33.3675 6.02511 31.2103 11.2917 27.4653 15.2032C23.7265 19.1083 18.702 21.3533 13.4375 21.4931V14.0149C16.8279 13.8799 20.0482 12.4133 22.4484 9.90419C24.8522 7.39134 26.2466 4.02908 26.3673 0.5Z" fill="#38CA96" stroke="white"/>
</g>
<defs>
<clipPath id="clip0_5521_13263">
<rect width="34" height="22" fill="white"/>
</clipPath>
</defs>
</svg>
