<svg width="182" height="166" viewBox="0 0 182 166" fill="none" xmlns="http://www.w3.org/2000/svg">
<path d="M95.7324 49.2388C93.9356 52.445 92.1388 54.1887 90.6788 53.9075C89.2189 53.57 88.2644 51.2075 87.9275 47.4388C87.4782 42.2639 88.0959 34.5578 89.8366 26.1204C91.465 18.3018 93.7671 11.4394 96.0693 6.88318C98.0908 2.94574 100.112 0.695775 101.741 1.03327C103.369 1.37076 104.267 4.12697 104.548 8.45816M79.0556 39.9577C75.6865 39.7327 73.4405 38.7765 72.9352 37.1452C72.4298 35.6265 73.4967 33.714 75.7427 31.6328C79.4487 28.2579 86.3552 24.4892 94.7217 21.733C102.807 19.033 110.388 17.908 115.385 18.3018C118.642 18.583 120.832 19.483 121.337 21.1142C121.899 22.8017 120.495 24.9954 117.744 27.3016M80.7963 13.9143C81.1893 10.2581 82.5931 7.38943 85.0638 5.8707C88.0959 4.01447 92.2511 4.52071 96.4624 6.88318C101.123 9.41439 105.952 14.1956 109.714 20.4392C113.195 26.2329 115.217 32.1953 115.554 37.314C115.947 42.7139 114.543 47.1013 111.23 49.0701C108.479 50.7575 104.885 50.5325 101.123 48.7326M76.8096 20.4392C73.2159 22.6892 71.1383 25.5017 71.1945 28.4829C71.2506 31.4641 73.4405 34.164 77.0342 36.2452C81.7508 38.9452 88.7697 40.5764 96.687 40.4077C104.773 40.2389 111.96 38.1577 116.452 35.1203C119.709 32.9265 121.674 30.2266 121.562 27.3579C121.506 24.4329 119.428 21.7892 115.947 19.7642M81.5262 48.0013C87.6467 52.3325 99.1015 46.7076 107.187 35.3453C115.273 23.9829 116.901 11.2706 110.837 6.88318C104.773 2.49574 93.2618 8.17691 85.176 19.5392C77.0903 30.9016 75.4619 43.6701 81.5262 48.0013ZM110.051 11.7769C109.209 11.0456 108.31 10.4269 107.356 9.86439C104.211 7.95192 100.505 6.88318 96.5185 6.88318C90.5665 6.88318 85.176 9.35814 81.3578 13.3518C80.1225 14.6456 79.0556 16.108 78.1572 17.6268C76.4165 20.7205 75.4058 24.2642 75.4058 28.0891C75.4058 39.7889 84.8953 49.2951 96.5747 49.2951C108.254 49.2951 117.744 39.7889 117.744 28.0891C117.687 21.508 114.711 15.6581 110.051 11.7769Z" stroke="#138BE1" stroke-width="0.8" stroke-miterlimit="10" stroke-linecap="round" stroke-linejoin="round"/>
<path d="M81.3572 13.2958C80.1219 14.5895 79.055 16.052 78.1566 17.5707C78.0443 17.5707 77.932 17.5707 77.8197 17.5707C75.7983 17.5707 74.1699 15.9395 74.1699 13.9145C74.1699 11.8895 75.7983 10.2583 77.8197 10.2583C79.5604 10.3708 81.0203 11.6645 81.3572 13.2958ZM110.612 4.57715C108.59 4.57715 106.962 6.20837 106.962 8.23334C106.962 8.85209 107.13 9.41458 107.355 9.92082C108.31 10.4833 109.208 11.1583 110.05 11.8333C110.219 11.8895 110.387 11.8895 110.556 11.8895C112.577 11.8895 114.206 10.2583 114.206 8.23334C114.206 6.20837 112.577 4.57715 110.612 4.57715ZM99.8309 43.3328C101.852 43.3328 103.481 41.7016 103.481 39.6766C103.481 37.6517 101.852 36.0204 99.8309 36.0204C97.8094 36.0204 96.1811 37.6517 96.1811 39.6766C96.2372 41.7016 97.8656 43.3328 99.8309 43.3328Z" fill="white" stroke="#138BE1" stroke-width="0.8" stroke-miterlimit="10" stroke-linecap="round" stroke-linejoin="round"/>
<path d="M142.387 147.337V138.787H142.33C142.33 138.9 142.33 139.012 142.33 139.125C142.33 140.644 141.937 142.106 141.207 143.512C137.445 150.768 124.587 156.168 109.314 156.168C94.0406 156.168 81.1259 150.825 77.4199 143.512C76.6899 142.106 76.2969 140.644 76.2969 139.125V147.956C76.2969 157.35 91.0646 165 109.314 165C127.563 165 142.443 157.406 142.443 148.012L142.387 147.337ZM142.33 139.069C142.33 140.587 141.937 142.05 141.207 143.456C137.445 150.712 124.587 156.112 109.314 156.112C94.0406 156.112 81.1259 150.768 77.4199 143.456C76.6899 142.05 76.2969 140.587 76.2969 139.069C76.2969 129.675 91.0646 122.025 109.314 122.025C127.338 122.025 141.993 129.45 142.33 138.731C142.33 138.844 142.33 138.956 142.33 139.069Z" fill="white" stroke="#1C1D22" stroke-width="0.8" stroke-miterlimit="10"/>
<path d="M109.313 153.581C125.625 153.581 138.848 147.084 138.848 139.069C138.848 131.054 125.625 124.556 109.313 124.556C93.0008 124.556 79.7773 131.054 79.7773 139.069C79.7773 147.084 93.0008 153.581 109.313 153.581Z" fill="#F6F5F5" stroke="#1C1D22" stroke-width="0.8" stroke-miterlimit="10"/>
<path d="M109.314 150.656C122.184 150.656 132.617 145.468 132.617 139.069C132.617 132.669 122.184 127.481 109.314 127.481C96.4447 127.481 86.0117 132.669 86.0117 139.069C86.0117 145.468 96.4447 150.656 109.314 150.656Z" fill="white" stroke="#1C1D22" stroke-width="0.8" stroke-miterlimit="10"/>
<path d="M85.9551 139.069V147.956M132.616 139.069V147.956" stroke="#1C1D22" stroke-width="0.8" stroke-miterlimit="10"/>
<path d="M129.53 138.449C128.463 143.568 119.872 147.505 109.372 147.505C99.4329 147.505 91.1225 143.961 89.438 139.236C89.3819 139.18 89.3819 139.068 89.3257 139.011C89.045 138.393 88.9888 137.661 89.045 136.986L95.0531 80.6247C95.0531 78.2622 100.724 76.406 107.743 76.406C114.762 76.406 120.433 78.2622 120.433 80.6247L129.417 136.086L129.586 137.155C129.586 137.324 129.642 137.436 129.586 137.605C129.586 137.774 129.586 138.168 129.53 138.449Z" fill="white"/>
<path d="M99.096 106.669L98.1976 120.731C97.973 124.219 94.5478 126.75 90.8418 126.131M100.444 84.6755L99.4329 101.213M95.5023 103.125C94.9408 103.125 94.4355 104.307 94.3793 105.825C94.3232 107.344 94.7162 108.581 95.2777 108.581C95.8392 108.581 96.3446 107.4 96.4007 105.881C96.4569 104.363 96.0638 103.125 95.5023 103.125ZM94.8285 111.056C94.267 111.056 93.7616 112.238 93.7055 113.756C93.6493 115.275 94.0424 116.513 94.6039 116.513C95.1654 116.513 95.6708 115.331 95.7269 113.813C95.7831 112.294 95.39 111.113 94.8285 111.056Z" stroke="#138BE1" stroke-width="0.8" stroke-miterlimit="10" stroke-linecap="round" stroke-linejoin="round"/>
<path d="M95.0531 80.6247L89.045 136.986C88.9888 137.661 89.045 138.393 89.3257 139.011C89.3819 139.068 89.3819 139.18 89.438 139.236C91.1225 143.961 99.4329 147.505 109.372 147.505C119.872 147.505 128.463 143.568 129.53 138.449C129.586 138.168 129.586 137.774 129.586 137.605C129.642 137.436 129.586 137.324 129.586 137.155L129.417 136.086L120.433 80.6247M95.0531 80.6247C95.0531 78.2622 100.724 76.406 107.743 76.406C114.762 76.406 120.433 78.2622 120.433 80.6247M95.0531 80.6247C95.0531 82.9872 100.724 84.9559 107.743 84.9559C114.762 84.9559 120.433 83.0434 120.433 80.6247M123.297 126.018V144.861M117.907 135.749V146.549M106.059 85.0684V114.937C106.059 118.987 109.315 122.249 113.358 122.249H114.369C116.278 122.249 117.85 123.824 117.85 125.737V132.486M111.505 84.7309V108.468C111.505 112.518 114.762 115.78 118.805 115.78C121.332 115.78 123.353 117.805 123.353 120.337V121.743" stroke="#1C1D22" stroke-width="0.8" stroke-miterlimit="10"/>
<path d="M117.288 76.2941C117.288 77.9254 113.189 79.3316 108.079 79.3878C102.97 79.4441 98.8145 78.1504 98.8145 76.5191C98.8145 74.8879 102.913 73.4817 108.023 73.4254C113.133 73.3692 117.288 74.6067 117.288 76.2941ZM117.288 76.3504C117.288 77.8129 113.189 79.3316 108.079 79.3878C102.97 79.4441 98.8145 78.0941 98.8145 76.5754V79.5566C98.8145 81.0191 102.97 82.2003 108.079 82.0878C113.189 82.0315 117.288 80.7378 117.288 79.2753V76.3504Z" fill="#F6F5F5"/>
<path d="M108.079 79.3878C113.189 79.3316 117.288 77.9254 117.288 76.2941C117.288 74.6067 113.133 73.3692 108.023 73.4254C102.913 73.4817 98.8145 74.8879 98.8145 76.5191C98.8145 78.1504 102.97 79.4441 108.079 79.3878ZM108.079 79.3878C113.189 79.3316 117.288 77.8129 117.288 76.3504V79.2753C117.288 80.7378 113.189 82.0315 108.079 82.0878C102.97 82.2003 98.8145 81.0191 98.8145 79.5566V76.5754C98.8145 78.0941 102.97 79.4441 108.079 79.3878Z" stroke="#1C1D22" stroke-width="0.8" stroke-miterlimit="10"/>
<path d="M103.701 69.2074C103.757 67.9137 104.094 66.6762 104.655 65.6075L102.409 60.3201C102.409 60.3201 100.444 61.5013 99.8261 62.12C99.2646 62.795 98.2539 64.0888 98.2539 64.0888C95.8394 67.6325 96.7378 72.4699 100.219 74.8886C101.23 75.6199 102.184 76.0136 103.251 76.2948C104.037 76.4636 107.126 76.8573 108.698 77.0261C105.666 76.1823 103.532 72.9761 103.701 69.2074ZM110.719 61.8388C108.193 61.7263 105.947 63.245 104.711 65.6075C104.15 66.6762 103.813 67.9137 103.757 69.2074C103.532 72.9761 105.722 76.2386 108.754 77.0261C109.147 77.1386 109.54 77.1948 109.989 77.2511C113.639 77.4198 116.784 74.1574 117.008 69.8824C117.121 65.6075 114.313 62.0638 110.719 61.8388ZM115.324 70.1637C115.155 73.2574 112.853 75.6198 110.102 75.5073C109.653 75.5073 109.203 75.3948 108.754 75.2261C106.733 74.4386 105.329 72.1886 105.441 69.6574C105.441 69.1512 105.554 68.5887 105.722 68.1387C106.396 65.8325 108.417 64.2013 110.663 64.37C113.415 64.4263 115.492 67.07 115.324 70.1637ZM115.324 70.1637C115.155 73.2574 112.853 75.6198 110.102 75.5073C109.653 75.5073 109.203 75.3948 108.754 75.2261C106.733 74.4386 105.329 72.1886 105.441 69.6574C105.441 69.1512 105.554 68.5887 105.722 68.1387C106.396 65.8325 108.417 64.2013 110.663 64.37C113.415 64.4263 115.492 67.07 115.324 70.1637Z" fill="white" stroke="#1C1D22" stroke-width="0.8" stroke-miterlimit="10" stroke-linecap="round" stroke-linejoin="round"/>
<path d="M74.8422 69.9386L67.0933 68.4761L67.2618 60.77L76.3021 61.2762M58.053 65.1012C58.053 65.1012 59.906 62.5137 60.0183 61.7825C60.1306 61.0512 59.8499 59.195 59.2884 58.9138C58.6707 58.6325 54.4032 55.8201 53.2241 55.8201C51.9887 55.8201 51.1465 56.4388 51.1465 58.0138C51.2026 59.4763 52.3256 62.345 54.0102 63.3012C55.6385 64.3137 58.053 65.1012 58.053 65.1012ZM60.2991 62.2325C60.1306 63.695 58.783 65.7199 58.783 65.7199L67.4303 68.4761L67.9356 60.77L59.6814 58.6325C59.6814 58.745 60.4675 60.77 60.2991 62.2325Z" fill="#F6F5F5"/>
<path d="M74.8422 69.9386L67.0933 68.4761L67.2618 60.77L76.3021 61.2762M58.053 65.1012C58.053 65.1012 59.906 62.5137 60.0183 61.7825C60.1306 61.0512 59.8499 59.195 59.2884 58.9138C58.6707 58.6325 54.4032 55.8201 53.2241 55.8201C51.9887 55.8201 51.1465 56.4388 51.1465 58.0138C51.2026 59.4763 52.3256 62.345 54.0102 63.3012C55.6385 64.3137 58.053 65.1012 58.053 65.1012ZM60.2991 62.2325C60.1306 63.695 58.783 65.7199 58.783 65.7199L67.4303 68.4761L67.9356 60.77L59.6814 58.6325C59.6814 58.745 60.4675 60.77 60.2991 62.2325Z" stroke="#138BE1" stroke-width="0.8" stroke-miterlimit="10"/>
<path d="M76.2999 61.2756C76.2999 61.2756 99.1533 58.0131 103.14 57.7881C107.127 57.5631 111.9 58.8006 113.584 60.0943C115.044 61.2193 104.431 63.6943 104.993 66.2817C105.779 69.6004 107.688 69.6567 108.924 71.2317C110.159 72.8066 109.878 75.9004 109.654 76.6878C109.26 77.9816 106.116 79.2191 105.33 79.1628C104.544 79.0503 99.6025 80.344 98.1987 80.794C96.795 81.244 91.966 83.6065 88.99 84.7315C86.014 85.8002 77.4791 87.8814 77.1422 87.5439C76.9737 87.3752 79.4443 85.9127 78.9951 84.5065C77.8721 80.9065 73.4362 75.0004 73.3239 72.4129C73.2677 70.2754 74.6715 67.238 75.5138 64.7068C76.1876 63.0193 76.2999 61.2756 76.2999 61.2756Z" fill="white"/>
<path d="M84.6692 81.4135C84.6692 81.4135 90.2843 79.7822 93.148 78.151C96.0117 76.4635 104.603 72.0199 105.333 71.6261C106.063 71.2324 107.073 72.3011 107.298 73.0886C107.523 73.8761 107.186 78.7698 107.186 78.7698C107.186 78.7698 106.849 78.9948 105.557 79.1073C104.266 79.2198 98.4824 80.2322 95.7871 81.6947C93.0919 83.1572 85.5676 85.8009 84.3885 85.9134C83.2093 86.0822 77.2012 87.6009 77.2012 87.6009C77.2012 87.6009 78.8296 85.6322 78.9419 85.2384C79.0542 84.8447 79.6718 84.7322 79.6718 84.7322C79.6718 84.7322 81.6932 85.9697 81.7494 85.9697C81.8055 85.9134 84.6692 81.4135 84.6692 81.4135Z" fill="#F6F5F5"/>
<path d="M76.2999 61.2756C76.2999 61.2756 99.1533 58.0131 103.14 57.7881C107.127 57.5631 111.9 58.8006 113.584 60.0943C115.044 61.2193 104.431 63.6943 104.993 66.2817C105.779 69.6004 107.688 69.6567 108.924 71.2317C110.159 72.8066 109.878 75.9004 109.654 76.6878C109.26 77.9816 106.116 79.2191 105.33 79.1628C104.544 79.0503 99.6025 80.344 98.1987 80.794C96.795 81.244 91.966 83.6065 88.99 84.7315C86.014 85.8002 77.4791 87.8814 77.1422 87.5439C76.9737 87.3752 79.4443 85.9127 78.9951 84.5065C77.8721 80.9065 73.4362 75.0004 73.3239 72.4129C73.2677 70.2754 74.6715 67.238 75.5138 64.7068C76.1876 63.0193 76.2999 61.2756 76.2999 61.2756Z" stroke="#138BE1" stroke-width="0.8" stroke-miterlimit="10" stroke-linecap="round" stroke-linejoin="round"/>
<path d="M83.7129 81.3568C83.7129 81.3568 89.3841 80.3444 92.2478 78.7131C95.1115 77.0256 104.601 72.0195 105.331 71.5695C106.061 71.1757 107.072 72.2445 107.296 73.032C107.521 73.8195 107.072 78.6006 107.072 78.6006" stroke="#138BE1" stroke-width="0.8" stroke-miterlimit="10" stroke-linecap="round" stroke-linejoin="round"/>
<path d="M60.1853 80.0071L60.4661 79.7258V79.6133C60.3538 79.7821 60.2415 79.8946 60.1853 80.0071ZM57.0409 80.4008C56.3671 79.8383 56.0302 78.9946 56.1986 78.1509C55.6371 78.6009 55.1879 78.9383 54.9072 79.1633C54.9633 79.8383 55.3002 80.5696 55.9179 81.0758C56.7601 81.8071 57.8832 81.9196 58.7816 81.4696C59.0623 81.3008 59.2869 81.0758 59.5115 80.7946L59.5677 80.7383C58.8377 81.1321 57.827 81.0196 57.0409 80.4008ZM60.1853 80.0071L60.4661 79.7258V79.6133C60.3538 79.7821 60.2415 79.8946 60.1853 80.0071ZM54.6264 66.1698C54.5141 66.901 53.7841 68.026 52.6611 69.0947C52.5488 69.2072 52.4927 69.2635 52.3804 69.376C53.8964 68.0823 54.4579 66.9573 54.6264 66.3948C54.6826 66.3385 54.6826 66.226 54.6264 66.1698ZM54.5141 65.6073C54.458 65.5511 54.4018 65.4948 54.2895 65.4948C54.4579 65.7198 54.5703 65.9448 54.6264 66.1698C54.6826 65.8885 54.6264 65.7198 54.5141 65.6073ZM52.2681 69.4322C51.5943 70.051 50.6397 70.276 49.7413 69.826C49.5728 69.7135 49.3482 69.601 49.2359 69.4885C48.9552 70.051 48.899 70.501 49.0675 70.726C49.1236 70.7822 49.2921 70.951 49.7413 70.8947C49.7974 70.8947 49.8536 70.8947 49.8536 70.8947C49.9097 70.8947 49.9659 70.8947 50.022 70.8385C50.1905 70.7822 50.3589 70.726 50.5274 70.6135C50.6397 70.5572 50.752 70.501 50.8643 70.4447C51.0328 70.3322 51.2573 70.2197 51.4819 70.051C51.5381 69.9947 51.6504 69.9385 51.7066 69.8822C51.7627 69.826 51.875 69.7697 51.9312 69.7135C51.9873 69.6572 52.0996 69.601 52.1558 69.4885L52.2119 69.4322C52.2681 69.4885 52.3242 69.4885 52.2681 69.4322ZM60.41 79.6133C60.2977 79.7258 60.2415 79.8946 60.1292 80.0071H60.1853L59.7923 80.5696C59.7361 80.5696 59.68 80.6258 59.6238 80.6258C58.8377 81.0196 57.7709 80.9071 57.0409 80.2883C56.3671 79.7258 56.0302 78.8821 56.1986 78.0384C56.4794 77.8134 56.7601 77.5321 57.0409 77.3071C57.3217 77.0259 57.6586 76.7446 57.8832 76.4634C58.2762 76.0696 58.6693 75.6197 59.0062 75.1697L60.4661 76.1821L60.41 79.6133ZM67.2604 85.3508C67.2604 85.4633 66.9235 85.857 66.5866 86.2507C66.1935 86.7007 65.5758 86.757 65.0705 86.4757C62.9929 85.2945 57.6585 82.257 57.6585 82.1446C57.6585 82.0883 58.2201 81.8633 58.8377 81.4133C59.1185 81.2446 59.3431 81.0196 59.5677 80.7383L59.6238 80.6821C59.68 80.6821 59.7361 80.6258 59.7923 80.6258L60.1853 80.0633L60.41 79.7258V79.6133C61.3084 78.2634 62.0383 76.6884 62.0383 76.6884L67.2604 85.3508ZM54.7949 66.001C54.7949 66.001 54.7949 66.1135 54.6826 66.3948C54.458 66.9573 53.8964 68.0823 52.4365 69.376C52.5488 69.3197 52.605 69.2072 52.7173 69.0947C53.8403 68.026 54.5703 66.8448 54.6826 66.1698C54.6264 65.9448 54.5141 65.7198 54.3456 65.4948C54.121 65.1573 53.7841 64.8198 53.3349 64.6511C53.2226 64.5948 53.0542 64.5386 52.9419 64.4823C52.5488 64.8761 52.0435 65.326 51.4258 65.776C51.2574 65.8885 51.145 66.001 50.9766 66.1135C50.5274 66.451 50.0782 66.7323 49.6851 66.9573C49.6851 67.4635 49.8536 67.9135 50.0782 68.3073C50.3028 68.701 50.6958 69.0385 51.1451 69.2072C51.5381 69.376 51.9312 69.4885 52.3242 69.4885H52.3804C52.3804 69.4885 52.3804 69.4885 52.3242 69.5447C52.3242 69.5447 52.3242 69.5447 52.2681 69.601L52.2119 69.6572C52.0996 69.7135 52.0435 69.7697 51.9873 69.8822C51.875 69.9385 51.8189 69.9947 51.7627 70.051C51.7066 70.1072 51.5943 70.1635 51.5381 70.2197C51.3135 70.3885 51.0889 70.501 50.9204 70.6135C50.8081 70.6697 50.6958 70.726 50.5835 70.7822C50.4151 70.8947 50.2466 70.951 50.0782 71.0072C50.022 71.0072 49.9659 71.0072 49.9097 71.0635C49.8536 71.0635 49.7974 71.0635 49.7974 71.0635C49.3482 71.1197 49.2359 71.0072 49.1798 70.951C49.3482 71.2885 50.8643 73.9884 51.8189 75.3947C52.8857 76.9134 54.7387 79.3883 54.7387 79.3883C54.7387 79.3883 54.7949 79.3321 54.9633 79.2196C55.2441 79.0508 55.6933 78.6571 56.2548 78.2071C56.5355 77.9821 56.8163 77.7009 57.097 77.4759C57.3778 77.1946 57.7147 76.9134 57.9393 76.6321C58.3324 76.2384 58.7254 75.7884 59.0623 75.3384C59.9046 74.2697 60.5784 73.2572 60.5784 73.2572L54.7949 66.001ZM51.6504 68.026C51.3135 67.8573 51.0889 67.576 50.9766 67.2385C50.8643 66.9573 50.9204 66.6198 51.0327 66.3385C51.145 66.1135 51.3135 65.9448 51.5381 65.776C51.875 65.551 52.3242 65.551 52.7173 65.7198C52.7734 65.7198 52.8296 65.776 52.8296 65.776C53.3349 66.1135 53.5595 66.7885 53.2788 67.4073C53.1665 67.576 53.0542 67.7448 52.8857 67.8573C52.605 68.1948 52.0996 68.251 51.6504 68.026ZM52.2681 69.4322C51.5943 70.051 50.6397 70.276 49.7413 69.826C49.5728 69.7135 49.3482 69.601 49.2359 69.4885C48.6744 68.9822 48.4498 68.251 48.5621 67.5198C48.8429 67.4073 49.2359 67.1823 49.6851 66.901C49.6851 67.4073 49.8536 67.8573 50.0782 68.251C50.3028 68.6448 50.6958 68.9822 51.1451 69.151C51.482 69.376 51.875 69.4322 52.2681 69.4322ZM53.3349 67.4635C53.2226 67.6323 53.1103 67.801 52.9419 67.9135C52.5488 68.1948 52.0996 68.251 51.6504 68.026C51.3135 67.8573 51.0889 67.576 50.9766 67.2385C50.8643 66.9573 50.9204 66.6198 51.0327 66.3385C51.145 66.1135 51.3135 65.9448 51.5381 65.776C51.875 65.551 52.3242 65.551 52.7173 65.7198C52.7734 65.7198 52.8296 65.776 52.8296 65.776C53.4472 66.1698 53.6157 66.8448 53.3349 67.4635ZM53.6718 63.6386C53.6718 63.6386 53.3911 63.9761 52.8857 64.4261C52.4927 64.8198 51.9873 65.2698 51.3697 65.7198C51.2012 65.8323 51.0889 65.9448 50.9204 66.0573C50.4712 66.3948 50.022 66.676 49.629 66.901C49.1798 67.1823 48.7867 67.4073 48.506 67.5198C48.1691 67.6885 48.0006 67.801 48.0006 67.801C48.0006 67.801 46.3161 64.7073 45.3615 62.4573C44.6315 60.8261 42.7224 56.7199 42.7786 55.9887C42.8347 55.2574 44.3508 53.7387 46.2599 54.8075C48.1691 55.8762 51.3697 60.1511 51.9873 61.1074C52.605 62.0636 53.6718 63.6386 53.6718 63.6386Z" fill="white"/>
<path d="M60.1853 80.0071L60.4661 79.7258V79.6133C60.3538 79.7821 60.2415 79.8946 60.1853 80.0071ZM60.1853 80.0071H60.1292C60.2415 79.8946 60.2977 79.7258 60.41 79.6133M60.1853 80.0071L59.7923 80.5696C59.7361 80.5696 59.68 80.6258 59.6238 80.6258C58.8377 81.0196 57.7709 80.9071 57.0409 80.2883C56.3671 79.7258 56.0302 78.8821 56.1986 78.0384C56.4794 77.8134 56.7601 77.5321 57.0409 77.3071C57.3217 77.0259 57.6586 76.7446 57.8832 76.4634C58.2762 76.0696 58.6693 75.6197 59.0062 75.1697L60.4661 76.1821L60.41 79.6133M59.5677 80.7383L59.5115 80.7946C59.2869 81.0758 59.0623 81.3008 58.7816 81.4696C57.8832 81.9196 56.7601 81.8071 55.9179 81.0758C55.3002 80.5696 54.9633 79.8383 54.9072 79.1633C55.1879 78.9383 55.6371 78.6009 56.1986 78.1509C56.0302 78.9946 56.3671 79.8383 57.0409 80.4008C57.827 81.0196 58.8377 81.1321 59.5677 80.7383ZM59.5677 80.7383C59.3431 81.0196 59.1185 81.2446 58.8377 81.4133C58.2201 81.8633 57.6585 82.0883 57.6585 82.1446C57.6585 82.2571 62.9929 85.2945 65.0705 86.4757C65.5758 86.757 66.1935 86.7007 66.5866 86.2507C66.9235 85.857 67.2604 85.4633 67.2604 85.3508L62.0383 76.6884C62.0383 76.6884 61.3084 78.2634 60.41 79.6133M59.5677 80.7383L59.6238 80.6821C59.68 80.6821 59.7361 80.6258 59.7923 80.6258L60.1853 80.0633L60.41 79.7258V79.6133M54.6264 66.1698C54.5141 66.901 53.7841 68.026 52.6611 69.0947C52.5488 69.2072 52.4927 69.2635 52.3804 69.376C53.8964 68.0823 54.4579 66.9573 54.6264 66.3948C54.6826 66.3385 54.6826 66.226 54.6264 66.1698ZM54.6264 66.1698C54.5703 65.9448 54.4579 65.7198 54.2895 65.4948C54.4018 65.4948 54.458 65.5511 54.5141 65.6073C54.6264 65.7198 54.6826 65.8885 54.6264 66.1698ZM52.2681 69.4322C51.5943 70.051 50.6397 70.276 49.7413 69.826C49.5728 69.7135 49.3482 69.601 49.2359 69.4885M52.2681 69.4322C52.3242 69.4885 52.2681 69.4885 52.2119 69.4322L52.1558 69.4885C52.0996 69.601 51.9873 69.6572 51.9312 69.7135C51.875 69.7697 51.7627 69.826 51.7066 69.8822C51.6504 69.9385 51.5381 69.9947 51.4819 70.051C51.2573 70.2197 51.0328 70.3322 50.8643 70.4447C50.752 70.501 50.6397 70.5572 50.5274 70.6135C50.3589 70.726 50.1905 70.7822 50.022 70.8385C49.9659 70.8947 49.9097 70.8947 49.8536 70.8947C49.8536 70.8947 49.7974 70.8947 49.7413 70.8947C49.2921 70.951 49.1236 70.7822 49.0675 70.726C48.899 70.501 48.9552 70.051 49.2359 69.4885M52.2681 69.4322C52.3242 69.4322 52.3242 69.4322 52.3242 69.4322M52.2681 69.4322C51.875 69.4322 51.482 69.376 51.1451 69.151C50.6958 68.9822 50.3028 68.6448 50.0782 68.251C49.8536 67.8573 49.6851 67.4073 49.6851 66.901C49.2359 67.1823 48.8429 67.4073 48.5621 67.5198C48.4498 68.251 48.6744 68.9822 49.2359 69.4885M51.6504 68.026C51.3135 67.8573 51.0889 67.576 50.9766 67.2385C50.8643 66.9573 50.9204 66.6198 51.0327 66.3385C51.145 66.1135 51.3135 65.9448 51.5381 65.776C51.875 65.551 52.3242 65.551 52.7173 65.7198C52.7734 65.7198 52.8296 65.776 52.8296 65.776M51.6504 68.026C52.0996 68.251 52.605 68.1948 52.8857 67.8573C53.0542 67.7448 53.1665 67.576 53.2788 67.4073C53.5595 66.7885 53.3349 66.1135 52.8296 65.776M51.6504 68.026C52.0996 68.251 52.5488 68.1948 52.9419 67.9135C53.1103 67.801 53.2226 67.6323 53.3349 67.4635C53.6157 66.8448 53.4472 66.1698 52.8296 65.776M54.7949 66.001C54.7949 66.001 54.7949 66.1135 54.6826 66.3948C54.458 66.9573 53.8964 68.0823 52.4365 69.376C52.5488 69.3197 52.605 69.2072 52.7173 69.0947C53.8403 68.026 54.5703 66.8448 54.6826 66.1698C54.6264 65.9448 54.5141 65.7198 54.3456 65.4948C54.121 65.1573 53.7841 64.8198 53.3349 64.6511C53.2226 64.5948 53.0542 64.5386 52.9419 64.4823C52.5488 64.8761 52.0435 65.326 51.4258 65.776C51.2574 65.8885 51.145 66.001 50.9766 66.1135C50.5274 66.451 50.0782 66.7323 49.6851 66.9573C49.6851 67.4635 49.8536 67.9135 50.0782 68.3073C50.3028 68.701 50.6958 69.0385 51.1451 69.2072C51.5381 69.376 51.9312 69.4885 52.3242 69.4885H52.3804C52.3804 69.4885 52.3804 69.4885 52.3242 69.5447C52.3242 69.5447 52.3242 69.5447 52.2681 69.601L52.2119 69.6572C52.0996 69.7135 52.0435 69.7697 51.9873 69.8822C51.875 69.9385 51.8189 69.9947 51.7627 70.051C51.7066 70.1072 51.5943 70.1635 51.5381 70.2197C51.3135 70.3885 51.0889 70.501 50.9204 70.6135C50.8081 70.6697 50.6958 70.726 50.5835 70.7822C50.4151 70.8947 50.2466 70.951 50.0782 71.0072C50.022 71.0072 49.9659 71.0072 49.9097 71.0635C49.8536 71.0635 49.7974 71.0635 49.7974 71.0635C49.3482 71.1197 49.2359 71.0072 49.1798 70.951C49.3482 71.2885 50.8643 73.9884 51.8189 75.3947C52.8857 76.9134 54.7387 79.3883 54.7387 79.3883C54.7387 79.3883 54.7949 79.3321 54.9633 79.2196C55.2441 79.0508 55.6933 78.6571 56.2548 78.2071C56.5355 77.9821 56.8163 77.7009 57.097 77.4759C57.3778 77.1946 57.7147 76.9134 57.9393 76.6321C58.3324 76.2384 58.7254 75.7884 59.0623 75.3384C59.9046 74.2697 60.5784 73.2572 60.5784 73.2572L54.7949 66.001ZM53.6718 63.6386C53.6718 63.6386 53.3911 63.9761 52.8857 64.4261C52.4927 64.8198 51.9873 65.2698 51.3697 65.7198C51.2012 65.8323 51.0889 65.9448 50.9204 66.0573C50.4712 66.3948 50.022 66.676 49.629 66.901C49.1798 67.1823 48.7867 67.4073 48.506 67.5198C48.1691 67.6885 48.0006 67.801 48.0006 67.801C48.0006 67.801 46.3161 64.7073 45.3615 62.4573C44.6315 60.8261 42.7224 56.7199 42.7786 55.9887C42.8347 55.2574 44.3508 53.7387 46.2599 54.8075C48.1691 55.8762 51.3697 60.1511 51.9873 61.1074C52.605 62.0636 53.6718 63.6386 53.6718 63.6386Z" stroke="#138BE1" stroke-width="0.8" stroke-miterlimit="10" stroke-linecap="round" stroke-linejoin="round"/>
<path d="M55.3554 65.6633C55.0185 64.5945 55.0185 63.582 55.2993 62.9633L53.6709 62.9071C53.0532 63.357 52.8848 64.707 53.334 66.057C53.6147 66.9007 54.0639 67.5757 54.5132 67.9695C55.0747 68.082 55.9731 68.1382 56.8153 67.8007C56.31 67.4632 55.6923 66.6757 55.3554 65.6633ZM65.1257 80.2318C65.0134 80.5693 64.8449 80.8505 64.6765 81.0755C64.9011 80.9068 65.0695 80.6818 65.1818 80.4568C65.1257 80.4568 65.1257 80.4005 65.1257 80.2318ZM60.1282 79.3881C59.7352 78.5443 59.6229 77.7006 59.7352 76.9693C59.1737 77.0818 58.556 77.1381 58.0507 77.1381C57.8822 77.9818 58.0507 78.9381 58.556 79.8943C59.4544 81.6943 61.1951 82.7068 63.3288 81.6943C62.0935 81.8068 60.8021 80.8505 60.1282 79.3881ZM64.8449 80.963C64.8449 80.963 64.508 81.8068 63.8342 82.088C63.1604 82.3693 62.3181 82.2568 62.3181 82.2568L68.2701 85.8567C68.2701 85.8567 68.9439 86.138 69.3931 85.7442C69.7301 85.463 69.8423 84.7317 69.8423 84.7317L64.8449 80.963ZM65.238 79.7818C65.238 79.9506 65.1818 80.1193 65.1257 80.288C65.0134 80.6255 64.8449 80.9068 64.6765 81.1318C64.508 81.3568 64.2834 81.5255 64.0027 81.638C63.7781 81.7505 63.4973 81.8068 63.2727 81.8068C62.0935 81.863 60.8021 80.9068 60.1282 79.4443C59.7352 78.6006 59.6229 77.7568 59.7352 77.0256C60.1282 76.9693 60.4651 76.8568 60.802 76.6881C61.3636 76.4069 61.9251 75.9569 62.3743 75.5069C63.1042 74.7194 63.6096 73.8756 63.6096 73.8756C63.6096 73.8756 63.5535 73.7631 63.4973 73.4819L63.7219 73.3694C63.7219 73.3694 64.0588 74.9444 64.3957 76.5756C63.9465 76.0131 63.3288 75.7319 62.7673 75.9006C62.7112 75.9006 62.7112 75.9006 62.655 75.9569C61.9251 76.2944 61.6443 77.3631 61.9812 78.3756C62.3743 79.5006 63.2727 80.1755 64.1149 79.8943C64.4519 79.7818 64.7326 79.5006 64.9011 79.1631C64.9011 79.1068 64.9572 79.0506 64.9572 78.9943C64.9572 79.1068 65.0134 79.2193 65.0134 79.3318L65.238 79.7818ZM64.9011 78.9943C64.9011 79.0506 64.8449 79.1068 64.8449 79.1631C64.6765 79.5006 64.4519 79.7818 64.0588 79.8943C63.2727 80.1755 62.3181 79.4443 61.9251 78.3756C61.5882 77.3068 61.8689 76.2381 62.5989 75.9569C62.655 75.9569 62.655 75.9006 62.7112 75.9006C63.2727 75.7319 63.8904 76.0131 64.3396 76.5756C64.5642 76.8006 64.6765 77.1381 64.7888 77.4756C65.0134 77.9818 65.0134 78.5443 64.9011 78.9943ZM63.5534 73.8194C63.5534 73.8194 63.0481 74.6631 62.3181 75.4506C61.8689 75.9006 61.3636 76.3506 60.7459 76.6318C60.409 76.8006 60.0721 76.9131 59.679 76.9693C59.1175 77.0818 58.4999 77.1381 57.9945 77.1381C57.2645 77.1381 56.7592 77.1381 56.7592 77.1381L54.1201 67.857C54.1201 67.857 54.2885 67.9132 54.5693 67.9695C55.1308 68.082 56.0292 68.1382 56.8715 67.8007C57.433 67.5757 57.9384 67.2945 58.3876 67.0132C58.6122 66.8445 58.8368 66.6757 59.0614 66.5632C59.4544 66.2258 59.7352 66.0008 59.7352 66.0008C59.7352 66.0008 61.8689 69.2632 62.262 69.9944C62.5427 70.5569 63.2165 72.5819 63.4973 73.4256C63.4973 73.6506 63.5534 73.8194 63.5534 73.8194ZM59.0614 66.5632C58.8929 66.732 58.6683 66.8445 58.3876 67.0132C57.9384 67.2945 57.433 67.5757 56.8715 67.8007C56.2538 67.4632 55.6923 66.6757 55.3554 65.607C55.0185 64.5383 55.0185 63.5258 55.2993 62.9071L57.0961 62.9633C56.703 63.357 56.6469 64.2008 56.9276 65.1008C57.2084 66.0008 57.7699 66.6195 58.2753 66.732C58.3876 66.732 58.4999 66.732 58.6122 66.732C58.7245 66.6757 58.8929 66.6195 58.9491 66.4508L59.0614 66.5632ZM59.0052 66.4508C58.8929 66.5632 58.7806 66.6757 58.6683 66.732C58.556 66.7882 58.4437 66.7882 58.3314 66.732C57.8261 66.6195 57.2645 66.0008 56.9838 65.1008C56.703 64.2008 56.7592 63.357 57.1522 62.9633H57.3207H57.433L58.163 63.0195C58.4999 63.3008 58.8368 63.807 59.0614 64.4258C59.3421 65.2695 59.286 66.057 59.0052 66.4508ZM58.8929 59.8133C58.8368 61.1633 58.4999 63.132 58.4999 63.132H58.2191L57.4891 63.0758H57.3768H57.2084L55.4116 63.0195L53.7832 62.9633L52.8848 62.9071C52.8848 62.9071 53.2778 59.8133 53.727 56.8884C54.1762 54.3572 54.6816 51.826 55.0747 51.3197C55.4677 50.8135 57.433 51.151 58.163 52.8384C58.8929 54.5259 58.9491 58.8571 58.8929 59.8133Z" fill="white"/>
<path d="M56.8715 67.8007C56.0292 68.1382 55.1308 68.082 54.5693 67.9695C54.2885 67.9132 54.1201 67.857 54.1201 67.857L56.7592 77.1381C56.7592 77.1381 57.2645 77.1381 57.9945 77.1381C58.4999 77.1381 59.1175 77.0818 59.679 76.9693C60.0721 76.9131 60.409 76.8006 60.7459 76.6318C61.3636 76.3506 61.8689 75.9006 62.3181 75.4506C63.0481 74.6631 63.5534 73.8194 63.5534 73.8194C63.5534 73.8194 63.4973 73.6506 63.4973 73.4256C63.2165 72.5819 62.5427 70.5569 62.262 69.9944C61.8689 69.2632 59.7352 66.0008 59.7352 66.0008C59.7352 66.0008 59.4544 66.2258 59.0614 66.5632M56.8715 67.8007C57.433 67.5757 57.9384 67.2945 58.3876 67.0132M56.8715 67.8007C56.2538 67.4632 55.6923 66.6757 55.3554 65.607C55.0185 64.5383 55.0185 63.5258 55.2993 62.907L57.0961 62.9633C56.703 63.357 56.6469 64.2008 56.9276 65.1008C57.2084 66.0008 57.7699 66.6195 58.2753 66.732C58.3876 66.732 58.4999 66.732 58.6122 66.732C58.7245 66.6757 58.8929 66.6195 58.9491 66.4508L59.0614 66.5632M58.3876 67.0132C58.6122 66.8445 58.8368 66.6757 59.0614 66.5632M58.3876 67.0132C58.6683 66.8445 58.8929 66.732 59.0614 66.5632M55.3554 65.6633C55.0185 64.5945 55.0185 63.582 55.2993 62.9633L53.6709 62.907C53.0532 63.357 52.8848 64.707 53.334 66.057C53.6147 66.9007 54.0639 67.5757 54.5132 67.9695C55.0747 68.082 55.9731 68.1382 56.8153 67.8007C56.31 67.4632 55.6923 66.6757 55.3554 65.6633ZM65.1257 80.2318C65.0134 80.5693 64.8449 80.8505 64.6765 81.0755C64.9011 80.9068 65.0695 80.6818 65.1818 80.4568C65.1257 80.4568 65.1257 80.4005 65.1257 80.2318ZM60.1282 79.3881C59.7352 78.5443 59.6229 77.7006 59.7352 76.9693C59.1737 77.0818 58.556 77.1381 58.0507 77.1381C57.8822 77.9818 58.0507 78.9381 58.556 79.8943C59.4544 81.6943 61.1951 82.7068 63.3288 81.6943C62.0935 81.8068 60.8021 80.8505 60.1282 79.3881ZM64.8449 80.963C64.8449 80.963 64.508 81.8068 63.8342 82.088C63.1604 82.3693 62.3181 82.2568 62.3181 82.2568L68.2701 85.8567C68.2701 85.8567 68.9439 86.138 69.3931 85.7442C69.7301 85.463 69.8423 84.7317 69.8423 84.7317L64.8449 80.963ZM65.238 79.7818C65.238 79.9506 65.1818 80.1193 65.1257 80.288C65.0134 80.6255 64.8449 80.9068 64.6765 81.1318C64.508 81.3568 64.2834 81.5255 64.0027 81.638C63.7781 81.7505 63.4973 81.8068 63.2727 81.8068C62.0935 81.863 60.8021 80.9068 60.1282 79.4443C59.7352 78.6006 59.6229 77.7568 59.7352 77.0256C60.1282 76.9693 60.4651 76.8568 60.802 76.6881C61.3636 76.4069 61.9251 75.9569 62.3743 75.5069C63.1042 74.7194 63.6096 73.8756 63.6096 73.8756C63.6096 73.8756 63.5535 73.7631 63.4973 73.4819L63.7219 73.3694C63.7219 73.3694 64.0588 74.9444 64.3957 76.5756C63.9465 76.0131 63.3288 75.7319 62.7673 75.9006C62.7112 75.9006 62.7112 75.9006 62.655 75.9569C61.9251 76.2944 61.6443 77.3631 61.9812 78.3756C62.3743 79.5006 63.2727 80.1755 64.1149 79.8943C64.4519 79.7818 64.7326 79.5006 64.9011 79.1631C64.9011 79.1068 64.9572 79.0506 64.9572 78.9943C64.9572 79.1068 65.0134 79.2193 65.0134 79.3318L65.238 79.7818ZM64.9011 78.9943C64.9011 79.0506 64.8449 79.1068 64.8449 79.1631C64.6765 79.5006 64.4519 79.7818 64.0588 79.8943C63.2727 80.1755 62.3181 79.4443 61.9251 78.3756C61.5882 77.3068 61.8689 76.2381 62.5989 75.9569C62.655 75.9569 62.655 75.9006 62.7112 75.9006C63.2727 75.7319 63.8904 76.0131 64.3396 76.5756C64.5642 76.8006 64.6765 77.1381 64.7888 77.4756C65.0134 77.9818 65.0134 78.5443 64.9011 78.9943ZM59.0052 66.4508C58.8929 66.5632 58.7806 66.6757 58.6683 66.732C58.556 66.7882 58.4437 66.7882 58.3314 66.732C57.8261 66.6195 57.2645 66.0008 56.9838 65.1008C56.703 64.2008 56.7592 63.357 57.1522 62.9633H57.3207H57.433L58.163 63.0195C58.4999 63.3008 58.8368 63.807 59.0614 64.4258C59.3421 65.2695 59.286 66.057 59.0052 66.4508ZM58.8929 59.8133C58.8368 61.1633 58.4999 63.132 58.4999 63.132H58.2191L57.4891 63.0758H57.3768H57.2084L55.4116 63.0195L53.7832 62.9633L52.8848 62.907C52.8848 62.907 53.2778 59.8133 53.727 56.8884C54.1762 54.3572 54.6816 51.826 55.0747 51.3197C55.4677 50.8135 57.433 51.151 58.163 52.8384C58.8929 54.5259 58.9491 58.8571 58.8929 59.8133Z" stroke="#138BE1" stroke-width="0.8" stroke-miterlimit="10" stroke-linecap="round" stroke-linejoin="round"/>
<path d="M94.9989 58.9697C91.686 59.9259 90.3945 61.8384 88.9346 63.7508C87.4747 65.6633 82.4772 67.9695 79.7258 67.4633C76.9744 66.957 77.3675 60.9946 77.6482 60.4321C77.929 59.8696 79.4451 59.5321 82.4211 58.6322C85.3971 57.7322 90.563 57.2822 93.539 57.3947C98.1433 57.5634 99.0417 58.2384 99.0417 58.2384C99.0417 58.2384 98.3118 58.0697 94.9989 58.9697ZM73.4931 72.7507C74.1669 79.5569 77.5921 76.1819 77.5921 76.1819C77.5921 76.1819 82.1403 75.1694 83.881 75.9569C86.0709 76.9131 85.734 80.7381 85.734 80.7381C85.734 80.7381 95.1112 73.9882 96.4026 71.8507C97.6941 69.7695 95.8411 66.1695 93.3143 64.9883C90.7875 63.8071 86.4639 65.7195 84.0494 67.4633C81.6349 69.2632 76.6937 68.757 76.6937 68.757C76.6937 68.757 72.9877 67.7445 73.4931 72.7507ZM69.7871 74.0444L71.3032 69.6007L69.7871 74.0444Z" fill="white"/>
<path d="M69.7871 74.0444L71.3032 69.6007M94.9989 58.9697C91.686 59.9259 90.3945 61.8384 88.9346 63.7508C87.4747 65.6633 82.4772 67.9695 79.7258 67.4633C76.9744 66.957 77.3675 60.9946 77.6482 60.4321C77.929 59.8696 79.4451 59.5321 82.4211 58.6322C85.3971 57.7322 90.563 57.2822 93.539 57.3947C98.1433 57.5634 99.0417 58.2384 99.0417 58.2384C99.0417 58.2384 98.3118 58.0697 94.9989 58.9697ZM73.4931 72.7507C74.1669 79.5568 77.5921 76.1819 77.5921 76.1819C77.5921 76.1819 82.1403 75.1694 83.881 75.9569C86.0709 76.9131 85.734 80.7381 85.734 80.7381C85.734 80.7381 95.1112 73.9882 96.4026 71.8507C97.6941 69.7695 95.8411 66.1695 93.3143 64.9883C90.7875 63.8071 86.4639 65.7195 84.0494 67.4633C81.6349 69.2632 76.6937 68.757 76.6937 68.757C76.6937 68.757 72.9877 67.7445 73.4931 72.7507Z" stroke="#138BE1" stroke-width="0.8" stroke-miterlimit="10" stroke-linecap="round" stroke-linejoin="round"/>
<path d="M77.8726 86.869L74.6159 86.0253L77.8726 86.869ZM71.0784 76.8004C70.573 75.5629 69.6185 74.7754 68.9446 75.0567C68.2708 75.3379 68.1585 76.5754 68.6639 77.8129C69.1693 79.0504 70.1238 79.8378 70.7976 79.5566C70.8538 79.5566 70.9099 79.5004 71.0222 79.4441C71.2468 78.8254 71.303 78.0941 71.303 77.4191C71.1907 77.2504 71.1345 77.0254 71.0784 76.8004ZM71.2468 76.0692C71.1907 76.0692 71.303 76.6879 71.2468 77.4191C71.2468 78.0941 71.1907 78.8254 70.9661 79.4441C70.9099 79.5566 70.8538 79.7254 70.7976 79.8378C70.4607 80.4566 70.0115 80.9066 69.5623 81.2441C68.8323 81.7503 67.9901 81.8628 67.3724 81.8628C67.3724 81.8628 67.3724 81.8628 67.3163 81.8628C67.0355 81.8628 66.8109 81.8628 66.5302 81.8066C66.474 81.8066 66.4179 81.8066 66.4179 81.8066C66.4179 81.8066 66.3617 81.8066 66.4179 81.8628L71.8083 85.8565C71.8083 85.8565 74.0544 87.0377 75.6266 85.4628C77.0304 84.0565 77.3111 80.8503 77.3111 80.8503C77.3111 80.8503 71.3591 76.0692 71.2468 76.0692ZM67.2601 54.3007C66.5302 52.782 64.8456 52.5008 64.4526 52.8945C64.1157 53.3445 63.6103 55.5945 63.2173 57.9007C62.7681 60.5444 62.4311 63.3006 62.4311 63.3006H62.5996L64.3964 63.3568L66.1933 63.4131L66.9232 63.4693H67.597C67.597 63.4693 67.8778 61.7256 67.9339 60.4881C68.1024 59.7006 67.9339 55.8195 67.2601 54.3007ZM67.7655 65.0443C67.6532 64.3131 67.3724 63.6943 66.9794 63.4131L66.2494 63.3568C65.8564 63.6381 65.6318 64.3693 65.7441 65.2131C65.8002 65.8318 66.0809 66.3943 66.3617 66.6755L67.4286 66.6193C67.7093 66.338 67.8216 65.7193 67.7655 65.0443ZM64.228 65.4381C64.1157 64.6506 64.228 63.8631 64.5087 63.3568L62.7119 63.3006C62.4311 63.8631 62.3188 64.5943 62.4311 65.4381C62.4873 66.0006 62.6558 66.5631 62.8804 67.013L64.6772 66.9005C64.4526 66.5068 64.2841 66.0006 64.228 65.4381ZM66.7548 78.6004C66.1933 77.3066 66.1371 76.0692 66.474 75.2817L64.3403 75.6192C63.7788 76.4066 63.7788 77.9816 64.2841 79.2754C64.7333 80.5128 65.5194 81.4691 66.5302 81.7503C66.6986 81.8066 66.9794 81.8066 67.3163 81.8066C67.3163 81.8066 67.3163 81.8066 67.3724 81.8066C67.9901 81.8066 68.5516 81.6941 69.3377 81.1878C68.3831 81.3003 67.4847 80.2316 66.7548 78.6004ZM65.7441 65.2693C65.6318 64.4256 65.8564 63.6943 66.2494 63.4131L64.4526 63.3568C64.228 63.8631 64.1157 64.6506 64.1718 65.4381C64.228 66.0006 64.3964 66.4506 64.5649 66.8443L66.3056 66.7318C66.081 66.4506 65.8564 65.9443 65.7441 65.2693ZM69.1692 70.1067C68.8885 68.5318 68.2147 66.6193 68.2147 66.6193L67.4286 66.6755L66.3617 66.7318L64.621 66.8443L62.8242 66.9568H62.375C62.375 66.9568 62.5434 69.488 63.0488 71.4567C63.498 73.4254 63.9472 75.6192 63.9472 75.6192L64.4526 75.5629L66.5863 75.2254L69.8992 74.6629C69.8431 74.7192 69.45 71.6817 69.1692 70.1067Z" fill="white"/>
<path d="M77.8726 86.869L74.6159 86.0253M71.0784 76.8004C70.573 75.5629 69.6185 74.7754 68.9446 75.0567C68.2708 75.3379 68.1585 76.5754 68.6639 77.8129C69.1693 79.0504 70.1238 79.8378 70.7976 79.5566C70.8538 79.5566 70.9099 79.5004 71.0222 79.4441C71.2468 78.8254 71.303 78.0941 71.303 77.4191C71.1907 77.2504 71.1345 77.0254 71.0784 76.8004ZM71.2468 76.0692C71.1907 76.0692 71.303 76.6879 71.2468 77.4191C71.2468 78.0941 71.1907 78.8254 70.9661 79.4441C70.9099 79.5566 70.8538 79.7254 70.7976 79.8378C70.4607 80.4566 70.0115 80.9066 69.5623 81.2441C68.8323 81.7503 67.9901 81.8628 67.3724 81.8628C67.3724 81.8628 67.3724 81.8628 67.3163 81.8628C67.0355 81.8628 66.8109 81.8628 66.5302 81.8066C66.474 81.8066 66.4179 81.8066 66.4179 81.8066C66.4179 81.8066 66.3617 81.8066 66.4179 81.8628L71.8083 85.8565C71.8083 85.8565 74.0544 87.0377 75.6266 85.4628C77.0304 84.0565 77.3111 80.8503 77.3111 80.8503C77.3111 80.8503 71.3591 76.0692 71.2468 76.0692ZM67.2601 54.3007C66.5302 52.782 64.8456 52.5008 64.4526 52.8945C64.1157 53.3445 63.6103 55.5945 63.2173 57.9007C62.7681 60.5444 62.4311 63.3006 62.4311 63.3006H62.5996L64.3964 63.3568L66.1933 63.4131L66.9232 63.4693H67.597C67.597 63.4693 67.8778 61.7256 67.9339 60.4881C68.1024 59.7006 67.9339 55.8195 67.2601 54.3007ZM67.7655 65.0443C67.6532 64.3131 67.3724 63.6943 66.9794 63.4131L66.2494 63.3568C65.8564 63.6381 65.6318 64.3693 65.7441 65.2131C65.8002 65.8318 66.0809 66.3943 66.3617 66.6755L67.4286 66.6193C67.7093 66.338 67.8216 65.7193 67.7655 65.0443ZM64.228 65.4381C64.1157 64.6506 64.228 63.8631 64.5087 63.3568L62.7119 63.3006C62.4311 63.8631 62.3188 64.5943 62.4311 65.4381C62.4873 66.0006 62.6558 66.5631 62.8804 67.013L64.6772 66.9005C64.4526 66.5068 64.2841 66.0006 64.228 65.4381ZM66.7548 78.6004C66.1933 77.3066 66.1371 76.0692 66.474 75.2817L64.3403 75.6192C63.7788 76.4066 63.7788 77.9816 64.2841 79.2754C64.7333 80.5128 65.5194 81.4691 66.5302 81.7503C66.6986 81.8066 66.9794 81.8066 67.3163 81.8066C67.3163 81.8066 67.3163 81.8066 67.3724 81.8066C67.9901 81.8066 68.5516 81.6941 69.3377 81.1878C68.3831 81.3003 67.4847 80.2316 66.7548 78.6004ZM65.7441 65.2693C65.6318 64.4256 65.8564 63.6943 66.2494 63.4131L64.4526 63.3568C64.228 63.8631 64.1157 64.6506 64.1718 65.4381C64.228 66.0006 64.3964 66.4506 64.5649 66.8443L66.3056 66.7318C66.081 66.4506 65.8564 65.9443 65.7441 65.2693ZM69.1692 70.1067C68.8885 68.5318 68.2147 66.6193 68.2147 66.6193L67.4286 66.6755L66.3617 66.7318L64.621 66.8443L62.8242 66.9568H62.375C62.375 66.9568 62.5434 69.488 63.0488 71.4567C63.498 73.4254 63.9472 75.6192 63.9472 75.6192L64.4526 75.5629L66.5863 75.2254L69.8992 74.6629C69.8431 74.7192 69.45 71.6817 69.1692 70.1067Z" stroke="#138BE1" stroke-width="0.8" stroke-miterlimit="10" stroke-linecap="round" stroke-linejoin="round"/>
<path d="M74.9535 70.1632C74.7851 69.9382 74.6166 69.5444 74.5043 69.1507C74.3359 68.3632 74.5605 67.632 74.8974 67.5195C74.8974 67.5195 74.8974 67.5195 74.9535 67.5195C75.2343 67.4632 75.515 67.6882 75.6835 68.1382L75.6273 67.5195C75.4589 67.4632 74.8974 67.1257 74.2797 66.957H74.2236C73.7743 67.0695 73.4374 67.9694 73.5498 68.9819C73.6059 69.5444 73.7743 70.0507 73.999 70.3319C74.1113 70.5007 74.2236 70.6132 74.3359 70.6694L74.6728 70.6132L75.4027 70.5007C75.2343 70.4444 75.0658 70.3319 74.9535 70.1632ZM75.7396 63.807C75.4027 62.682 74.7289 61.3883 74.1674 61.2758C73.6621 61.2195 72.7075 60.9946 72.146 62.232C71.5845 63.4695 71.1914 68.2507 71.1914 68.2507C71.1914 68.2507 71.416 68.0257 71.7529 67.7444C72.146 67.2945 72.7636 66.732 73.3813 66.7882C73.5497 66.7882 73.7182 66.8445 73.8867 66.8445C73.9428 66.8445 73.999 66.8445 74.1113 66.9007H74.1674C74.8412 67.0695 75.4027 67.3507 75.515 67.4632C75.6835 67.5757 75.7958 67.6882 75.7958 67.6882C75.7958 67.6882 76.245 65.2695 75.7396 63.807ZM75.9642 68.8694C75.9081 68.5882 75.8519 68.3069 75.7396 68.1382C75.515 67.7445 75.2343 67.4632 75.0097 67.5195C75.0097 67.5195 75.0097 67.5195 74.9535 67.5195C74.5605 67.632 74.392 68.3069 74.5605 69.1507C74.6166 69.5444 74.7851 69.9382 75.0097 70.1632C75.122 70.3319 75.3466 70.5007 75.4589 70.5007H75.6273C75.7396 70.4444 75.8519 70.3319 75.9081 70.1632C75.9081 70.1632 75.9081 70.1069 75.9642 70.1069C76.0204 69.7132 76.0204 69.2632 75.9642 68.8694ZM76.6942 70.1069C76.6942 70.1069 75.6835 70.3882 75.5712 70.4444H75.4027L74.6728 70.5569L74.3359 70.6132L72.146 71.0069C71.8091 71.1194 71.5845 71.2319 71.5845 71.2319L73.5498 77.7006C73.5498 77.7006 74.8974 77.2506 75.9642 76.7443C76.0765 76.6881 76.1327 76.6881 76.245 76.6318C76.5819 76.5193 76.9188 76.3506 77.3119 76.2381C77.368 76.2381 77.4803 76.1818 77.5365 76.1818C77.8734 76.0693 78.1541 76.0131 78.3787 75.9568C78.5472 75.9006 78.6595 75.9006 78.7718 75.9006C78.8841 75.9006 78.9402 75.8443 78.9402 75.8443L76.6942 70.1069ZM77.5365 78.038C77.3119 77.4756 77.1995 76.8568 77.3119 76.4068C77.3119 76.3506 77.3119 76.3506 77.3119 76.2943C76.9749 76.4068 76.5819 76.5193 76.245 76.6881V76.7443V76.8006C76.1888 77.3068 76.245 77.9256 76.5257 78.5443C76.5819 78.6568 76.6381 78.7693 76.6942 78.8818C77.1434 79.6693 77.7049 80.1755 78.3226 80.288C78.3787 80.2318 78.4349 80.1755 78.4349 80.063C78.5472 79.838 78.6595 79.6693 78.7718 79.4443C78.2664 79.2755 77.8172 78.713 77.5365 78.038ZM78.8279 75.9006C78.7156 75.9006 78.6033 75.9568 78.4349 75.9568C78.2103 76.0131 77.8734 76.0693 77.5926 76.1818C77.5365 76.1818 77.4242 76.2381 77.368 76.2381C77.368 76.2943 77.368 76.2943 77.368 76.3506C77.3119 76.8006 77.368 77.3631 77.5926 77.9818C77.8734 78.6568 78.3787 79.2193 78.8279 79.4443C78.8841 79.3318 78.8841 79.2755 78.9402 79.163C78.9964 79.0505 78.9964 78.9943 79.0525 78.938C79.3894 78.038 79.614 77.1943 79.6702 76.9131C79.3894 76.4631 79.1087 76.1256 78.8279 75.9006ZM73.999 70.3319C73.7743 69.9944 73.6059 69.4882 73.5498 68.9819C73.4374 67.9694 73.7182 67.0695 74.2236 66.957C74.1674 66.957 74.1113 66.9007 73.999 66.9007C73.8305 66.8445 73.662 66.8445 73.4936 66.8445C72.8198 66.7882 72.2583 67.3507 71.8652 67.8007C71.6406 68.0819 71.4722 68.3069 71.4722 68.3069C71.416 68.6444 71.416 69.0382 71.416 69.4319C71.4722 70.0507 71.6406 70.6694 71.8652 71.0632L72.146 71.0069L74.3359 70.6132C74.1674 70.5569 74.0551 70.4444 73.999 70.3319ZM76.6942 78.8818C76.6381 78.7693 76.5819 78.6568 76.5257 78.5443C76.3011 77.9256 76.245 77.2506 76.3011 76.7443H76.245L74.1113 77.5881C73.999 78.1505 74.1113 78.8818 74.392 79.5568C74.8412 80.6255 75.6273 81.3568 76.3573 81.4692C76.5257 81.413 76.6942 81.3567 76.8627 81.3005C77.0311 81.2443 77.1996 81.188 77.368 81.0755C77.7049 80.9068 77.9857 80.6255 78.2664 80.288C77.7049 80.1755 77.0873 79.6693 76.6942 78.8818ZM83.9377 79.5568C83.7692 79.5005 83.4885 79.5005 83.2639 79.6693L83.8254 80.1193C83.8254 80.1193 83.0954 83.0442 82.5339 83.8317C82.0847 84.4505 81.2986 85.1817 80.9617 85.4629C81.074 85.8004 81.1863 86.0254 81.4109 86.0817C82.1408 86.3629 83.2639 85.1254 83.9377 83.3255C84.6676 81.4693 84.6676 79.7818 83.9377 79.5568ZM83.8815 80.063C83.8815 80.063 83.1516 82.988 82.59 83.7755C82.1408 84.3942 81.3547 85.1254 81.0178 85.4067C80.9055 85.5192 80.8494 85.5192 80.8494 85.5192C80.8494 85.5192 75.6273 81.8067 75.6273 81.638C75.6273 81.5817 75.9642 81.5255 76.4135 81.413C76.5819 81.3567 76.7504 81.3005 76.9188 81.2442C77.0873 81.188 77.2557 81.1318 77.4242 81.0193C77.7611 80.8505 78.098 80.5693 78.3226 80.2318C78.3787 80.1755 78.4349 80.1193 78.4349 80.0068C78.5472 79.7818 78.6595 79.613 78.7718 79.388C78.8279 79.2755 78.8279 79.2193 78.8841 79.1068C78.9402 78.9943 78.9402 78.938 78.9964 78.8818C79.3333 77.9818 79.5579 77.1381 79.614 76.8568C79.614 76.8006 79.614 76.7443 79.614 76.7443L83.2639 79.5568L83.8815 80.063Z" fill="#F6F5F5"/>
<path d="M74.9535 67.5195C74.8974 67.5195 74.8974 67.5195 74.8974 67.5195C74.5605 67.632 74.3359 68.3632 74.5043 69.1507C74.6166 69.5444 74.7851 69.9382 74.9535 70.1632C75.0658 70.3319 75.2343 70.4444 75.4027 70.5007L74.6728 70.6132L74.3359 70.6694C74.2236 70.6132 74.1113 70.5007 73.999 70.3319M74.9535 67.5195C75.2343 67.4632 75.515 67.6882 75.6835 68.1382L75.6273 67.5195C75.4589 67.4632 74.8974 67.1257 74.2797 66.957H74.2236M74.9535 67.5195C75.0097 67.5195 75.0097 67.5195 75.0097 67.5195C75.2343 67.4632 75.515 67.7445 75.7396 68.1382C75.8519 68.3069 75.9081 68.5882 75.9642 68.8694C76.0204 69.2632 76.0204 69.7132 75.9642 70.1069C75.9081 70.1069 75.9081 70.1632 75.9081 70.1632C75.8519 70.3319 75.7396 70.4444 75.6273 70.5007H75.4589C75.3466 70.5007 75.122 70.3319 75.0097 70.1632C74.7851 69.9382 74.6166 69.5444 74.5605 69.1507C74.392 68.3069 74.5605 67.632 74.9535 67.5195ZM74.2236 66.957C73.7743 67.0695 73.4374 67.9694 73.5498 68.9819M74.2236 66.957C73.7182 67.0695 73.4374 67.9694 73.5498 68.9819M74.2236 66.957C74.1674 66.957 74.1113 66.9007 73.999 66.9007C73.8305 66.8445 73.662 66.8445 73.4936 66.8445C72.8198 66.7882 72.2583 67.3507 71.8652 67.8007C71.6406 68.0819 71.4722 68.3069 71.4722 68.3069C71.416 68.6444 71.416 69.0382 71.416 69.4319C71.4722 70.0507 71.6406 70.6694 71.8652 71.0632L72.146 71.0069M73.5498 68.9819C73.6059 69.5444 73.7743 70.0507 73.999 70.3319M73.5498 68.9819C73.6059 69.4882 73.7743 69.9944 73.999 70.3319M73.999 70.3319C74.0551 70.4444 74.1674 70.5569 74.3359 70.6132M74.3359 70.6132L74.6728 70.5569L75.4027 70.4444H75.5712C75.6835 70.3882 76.6942 70.1069 76.6942 70.1069L78.9402 75.8443C78.9402 75.8443 78.8841 75.9006 78.7718 75.9006C78.6595 75.9006 78.5472 75.9006 78.3787 75.9568C78.1541 76.0131 77.8734 76.0693 77.5365 76.1818C77.4803 76.1818 77.368 76.2381 77.3119 76.2381C76.9188 76.3506 76.5819 76.5193 76.245 76.6318C76.1327 76.6881 76.0765 76.6881 75.9642 76.7443C74.8974 77.2506 73.5498 77.7006 73.5498 77.7006L71.5845 71.2319C71.5845 71.2319 71.8091 71.1194 72.146 71.0069M74.3359 70.6132L72.146 71.0069M76.245 76.7443V76.6881C76.5819 76.5193 76.9749 76.4068 77.3119 76.2943C77.3119 76.3506 77.3119 76.3506 77.3119 76.4068C77.1995 76.8568 77.3119 77.4756 77.5365 78.038C77.8172 78.713 78.2664 79.2755 78.7718 79.4443C78.6595 79.6693 78.5472 79.838 78.4349 80.063C78.4349 80.1755 78.3787 80.2318 78.3226 80.288C77.7049 80.1755 77.1434 79.6693 76.6942 78.8818M76.245 76.7443V76.8006C76.1888 77.3068 76.245 77.9256 76.5257 78.5443M76.245 76.7443H76.3011C76.245 77.2506 76.3011 77.9256 76.5257 78.5443M76.245 76.7443L74.1113 77.5881C73.999 78.1505 74.1113 78.8818 74.392 79.5568C74.8412 80.6255 75.6273 81.3568 76.3573 81.4692C76.5257 81.413 76.6942 81.3567 76.8627 81.3005C77.0311 81.2443 77.1996 81.188 77.368 81.0755C77.7049 80.9068 77.9857 80.6255 78.2664 80.288C77.7049 80.1755 77.0873 79.6693 76.6942 78.8818M76.5257 78.5443C76.5819 78.6568 76.6381 78.7693 76.6942 78.8818M75.7396 63.807C75.4027 62.682 74.7289 61.3883 74.1674 61.2758C73.6621 61.2195 72.7075 60.9946 72.146 62.232C71.5845 63.4695 71.1914 68.2507 71.1914 68.2507C71.1914 68.2507 71.416 68.0257 71.7529 67.7444C72.146 67.2945 72.7636 66.732 73.3813 66.7882C73.5497 66.7882 73.7182 66.8445 73.8867 66.8445C73.9428 66.8445 73.999 66.8445 74.1113 66.9007H74.1674C74.8412 67.0695 75.4027 67.3507 75.515 67.4632C75.6835 67.5757 75.7958 67.6882 75.7958 67.6882C75.7958 67.6882 76.245 65.2695 75.7396 63.807ZM78.8279 75.9006C78.7156 75.9006 78.6033 75.9568 78.4349 75.9568C78.2103 76.0131 77.8734 76.0693 77.5926 76.1818C77.5365 76.1818 77.4242 76.2381 77.368 76.2381C77.368 76.2943 77.368 76.2943 77.368 76.3506C77.3119 76.8006 77.368 77.3631 77.5926 77.9818C77.8734 78.6568 78.3787 79.2193 78.8279 79.4443C78.8841 79.3318 78.8841 79.2755 78.9402 79.163C78.9964 79.0505 78.9964 78.9943 79.0525 78.938C79.3894 78.038 79.614 77.1943 79.6702 76.9131C79.3894 76.4631 79.1087 76.1256 78.8279 75.9006ZM83.9377 79.5568C83.7692 79.5005 83.4885 79.5005 83.2639 79.6693L83.8254 80.1193C83.8254 80.1193 83.0954 83.0442 82.5339 83.8317C82.0847 84.4505 81.2986 85.1817 80.9617 85.4629C81.074 85.8004 81.1863 86.0254 81.4109 86.0817C82.1408 86.3629 83.2639 85.1254 83.9377 83.3255C84.6676 81.4693 84.6676 79.7818 83.9377 79.5568ZM83.8815 80.063C83.8815 80.063 83.1516 82.988 82.59 83.7755C82.1408 84.3942 81.3547 85.1254 81.0178 85.4067C80.9055 85.5192 80.8494 85.5192 80.8494 85.5192C80.8494 85.5192 75.6273 81.8067 75.6273 81.638C75.6273 81.5817 75.9642 81.5255 76.4135 81.413C76.5819 81.3567 76.7504 81.3005 76.9188 81.2442C77.0873 81.188 77.2557 81.1318 77.4242 81.0193C77.7611 80.8505 78.098 80.5693 78.3226 80.2318C78.3787 80.1755 78.4349 80.1193 78.4349 80.0068C78.5472 79.7818 78.6595 79.613 78.7718 79.388C78.8279 79.2755 78.8279 79.2193 78.8841 79.1068C78.9402 78.9943 78.9402 78.938 78.9964 78.8818C79.3333 77.9818 79.5579 77.1381 79.614 76.8568C79.614 76.8006 79.614 76.7443 79.614 76.7443L83.2639 79.5568L83.8815 80.063Z" stroke="#138BE1" stroke-width="0.8" stroke-miterlimit="10" stroke-linecap="round" stroke-linejoin="round"/>
<path d="M15.1125 135.009C15.0796 135.096 15.0348 135.188 15.0019 135.275C15.5255 134.231 17.2708 128.718 18.0043 127.932C21.3219 123.801 27.5342 123.909 32.2423 124.898C39.1307 126.316 50.1864 132.993 47.9123 140.931L45.6081 146.977C48.6124 134.664 21.7537 124.024 15.1038 135.006L15.1125 135.009Z" fill="#F6F5F5" stroke="#1C1D22" stroke-width="0.8" stroke-linecap="round" stroke-linejoin="round"/>
<path d="M48.175 135.924C48.4395 135.487 48.9024 135.235 49.3899 135.101L51.6991 129.043C49.9975 129.025 48.7342 135.101 48.0701 136.123C48.0964 136.053 48.1347 135.978 48.1696 135.912L48.175 135.924Z" fill="#F6F5F5" stroke="#1C1D22" stroke-width="0.8" stroke-linecap="round" stroke-linejoin="round"/>
<path d="M19.8568 123.912L22.1628 117.862C22.5676 118.473 22.6561 119.054 22.4752 119.532L20.1693 125.582C20.2614 125.338 20.2806 125.077 20.2304 124.789C20.1769 124.511 20.0538 124.205 19.8482 123.908L19.8568 123.912Z" fill="#F6F5F5" stroke="#1C1D22" stroke-width="0.8" stroke-linecap="round" stroke-linejoin="round"/>
<path d="M52.148 144.521C52.148 144.521 52.113 144.588 52.0999 144.622C52.1994 144.412 54.3717 138.531 54.5168 138.357C55.124 137.433 56.3765 137.351 57.3893 137.456L55.0839 143.506C54.0538 143.394 52.6946 143.495 52.16 144.516L52.148 144.521Z" fill="#F6F5F5" stroke="#1C1D22" stroke-width="0.8" stroke-linecap="round" stroke-linejoin="round"/>
<path d="M10.4995 126.563C10.4138 126.501 10.3368 126.442 10.2511 126.38L12.5564 120.331C16.0908 121.989 12.3234 126.966 11.8196 129.272C12.2146 128.437 11.3413 127.121 10.4995 126.563Z" fill="#F6F5F5" stroke="#1C1D22" stroke-width="0.8" stroke-linecap="round" stroke-linejoin="round"/>
<path d="M57.426 144.565C56.9654 145.653 55.0552 151.103 54.4495 151.997C53.8899 151.665 53.2887 151.417 52.6547 151.256L51.0612 155.474C49.8278 156.27 48.4854 156.854 47.0955 157.302C45.7348 155.991 43.6674 155.237 41.7855 155.647L40.7604 158.36C38.6915 158.451 36.6221 158.332 34.5825 158.056C33.8745 155.412 28.3747 153.287 27.0401 156.321C25.3349 155.764 23.6572 155.108 22.0243 154.36C22.6613 151.36 17.7876 149.522 15.4321 150.608C13.9402 149.565 12.5172 148.419 11.1987 147.154L12.2107 144.475C11.0932 142.888 9.02269 142.064 7.1124 142.155C6.24429 140.722 5.62819 139.306 5.27161 137.938L6.81257 133.859C6.2736 133.525 5.67573 133.269 5.06566 133.097C5.19689 132.093 7.42968 126.656 7.78595 125.608C7.60852 126.077 7.46911 126.552 7.36983 127.051C12.869 128.678 10.4387 131.853 9.09232 135.548C9.19931 135.738 9.3063 135.928 9.42526 136.112C12.5461 135.943 16.4052 138.47 14.2028 141.751C15.3134 142.778 16.5133 143.7 17.7416 144.574C20.0809 143.452 25.0066 145.389 24.3339 148.325C25.9581 149.07 27.6217 149.711 29.3149 150.273C30.719 147.266 36.1667 149.371 36.8834 152.019C38.6135 152.247 40.359 152.382 42.0943 152.334C42.7799 148.338 46.9074 149.078 49.2805 151.151C50.9988 146.97 50.9759 143.064 56.7417 145.956C57.0006 145.507 57.2247 145.045 57.4141 144.57L57.426 144.565Z" fill="#F6F5F5" stroke="#1C1D22" stroke-width="0.8" stroke-linecap="round" stroke-linejoin="round"/>
<path d="M41.5619 138.984C39.3669 141.93 34.6722 141.851 30.5774 140.289C26.4826 138.726 22.733 135.436 23.4802 131.592C22.5967 134.877 19.1276 139.12 22.4468 142.447C26.0099 146.651 35.8612 150.396 39.4587 144.63L41.7663 138.574C41.7137 138.713 41.6525 138.849 41.5739 138.979L41.5619 138.984Z" fill="#F6F5F5" stroke="#1C1D22" stroke-width="0.8" stroke-linecap="round" stroke-linejoin="round"/>
<path d="M57.9642 142.358C56.7754 142.036 55.6181 141.369 54.9263 140.52C53.795 139.127 54.299 137.766 56.059 137.469C56.4732 137.397 56.9285 137.401 57.3847 137.455C57.0175 136.351 56.4841 135.214 55.7868 134.065C54.0772 134.202 51.9523 133.337 50.8968 132.032C49.8381 130.735 50.2038 129.452 51.7033 129.056C50.4217 127.824 49.0017 126.67 47.4783 125.605C47.2324 125.73 46.9463 125.831 46.606 125.891C44.846 126.188 42.4963 125.287 41.3617 123.902C40.7566 123.166 40.6186 122.427 40.8909 121.864C39.3273 121.142 37.7102 120.509 36.069 119.967C35.9204 120.597 35.3365 121.091 34.3635 121.249C32.6035 121.547 30.2538 120.646 29.1192 119.261C28.8194 118.899 28.6368 118.541 28.5596 118.194C26.3831 117.886 24.2342 117.767 22.1651 117.858C23.0272 119.149 22.4705 120.36 20.8289 120.633C19.1874 120.905 17.0318 120.148 15.8207 118.913C14.607 119.288 13.5211 119.772 12.5589 120.322C12.971 120.597 13.3286 120.912 13.6144 121.259C14.7457 122.652 14.2418 124.012 12.4817 124.31C11.3576 124.5 9.99161 124.201 8.85796 123.602C8.12572 124.647 7.6333 125.793 7.38401 127.031C8.56415 127.349 9.70414 128.01 10.3872 128.856C11.5185 130.249 11.0145 131.609 9.2545 131.906C8.73704 131.989 8.16773 131.972 7.58998 131.872C7.94659 133.24 8.56275 134.657 9.43094 136.09C11.1405 135.953 13.2621 136.827 14.3209 138.123C15.3796 139.419 15.0139 140.703 13.5144 141.099C14.7961 142.33 16.216 143.485 17.7481 144.553C17.994 144.428 18.2801 144.327 18.6204 144.267C20.3804 143.97 22.7334 144.862 23.8647 146.256C24.4698 146.992 24.6078 147.73 24.3322 148.302C25.9653 149.051 27.6431 149.707 29.3484 150.264C29.4494 149.576 30.0551 149.05 31.0727 148.879C32.8327 148.581 35.1857 149.473 36.317 150.867C36.6363 151.256 36.821 151.635 36.8916 152C38.9867 152.287 41.0628 152.388 43.0613 152.3C42.1992 151.009 42.7559 149.798 44.3975 149.525C46.039 149.252 48.2033 150.013 49.4057 151.245C50.9142 150.772 52.2406 150.152 53.3631 149.414C52.7067 149.075 52.1224 148.625 51.6991 148.117C50.5678 146.723 51.0718 145.363 52.8318 145.066C54.0591 144.865 55.5695 145.229 56.7484 145.944C57.4004 144.849 57.8072 143.641 57.9556 142.355L57.9642 142.358ZM41.1065 145.493C33.8391 146.706 24.1146 143.019 19.426 137.274C14.7374 131.529 16.8439 125.874 24.108 124.67C31.3753 123.458 41.0999 127.144 45.7885 132.889C50.4771 138.634 48.3705 144.289 41.1032 145.502L41.1065 145.493Z" fill="white"/>
<path d="M7.58998 131.872C8.16773 131.972 8.73704 131.989 9.2545 131.906C11.0145 131.609 11.5185 130.249 10.3872 128.856C9.70414 128.01 8.56415 127.349 7.38401 127.031C7.6333 125.793 8.12572 124.647 8.85796 123.602C9.99161 124.201 11.3576 124.5 12.4817 124.31C14.2417 124.012 14.7457 122.652 13.6144 121.259C13.3286 120.912 12.971 120.597 12.5589 120.322C13.5211 119.772 14.607 119.288 15.8207 118.913C17.0318 120.148 19.1874 120.905 20.8289 120.633C22.4705 120.36 23.0272 119.149 22.1651 117.858C24.2342 117.767 26.3831 117.886 28.5596 118.194C28.6368 118.541 28.8194 118.899 29.1192 119.261C30.2538 120.646 32.6035 121.547 34.3635 121.249C35.3365 121.091 35.9204 120.597 36.069 119.967C37.7102 120.509 39.3273 121.142 40.8909 121.864C40.6186 122.427 40.7566 123.166 41.3617 123.902C42.4963 125.287 44.846 126.188 46.606 125.891C46.9463 125.831 47.2324 125.73 47.4783 125.605C49.0017 126.67 50.4217 127.824 51.7033 129.056C50.2038 129.452 49.8381 130.735 50.8968 132.032C51.9523 133.337 54.0772 134.202 55.7868 134.065C56.4841 135.214 57.0175 136.351 57.3847 137.455C56.9285 137.401 56.4732 137.397 56.059 137.469C54.299 137.766 53.795 139.127 54.9263 140.52C55.6181 141.369 56.7754 142.036 57.9642 142.358L57.9556 142.355C57.8072 143.641 57.4004 144.849 56.7484 145.944C55.5695 145.229 54.0591 144.865 52.8318 145.066C51.0718 145.363 50.5678 146.723 51.6991 148.117C52.1224 148.625 52.7067 149.075 53.3631 149.414M7.58998 131.872C7.94659 133.24 8.56275 134.657 9.43094 136.09M7.58998 131.872L6.83323 133.875M9.43094 136.09C11.1405 135.953 13.2621 136.827 14.3209 138.123C15.3796 139.419 15.0139 140.703 13.5144 141.099M9.43094 136.09L7.1802 142.183M13.5144 141.099C14.7961 142.33 16.216 143.485 17.7481 144.553M13.5144 141.099L11.265 147.053M17.7481 144.553C17.994 144.428 18.2801 144.327 18.6204 144.267C20.3804 143.97 22.7334 144.862 23.8647 146.256C24.4698 146.992 24.6078 147.73 24.3322 148.302M17.7481 144.553L15.4345 150.678M24.3322 148.302C25.9653 149.051 27.6431 149.707 29.3484 150.264M24.3322 148.302L22.0949 154.225M29.3484 150.264C29.4494 149.576 30.0551 149.05 31.0727 148.879C32.8327 148.581 35.1857 149.473 36.317 150.867C36.6363 151.256 36.821 151.635 36.8916 152M29.3484 150.264L27.0464 156.357M36.8916 152C38.9867 152.287 41.0628 152.388 43.0613 152.3M36.8916 152L34.556 158.182M43.0613 152.3C42.1992 151.009 42.7559 149.798 44.3975 149.525C46.039 149.252 48.2033 150.013 49.4057 151.245M43.0613 152.3L40.8119 158.254M49.4057 151.245C50.9142 150.772 52.2406 150.152 53.3631 149.414M49.4057 151.245L47.1104 157.32M53.3631 149.414L52.6687 151.252M41.1065 145.493C33.8391 146.706 24.1146 143.019 19.426 137.274C14.7374 131.529 16.8439 125.874 24.108 124.67C31.3753 123.458 41.0999 127.144 45.7885 132.889C50.4771 138.634 48.3705 144.289 41.1032 145.502L41.1065 145.493Z" stroke="#1C1D22" stroke-width="0.8" stroke-linecap="round" stroke-linejoin="round"/>
<path d="M40.4873 133.77C43.291 137.2 42.0368 140.572 37.695 141.293C33.3532 142.013 27.5622 139.818 24.7584 136.388C21.9546 132.959 23.2089 129.586 27.5506 128.866C31.8924 128.145 37.6868 130.332 40.4873 133.77Z" fill="white" stroke="#1C1D22" stroke-width="0.8" stroke-linecap="round" stroke-linejoin="round"/>
<path d="M165.501 31.3618C165.501 31.3618 165.523 31.387 165.534 31.3995C165.172 30.7469 162.366 28.4369 162.837 27.5399L165.37 30.4149C165.29 30.7425 165.298 31.0935 165.508 31.3562L165.501 31.3618Z" fill="white" stroke="#1C1D22" stroke-width="0.8" stroke-linecap="round" stroke-linejoin="round"/>
<path d="M151.905 42.8547C152.062 42.9062 152.205 42.9925 152.305 43.1057L149.772 40.2307C149.579 39.9987 149.248 39.8768 148.818 39.9209L151.351 42.7959C151.56 42.7794 151.748 42.8032 151.912 42.8491L151.905 42.8547Z" fill="white" stroke="#1C1D22" stroke-width="0.8" stroke-linecap="round" stroke-linejoin="round"/>
<path d="M170.994 31.52C170.68 30.9476 170.983 30.2659 171.316 29.7702L168.783 26.8952C168.463 27.3799 168.166 28.0561 168.462 28.6332C168.547 28.793 170.978 31.5011 171.081 31.6443C171.048 31.6065 171.02 31.5751 171 31.5263L170.994 31.52Z" fill="white" stroke="#1C1D22" stroke-width="0.8" stroke-linecap="round" stroke-linejoin="round"/>
<path d="M150.383 48.3361C150.894 48.119 151.653 48.1313 151.921 48.4988C150.888 47.6434 149.234 44.1825 147.447 45.6377L149.98 48.5126C150.103 48.4491 150.237 48.3863 150.383 48.3361Z" fill="white" stroke="#1C1D22" stroke-width="0.8" stroke-linecap="round" stroke-linejoin="round"/>
<path d="M157.914 47.5911C157.942 47.6225 157.975 47.6603 158.003 47.6917C157.813 47.5906 154.686 46.2701 154.768 45.9962C154.234 45.0358 153.676 42.5533 153.507 41.4615C153.571 37.9372 156.391 35.0328 159.267 33.3318C160.651 32.6353 162.558 32.0134 163.827 31.0602C165.551 30.7119 166.852 34.3166 167.617 35.1846L169.634 37.4744C165.035 33.5838 154.893 42.2619 157.921 47.5737L157.914 47.5911Z" fill="#F6F5F5" stroke="#1C1D22" stroke-width="0.8" stroke-linecap="round" stroke-linejoin="round"/>
<path d="M172.628 28.9616C172.788 29.1558 172.93 29.3549 173.059 29.565C172.182 30.1273 171.192 31.1694 171.49 32.2931C171.366 32.2912 173.675 34.8488 173.719 34.911C173.694 34.9213 173.664 34.9254 173.634 34.9412C172.856 35.2366 172.173 35.8171 171.749 36.5386C171.516 36.9456 171.331 37.4447 171.48 37.9056C171.524 38.1579 172.202 38.8007 172.349 39.006C171.889 39.9273 171.336 40.807 170.738 41.6483C169.291 41.1706 166.448 43.7707 167.734 45.1291C166.977 45.8652 166.18 46.5573 165.34 47.1991C164.127 45.9997 161.667 48.0716 161.562 49.4845C161.559 49.5319 161.556 49.5792 161.553 49.6147C160.757 50.0276 159.939 50.3917 159.096 50.6888L158.398 49.8962C157.495 49.0491 155.882 50.1053 155.243 50.938C155.081 51.1476 154.937 51.376 154.827 51.6186C154.696 51.6222 154.571 51.6321 154.44 51.6357L152.462 49.39C151.674 48.5977 150.167 49.4705 149.523 50.1842C149.292 49.9973 149.079 49.7938 148.879 49.5673C149.325 50.035 152.569 53.8813 153.008 54.1645C153.268 53.89 153.562 53.6531 153.882 53.4595L153.888 53.454L155.595 55.3915C156.402 55.585 157.311 55.6544 158.299 55.5982C158.778 54.5712 159.787 53.7143 160.929 53.5667L162.048 54.8374C163.066 54.4979 164.065 54.074 165.015 53.5817C165.018 52.8632 165.636 51.9934 166.378 51.4048C167.657 50.3869 168.789 51.1654 168.789 51.1654C169.631 50.5118 170.433 49.8141 171.196 49.0843C171.196 49.0843 170.29 48.0171 171.713 46.5925C172.427 45.8833 173.429 45.4121 174.188 45.6145C174.896 44.6199 175.531 43.5671 176.05 42.4595L174.914 41.17C175.22 40.0726 176.188 39.1954 177.248 38.8407C177.384 38.0831 177.449 37.3209 177.407 36.5521C177.396 36.4504 177.39 36.355 177.384 36.2595L175.622 34.2592C175.883 33.9728 176.183 33.7185 176.51 33.5194C176.285 33.036 172.88 29.2983 172.478 28.8036C172.517 28.8476 172.55 28.8853 172.589 28.9294L172.628 28.9616Z" fill="#F6F5F5" stroke="#1C1D22" stroke-width="0.8" stroke-linecap="round" stroke-linejoin="round"/>
<path d="M171.515 27.9405C171.019 28.4794 170.352 28.9005 169.716 29.0266C168.676 29.24 168.099 28.5976 168.435 27.5853C168.515 27.3468 168.642 27.1113 168.792 26.8892C168.111 26.7748 167.372 26.734 166.58 26.7849C166.178 27.7217 165.139 28.5945 164.166 28.7824C163.193 28.9822 162.628 28.4297 162.832 27.5338C161.839 27.863 160.839 28.2869 159.859 28.7951C159.86 28.9615 159.826 29.1375 159.76 29.3294C159.425 30.3298 158.308 31.3165 157.269 31.5299C156.716 31.6375 156.291 31.5096 156.072 31.2107C155.262 31.8366 154.486 32.5003 153.753 33.2142C154.046 33.4703 154.138 33.9038 153.949 34.4621C153.614 35.4626 152.497 36.4492 151.457 36.6627C151.181 36.7165 150.944 36.7133 150.752 36.6596C149.986 37.716 149.331 38.8091 148.805 39.9222C149.718 39.8315 150.202 40.4561 149.889 41.3926C149.575 42.3291 148.581 43.2522 147.608 43.5411C147.467 44.2807 147.418 44.9844 147.442 45.6452C147.7 45.5071 147.967 45.4052 148.225 45.3562C149.264 45.1428 149.835 45.7907 149.506 46.7975C149.295 47.4316 148.763 48.0691 148.137 48.4988C148.481 49.168 148.944 49.7438 149.525 50.2142C150.021 49.6872 150.681 49.2716 151.306 49.1448C152.346 48.9314 152.917 49.5793 152.587 50.5861C152.492 50.883 152.325 51.1754 152.107 51.4467C152.92 51.6347 153.829 51.7041 154.817 51.6478C155.219 50.711 156.258 49.8382 157.231 49.6503C158.204 49.4505 158.769 50.003 158.565 50.8989C159.559 50.5697 160.558 50.1458 161.538 49.6376C161.537 49.4712 161.571 49.2952 161.637 49.1033C161.972 48.1028 163.089 47.1162 164.122 46.9083C164.674 46.8007 165.1 46.9286 165.318 47.2275C166.159 46.5857 166.968 45.8825 167.725 45.1464C167.397 44.8999 167.283 44.4412 167.479 43.8656C167.813 42.8651 168.931 41.8784 169.964 41.6706C170.258 41.612 170.507 41.6158 170.711 41.6822C171.438 40.659 172.068 39.5999 172.573 38.5271C171.66 38.6178 171.177 37.9932 171.49 37.0567C171.803 36.1202 172.797 35.1971 173.77 34.9082C173.94 33.9864 173.982 33.1218 173.907 32.327C173.547 32.5775 173.15 32.7603 172.772 32.8373C171.732 33.0507 171.161 32.4028 171.491 31.396C171.724 30.698 172.33 30.0057 173.033 29.5868C172.64 28.9383 172.121 28.4006 171.49 27.9627L171.515 27.9405ZM166.873 37.7566C165.778 41.0613 162.1 44.3094 158.676 44.9957C155.252 45.682 153.361 43.5606 154.456 40.2559C155.55 36.9513 159.228 33.7031 162.658 33.0113C166.082 32.325 167.974 34.4464 166.879 37.7511L166.873 37.7566Z" fill="white"/>
<path d="M152.107 51.4467C152.325 51.1754 152.492 50.883 152.587 50.5861C152.917 49.5793 152.346 48.9314 151.306 49.1448C150.681 49.2716 150.021 49.6872 149.525 50.2142C148.944 49.7438 148.481 49.168 148.137 48.4988C148.763 48.0691 149.295 47.4316 149.506 46.7975C149.835 45.7907 149.264 45.1428 148.225 45.3562C147.967 45.4052 147.7 45.5071 147.442 45.6452C147.418 44.9844 147.467 44.2807 147.608 43.5411C148.581 43.2522 149.575 42.3291 149.889 41.3926C150.202 40.4561 149.718 39.8315 148.805 39.9222C149.331 38.8091 149.986 37.716 150.752 36.6596C150.944 36.7133 151.181 36.7165 151.457 36.6627C152.497 36.4492 153.614 35.4626 153.949 34.4621C154.138 33.9038 154.046 33.4703 153.753 33.2142C154.486 32.5003 155.262 31.8366 156.072 31.2107C156.291 31.5096 156.716 31.6375 157.269 31.5299C158.308 31.3165 159.425 30.3298 159.76 29.3294C159.826 29.1375 159.86 28.9615 159.859 28.7951C160.839 28.2869 161.839 27.863 162.832 27.5338C162.628 28.4297 163.193 28.9822 164.166 28.7824C165.139 28.5945 166.178 27.7217 166.58 26.7849C167.372 26.734 168.111 26.7748 168.792 26.8892C168.642 27.1113 168.515 27.3468 168.435 27.5853C168.099 28.5976 168.676 29.24 169.716 29.0266C170.352 28.9005 171.019 28.4794 171.515 27.9405L171.49 27.9627C172.121 28.4006 172.64 28.9383 173.033 29.5868C172.33 30.0057 171.724 30.698 171.491 31.396C171.161 32.4028 171.732 33.0507 172.772 32.8373C173.15 32.7603 173.547 32.5775 173.907 32.327M152.107 51.4467C152.92 51.6347 153.829 51.7041 154.817 51.6478M152.107 51.4467L153.868 53.4462M154.817 51.6478C155.219 50.711 156.258 49.8382 157.231 49.6503C158.204 49.4505 158.769 50.003 158.565 50.8989M154.817 51.6478L158.283 55.5822M158.565 50.8989C159.559 50.5697 160.558 50.1458 161.538 49.6376M158.565 50.8989L161.994 54.8918M161.538 49.6376C161.537 49.4712 161.571 49.2952 161.637 49.1033C161.972 48.1028 163.089 47.1162 164.122 46.9083C164.674 46.8007 165.1 46.9286 165.318 47.2275M161.538 49.6376L165.053 53.6269M165.318 47.2275C166.159 46.5857 166.968 45.8825 167.725 45.1464M165.318 47.2275L168.709 51.2602M167.725 45.1464C167.397 44.8999 167.283 44.4412 167.479 43.8656C167.813 42.8651 168.931 41.8784 169.964 41.6706C170.258 41.612 170.507 41.6158 170.711 41.6822M167.725 45.1464L171.185 49.0733M170.711 41.6822C171.438 40.659 172.068 39.5999 172.573 38.5271M170.711 41.6822L174.153 45.5896M172.573 38.5271C171.66 38.6178 171.177 37.9932 171.49 37.0567C171.803 36.1202 172.797 35.1971 173.77 34.9082M172.573 38.5271L176.052 42.4756M173.77 34.9082C173.94 33.9864 173.982 33.1218 173.907 32.327M173.77 34.9082L177.237 38.8426M173.907 32.327L177.143 36.0007M166.873 37.7566C165.778 41.0613 162.1 44.3094 158.676 44.9957C155.252 45.682 153.361 43.5606 154.456 40.2559C155.55 36.9513 159.228 33.7031 162.658 33.0113C166.082 32.325 167.974 34.4464 166.879 37.7511L166.873 37.7566Z" stroke="#1C1D22" stroke-width="0.8" stroke-linecap="round" stroke-linejoin="round"/>
</svg>
