<svg width="159" height="170" viewBox="0 0 159 170" fill="none" xmlns="http://www.w3.org/2000/svg">
<path d="M138.448 158.447L118.774 169.25L85.7211 150.787L75.7584 156.353L62.6438 149.03L59.9547 147.524L57.4508 146.13L35.1406 133.668V129.91L108.807 129.445L158.4 143.728V147.486L146.326 154.118" fill="white"/>
<path d="M57.4508 146.13L35.1406 133.668V129.91L108.807 129.445L158.4 143.728V147.486L146.326 154.118" stroke="#1C1D22" stroke-linecap="round" stroke-linejoin="round"/>
<path d="M138.445 158.446L118.771 169.249L85.7179 150.786L75.7552 156.352L62.6406 149.029" stroke="#1C1D22" stroke-linecap="round" stroke-linejoin="round"/>
<path d="M59.7754 35.0241L45.3691 43.072L75.7597 60.0463L106.146 43.072L75.7597 26.0977L65.0961 32.0515" fill="white"/>
<path d="M59.7754 35.0241L45.3691 43.072L75.7597 60.0463L106.146 43.072L75.7597 26.0977L65.0961 32.0515" stroke="#1C1D22" stroke-linecap="round" stroke-linejoin="round"/>
<path d="M35.1406 129.909L75.7584 107.22L108.807 125.682L117.787 121.038L158.4 143.727L118.774 165.487L85.7211 147.028L75.7584 152.594L35.1406 129.909Z" fill="white" stroke="#1C1D22" stroke-linecap="round" stroke-linejoin="round"/>
<path d="M100.35 43.0722L75.7563 29.335L51.1582 43.0722L75.7563 56.8094L100.35 43.0722Z" fill="white" stroke="#1C1D22" stroke-linecap="round" stroke-linejoin="round"/>
<path d="M98.0171 44.3775L75.7598 31.9453L53.498 44.3775" fill="white"/>
<path d="M98.0171 44.3775L75.7598 31.9453L53.498 44.3775" stroke="#1C1D22" stroke-linecap="round" stroke-linejoin="round"/>
<path d="M106.146 129.91L75.7597 112.935L45.3691 129.91L75.7597 146.884L106.146 129.91Z" fill="white" stroke="#1C1D22" stroke-linecap="round" stroke-linejoin="round"/>
<path d="M106.144 78.9348V129.909L75.7578 146.883V60.0456L106.144 43.0713V68.9848" fill="white"/>
<path d="M106.144 78.9348V129.909L75.7578 146.883V60.0456L106.144 43.0713V68.9848" stroke="#1C1D22" stroke-linecap="round" stroke-linejoin="round"/>
<path d="M45.3691 91.6272V129.909L75.7597 146.883V60.0456L45.3691 43.0713V69.5179" fill="white"/>
<path d="M45.3691 91.6272V129.909L75.7597 146.883V60.0456L45.3691 43.0713V69.5179" stroke="#1C1D22" stroke-linecap="round" stroke-linejoin="round"/>
<path d="M96.7012 55.0474L101.705 52.2539V60.9586L96.7012 63.7521V55.0474Z" fill="white" stroke="#138BE1" stroke-linecap="round" stroke-linejoin="round"/>
<path d="M89.0586 59.2867L94.062 56.4932V65.1978L89.0586 67.9913V59.2867Z" fill="white" stroke="#138BE1" stroke-linecap="round" stroke-linejoin="round"/>
<path d="M81.418 63.232L86.4169 60.4385V69.1431L81.418 71.9366V63.232Z" fill="white" stroke="#138BE1" stroke-linecap="round" stroke-linejoin="round"/>
<path d="M96.7012 69.7066L101.705 66.9131V75.6177L96.7012 78.4113V69.7066Z" fill="white" stroke="#138BE1" stroke-linecap="round" stroke-linejoin="round"/>
<path d="M89.0586 73.9507L94.062 71.1572V79.8576L89.0586 82.6511V73.9507Z" fill="white" stroke="#138BE1" stroke-linecap="round" stroke-linejoin="round"/>
<path d="M81.418 77.8912L86.4169 75.0977V83.8023L81.418 86.5958V77.8912Z" fill="white" stroke="#138BE1" stroke-linecap="round" stroke-linejoin="round"/>
<path d="M96.7012 84.7183L101.705 81.9248V90.6295L96.7012 93.423V84.7183Z" fill="white" stroke="#138BE1" stroke-linecap="round" stroke-linejoin="round"/>
<path d="M89.0586 88.9625L94.062 86.1689V94.8736L89.0586 97.6671V88.9625Z" fill="white" stroke="#138BE1" stroke-linecap="round" stroke-linejoin="round"/>
<path d="M81.418 92.9029L86.4169 90.1094V98.814L81.418 101.608V92.9029Z" fill="white" stroke="#138BE1" stroke-linecap="round" stroke-linejoin="round"/>
<path d="M54.8081 55.0474L49.8047 52.2539V60.9586L54.8081 63.7521V55.0474Z" fill="white" stroke="#138BE1" stroke-linecap="round" stroke-linejoin="round"/>
<path d="M62.4526 59.2867L57.4492 56.4932V65.1978L62.4526 67.9913V59.2867Z" fill="white" stroke="#138BE1" stroke-linecap="round" stroke-linejoin="round"/>
<path d="M70.0952 63.232L65.0918 60.4385V69.1431L70.0952 71.9366V63.232Z" fill="white" stroke="#138BE1" stroke-linecap="round" stroke-linejoin="round"/>
<path d="M54.8081 69.7066L49.8047 66.9131V75.6177L54.8081 78.4113V69.7066Z" fill="white" stroke="#138BE1" stroke-linecap="round" stroke-linejoin="round"/>
<path d="M62.4526 73.9507L57.4492 71.1572V79.8576L62.4526 82.6511V73.9507Z" fill="white" stroke="#138BE1" stroke-linecap="round" stroke-linejoin="round"/>
<path d="M70.0952 77.8912L65.0918 75.0977V83.8023L70.0952 86.5958V77.8912Z" fill="white" stroke="#138BE1" stroke-linecap="round" stroke-linejoin="round"/>
<path d="M54.8081 84.7183L49.8047 81.9248V90.6295L54.8081 93.423V84.7183Z" fill="white" stroke="#138BE1" stroke-linecap="round" stroke-linejoin="round"/>
<path d="M62.4526 88.9625L57.4492 86.1689V94.8736L62.4526 97.6671V88.9625Z" fill="white" stroke="#138BE1" stroke-linecap="round" stroke-linejoin="round"/>
<path d="M70.0952 92.9029L65.0918 90.1094V98.814L70.0952 101.608V92.9029Z" fill="white" stroke="#138BE1" stroke-linecap="round" stroke-linejoin="round"/>
<path d="M96.7012 99.8423L101.705 97.0488V105.749L96.7012 108.543V99.8423Z" fill="white" stroke="#138BE1" stroke-linecap="round" stroke-linejoin="round"/>
<path d="M89.0586 104.082L94.062 101.288V109.993L89.0586 112.786V104.082Z" fill="white" stroke="#138BE1" stroke-linecap="round" stroke-linejoin="round"/>
<path d="M81.418 108.026L86.4169 105.232V113.937L81.418 116.731V108.026Z" fill="white" stroke="#138BE1" stroke-linecap="round" stroke-linejoin="round"/>
<path d="M54.8081 100.566L49.8047 97.7725V106.473L54.8081 109.271V100.566Z" fill="white" stroke="#138BE1" stroke-linecap="round" stroke-linejoin="round"/>
<path d="M62.4526 104.806L57.4492 102.013V110.717L62.4526 113.511V104.806Z" fill="white" stroke="#138BE1" stroke-linecap="round" stroke-linejoin="round"/>
<path d="M70.0952 108.751L65.0918 105.957V114.662L70.0952 117.455V108.751Z" fill="white" stroke="#138BE1" stroke-linecap="round" stroke-linejoin="round"/>
<path d="M58.6907 121.303L49.1777 115.934V131.944L58.6907 137.309V121.303Z" fill="white" stroke="#1C1D22" stroke-linecap="round" stroke-linejoin="round"/>
<path d="M75.7578 29.335V31.9451" stroke="#1C1D22" stroke-linecap="round" stroke-linejoin="round"/>
<path d="M75.7578 152.595V156.352" stroke="#1C1D22" stroke-linecap="round" stroke-linejoin="round"/>
<path d="M85.7207 147.028V150.786" stroke="#1C1D22" stroke-linecap="round" stroke-linejoin="round"/>
<path d="M118.771 165.487V169.249" stroke="#1C1D22" stroke-linecap="round" stroke-linejoin="round"/>
<path d="M115.025 89.1838H93.6541C93.3394 89.1789 93.0321 89.2759 92.781 89.4595C92.5299 89.643 92.3494 89.9025 92.2683 90.1967C92.1872 90.4909 92.2102 90.8029 92.3335 91.083C92.4568 91.3632 92.6734 91.5954 92.9488 91.7427L118.076 105.774C118.29 105.896 118.533 105.96 118.781 105.96C119.029 105.96 119.273 105.896 119.486 105.774L144.614 91.7427C144.889 91.5954 145.106 91.3632 145.229 91.083C145.352 90.8029 145.375 90.4909 145.294 90.1967C145.213 89.9025 145.032 89.643 144.781 89.4595C144.53 89.2759 144.223 89.1789 143.908 89.1838H123.189" fill="white"/>
<path d="M115.025 89.1838H93.6541C93.3394 89.1789 93.0321 89.2759 92.781 89.4595C92.5299 89.643 92.3494 89.9025 92.2683 90.1967C92.1872 90.4909 92.2102 90.8029 92.3335 91.083C92.4568 91.3632 92.6734 91.5954 92.9488 91.7427L118.076 105.774C118.29 105.896 118.533 105.96 118.781 105.96C119.029 105.96 119.273 105.896 119.487 105.774L144.614 91.7427C144.889 91.5954 145.106 91.3632 145.229 91.083C145.352 90.8029 145.375 90.4909 145.294 90.1967C145.213 89.9025 145.032 89.643 144.781 89.4595C144.53 89.2759 144.223 89.1789 143.908 89.1838H123.189" stroke="#1C1D22" stroke-linecap="round" stroke-linejoin="round"/>
<path d="M145.327 121.695V143.758L118.771 159.043V106.158L145.327 90.873V111.707" fill="white"/>
<path d="M145.327 121.695V143.758L118.771 159.043V106.158L145.327 90.873V111.707" stroke="#1C1D22" stroke-linecap="round" stroke-linejoin="round"/>
<path d="M132.688 104.67L143.034 99.0322V107.737L132.688 113.371V104.67Z" fill="white" stroke="#138BE1" stroke-linecap="round" stroke-linejoin="round"/>
<path d="M132.688 119.329L143.034 113.69V122.395L132.688 128.033V119.329Z" fill="white" stroke="#138BE1" stroke-linecap="round" stroke-linejoin="round"/>
<path d="M132.688 134.341L143.034 128.703V137.408L132.688 143.046V134.341Z" fill="white" stroke="#138BE1" stroke-linecap="round" stroke-linejoin="round"/>
<path d="M118.77 106.158L92.2324 90.873V143.758L118.77 159.043V106.158Z" fill="white" stroke="#1C1D22" stroke-linecap="round" stroke-linejoin="round"/>
<path d="M118.772 111.566L130.043 105.817V114.522L118.772 120.271L108.721 115.004V106.304L118.772 111.566Z" fill="white" stroke="#138BE1" stroke-linecap="round" stroke-linejoin="round"/>
<path d="M105.327 119.085L94.4648 113.102V121.802L105.327 127.79V119.085Z" fill="white" stroke="#138BE1" stroke-linecap="round" stroke-linejoin="round"/>
<path d="M118.772 126.562L130.043 120.48V129.181L118.772 135.267L108.721 129.667V120.962L118.772 126.562Z" fill="white" stroke="#138BE1" stroke-linecap="round" stroke-linejoin="round"/>
<path d="M105.327 134.098L94.4648 128.114V136.819L105.327 142.803V134.098Z" fill="white" stroke="#138BE1" stroke-linecap="round" stroke-linejoin="round"/>
<path d="M118.772 141.881L130.043 135.492V144.197L118.772 150.586L108.721 144.679V135.974L118.772 141.881Z" fill="white" stroke="#138BE1" stroke-linecap="round" stroke-linejoin="round"/>
<path d="M118.883 91.6279H98.2305L118.403 103.143C118.549 103.225 118.714 103.268 118.883 103.268C119.052 103.268 119.218 103.225 119.364 103.143L139.531 91.6279H118.883Z" fill="white" stroke="#1C1D22" stroke-linecap="round" stroke-linejoin="round"/>
<path d="M135.472 93.9443H102.295" stroke="#1C1D22" stroke-linecap="round" stroke-linejoin="round"/>
<path d="M105.327 104.426L94.4648 98.4424V107.147L105.327 113.131V104.426Z" fill="white" stroke="#138BE1" stroke-linecap="round" stroke-linejoin="round"/>
<path d="M52.3094 127.154L50.8105 126.288" stroke="#1C1D22" stroke-linecap="round" stroke-linejoin="round"/>
<path d="M101.302 30.8994H99.0996V35.184H101.302V30.8994Z" fill="white" stroke="#1C1D22" stroke-miterlimit="10" stroke-linecap="round" stroke-linejoin="round"/>
<path d="M104.036 35.4896L102.923 37.3392L99.0996 35.2086L101.326 33.8975L104.036 35.4896Z" fill="white" stroke="#1C1D22" stroke-miterlimit="10" stroke-linecap="round" stroke-linejoin="round"/>
<path d="M99.5711 35.5353L102.066 32.9836C102.854 32.1786 106.037 33.2707 106.037 33.2707L106.556 41.4555C106.933 42.6793 106.597 44.3453 105.809 45.1504L102.024 51.0897C102.024 51.0897 99.9539 50.7427 99.5418 50.531C99.3411 50.4066 99.1678 50.245 99.0319 50.0555C98.8961 49.866 98.8004 49.6523 98.7504 49.4268L96.3835 41.7341C96.007 40.5104 96.3419 38.8419 97.1297 38.0369L97.8293 37.3212" fill="white"/>
<path d="M99.5711 35.5353L102.066 32.9836C102.854 32.1786 106.037 33.2707 106.037 33.2707L106.556 41.4555C106.933 42.6793 106.597 44.3453 105.809 45.1504L102.024 51.0897C102.024 51.0897 99.9539 50.7427 99.5418 50.531C99.3411 50.4066 99.1678 50.245 99.0319 50.0555C98.8961 49.866 98.8004 49.6523 98.7504 49.4268L96.3835 41.7341C96.007 40.5104 96.3419 38.8419 97.1297 38.0369L97.8293 37.3212" stroke="#138BE1" stroke-linecap="round" stroke-linejoin="round"/>
<path d="M108.329 45.7299L103.383 50.786C102.934 51.243 102.431 51.3266 102.012 51.0928C101.633 50.8381 101.365 50.4549 101.263 50.019L98.8927 42.3141C98.5161 41.0903 98.851 39.4219 99.6388 38.6168L104.585 33.5607C105.373 32.7556 106.325 33.1023 106.702 34.3285L109.073 42.0333C109.45 43.2595 109.117 44.9224 108.329 45.7299Z" fill="white" stroke="#138BE1" stroke-linecap="round" stroke-linejoin="round"/>
<path d="M101.557 44.3415C101.498 44.1018 101.456 43.8586 101.43 43.6135L100.947 43.3261L100.985 42.857L101.043 42.0622L101.078 41.5939L101.609 41.2171C101.672 40.9585 101.752 40.7041 101.849 40.4554L101.695 39.6442L101.918 39.2949L102.288 38.7062L102.511 38.3569L102.996 38.6783C103.138 38.5457 103.295 38.4289 103.464 38.3302L103.726 37.4715L104.007 37.4464L104.484 37.4024L104.753 37.3809L104.89 38.2045C105.044 38.2718 105.187 38.3622 105.312 38.4723L105.837 38.0678L106.01 38.3803L106.306 38.9131L106.48 39.2256L106.191 40.0786C106.252 40.3178 106.296 40.5608 106.321 40.8059L106.8 41.0916L106.766 41.5623L106.708 42.3572L106.673 42.8255L106.142 43.2023C106.078 43.4606 105.998 43.7149 105.902 43.964L106.056 44.7751L105.833 45.1245L105.463 45.7132L105.24 46.0625L104.769 45.7479C104.626 45.8806 104.469 45.9973 104.3 46.096L104.038 46.9547L103.77 46.9762L103.293 47.0202L103.024 47.0417L102.886 46.2181C102.732 46.1495 102.59 46.0595 102.463 45.9511L101.94 46.3548L101.764 46.0431L101.47 45.5095L101.297 45.197L101.557 44.3415ZM104.499 43.3689C104.95 42.6664 105.031 41.5879 104.68 40.9588C104.33 40.3297 103.679 40.3892 103.234 41.0903C102.788 41.7914 102.705 42.8706 103.055 43.4997C103.406 44.1288 104.052 44.0707 104.499 43.3689Z" fill="white" stroke="#1C1D22" stroke-linecap="round" stroke-linejoin="round"/>
<path d="M107.832 33.2577L109.969 32.7412L108.895 28.5843L106.759 29.1007L107.832 33.2577Z" fill="white" stroke="#1C1D22" stroke-miterlimit="10" stroke-linecap="round" stroke-linejoin="round"/>
<path d="M105.266 34.2028L106.814 35.7481L109.985 32.7746L107.516 32.0488L105.266 34.2028Z" fill="white" stroke="#1C1D22" stroke-miterlimit="10" stroke-linecap="round" stroke-linejoin="round"/>
<path d="M110.715 24.155C110.715 24.9745 110.279 25.7237 109.529 26.3558C108.198 27.4563 105.899 28.2055 103.31 28.2055C100.696 28.2055 98.3969 27.4797 97.0901 26.3558C96.3399 25.7237 95.9043 24.9745 95.9043 24.155C95.9043 21.9307 99.2197 20.1279 103.334 20.1279C107.399 20.1279 110.715 21.9307 110.715 24.155Z" fill="white" stroke="#1C1D22" stroke-miterlimit="10" stroke-linecap="round" stroke-linejoin="round"/>
<path d="M110.714 24.1533V28.555C110.714 30.7793 107.399 32.6055 103.285 32.6055C99.1951 32.6055 95.8555 30.8027 95.8555 28.555V24.1533C95.8555 24.9728 96.2911 25.722 97.0413 26.3542C98.3723 27.4546 100.671 28.2038 103.261 28.2038C105.874 28.2038 108.173 27.478 109.48 26.3542C110.279 25.722 110.714 24.9728 110.714 24.1533Z" fill="white" stroke="#1C1D22" stroke-miterlimit="10" stroke-linecap="round" stroke-linejoin="round"/>
<path d="M75.479 44.8299C81.6137 44.8299 86.5869 42.2093 86.5869 38.9766C86.5869 35.7439 81.6137 33.1233 75.479 33.1233C69.3443 33.1233 64.3711 35.7439 64.3711 38.9766C64.3711 42.2093 69.3443 44.8299 75.479 44.8299Z" fill="white" stroke="#1C1D22" stroke-miterlimit="10" stroke-linecap="round" stroke-linejoin="round"/>
<path d="M80.1484 22.4248C82.278 23.1974 83.6816 24.5086 83.6816 25.9836C83.6816 28.3718 80.0274 30.315 75.5019 30.315C70.9765 30.315 67.3223 28.3718 67.3223 25.9836C67.3223 24.6256 68.5323 23.3847 70.3957 22.6121L70.8313 22.4482" fill="white"/>
<path d="M80.1484 22.4248C82.278 23.1974 83.6816 24.5086 83.6816 25.9836C83.6816 28.3718 80.0274 30.315 75.5019 30.315C70.9765 30.315 67.3223 28.3718 67.3223 25.9836C67.3223 24.6256 68.5323 23.3847 70.3957 22.6121L70.8313 22.4482" stroke="#1C1D22" stroke-miterlimit="10" stroke-linecap="round" stroke-linejoin="round"/>
<path d="M82.9569 49.491C85.1833 48.414 86.5869 46.8688 86.5869 45.1596V38.9785C86.5869 40.1023 85.9819 41.1794 84.9171 42.0691C82.9569 43.7314 79.472 44.8552 75.479 44.8552C71.486 44.8552 67.9769 43.7548 66.0409 42.0691C64.9761 41.1794 64.3711 40.1258 64.3711 38.9785V45.1596C64.3711 48.3906 69.3563 51.0129 75.479 51.0129C75.479 51.0129 76.9794 51.0597 79.3994 50.568C82.5697 49.9593 82.9569 49.491 82.9569 49.491Z" fill="white"/>
<path d="M80.1538 13.2021V26.1731C80.1538 26.5008 79.8876 26.8052 79.452 27.0628C78.6292 27.531 77.153 27.8588 75.4831 27.8588C73.8133 27.8588 72.3371 27.531 71.5143 27.0628C71.0787 26.8052 70.8125 26.5008 70.8125 26.1731V13.2021H80.1538Z" fill="white" stroke="#1C1D22" stroke-miterlimit="10" stroke-linecap="round" stroke-linejoin="round"/>
<path d="M83.6601 34.1585V37.9983C83.6601 39.0519 82.9341 40.0352 81.7483 40.7845C80.2479 41.721 77.9973 42.3297 75.4805 42.3297C72.9636 42.3297 70.713 41.721 69.2126 40.7845C68.0268 40.0352 67.3008 39.0519 67.3008 37.9983V26.0107C67.3008 28.3989 70.9792 30.3422 75.4805 30.3422C80.0059 30.3422 83.6601 28.3989 83.6601 26.0107V30.3422" fill="white"/>
<path d="M83.6601 34.1585V37.9983C83.6601 39.0519 82.9341 40.0352 81.7483 40.7845C80.2479 41.721 77.9973 42.3297 75.4805 42.3297C72.9636 42.3297 70.713 41.721 69.2126 40.7845C68.0268 40.0352 67.3008 39.0519 67.3008 37.9983V26.0107C67.3008 28.3989 70.9792 30.3422 75.4805 30.3422C80.0059 30.3422 83.6601 28.3989 83.6601 26.0107V30.3422" stroke="#1C1D22" stroke-miterlimit="10" stroke-linecap="round" stroke-linejoin="round"/>
<path d="M75.479 51.0129C69.3321 51.0129 64.3711 48.3906 64.3711 45.1596V38.9785C64.3711 40.1023 64.9761 41.1794 66.0409 42.0691C68.0011 43.7314 71.486 44.8552 75.479 44.8552C79.472 44.8552 82.9811 43.7548 84.9171 42.0691C85.9819 41.1794 86.5869 40.1258 86.5869 38.9785V45.1596C86.5869 46.8688 85.1833 48.414 82.9569 49.491" stroke="#1C1D22" stroke-miterlimit="10" stroke-linecap="round" stroke-linejoin="round"/>
<path d="M71.8244 0.999108L67.9766 2.68486C68.8478 2.19318 70.0094 2.12294 71.3404 2.56779L100.598 16.7562L102.97 15.4216L79.7379 3.78528C79.7379 3.78528 73.6636 0.64791 71.8244 0.999108Z" fill="white"/>
<path d="M101.562 16.6139L102.748 23.3335L74.869 18.2997C74.1188 18.206 73.3202 17.925 72.57 17.5036C69.7628 15.9583 67.1734 12.4698 66.3506 8.84072C65.3099 4.20491 67.609 1.32509 71.3358 2.5894L101.562 16.6139Z" fill="white"/>
<path d="M99.4314 13.5514L79.7324 3.78809" stroke="#138BE1" stroke-miterlimit="10" stroke-linecap="round" stroke-linejoin="round"/>
<path d="M75.932 2.0307C73.0522 0.766384 72.0358 0.672731 71.0678 1.21123C70.5353 1.51561 71.8906 0.719556 68.2363 2.77992" stroke="#138BE1" stroke-miterlimit="10" stroke-linecap="round" stroke-linejoin="round"/>
<path d="M99.0937 22.8904L74.8693 18.0907C74.1675 17.9971 73.4173 17.7395 72.667 17.3181C69.8356 15.7494 67.3188 12.2374 66.5444 8.77227C65.9878 6.31388 66.3992 4.2301 67.6334 3.17651C68.2868 2.61459 69.2548 2.31022 70.5132 2.54436C70.9246 2.6146 71.3118 2.75507 71.699 2.94238L98.5613 15.4216" stroke="#138BE1" stroke-miterlimit="10" stroke-linecap="round" stroke-linejoin="round"/>
<path d="M77.1908 11.6532C77.1908 12.7068 76.8036 13.4794 76.1744 13.8306L74.6739 14.6735C75.3031 14.3223 75.6903 13.5731 75.6903 12.4961C75.6903 10.3421 74.1415 7.74321 72.2055 6.6662C71.2375 6.1277 70.3421 6.08087 69.7129 6.43207L71.2133 5.58919C71.8425 5.238 72.7137 5.28482 73.7059 5.82333C75.6419 6.90033 77.1908 9.4992 77.1908 11.6532Z" fill="white"/>
<path d="M74.5777 14.463C74.6261 14.4395 74.5535 14.4864 76.0055 13.6669C76.6589 13.2923 77.0219 12.5197 77.0219 11.5129C77.0219 9.49936 75.5457 7.01756 73.7307 6.01079C72.811 5.4957 71.9398 5.42546 71.2622 5.80007C70.633 6.15127 71.0202 5.94055 69.8828 6.57271" stroke="#1C1D22" stroke-miterlimit="10"/>
<path d="M68.918 8.61246C68.918 6.64575 70.2974 5.8497 72.1124 6.85647C73.9516 7.88665 75.5004 10.4153 75.4762 12.5225C75.4762 13.2951 75.2584 14.138 74.5566 14.5126C73.9516 14.8404 73.153 14.7701 72.2818 14.2785C70.4184 13.2249 68.918 10.6728 68.918 8.61246Z" stroke="#1C1D22" stroke-miterlimit="10"/>
<path d="M101.34 12.989C103.3 14.0894 104.898 16.7585 104.898 18.936L104.873 23.4079C104.873 25.5853 103.252 26.475 101.292 25.3746C99.3316 24.2742 97.7344 21.6051 97.7344 19.4276L97.7586 14.9557C97.7586 12.7783 99.3558 11.8886 101.34 12.989Z" fill="white"/>
<path d="M106.792 21.6493V22.3517C106.792 23.4287 106.381 24.2014 105.751 24.5526L103.864 25.6296C104.493 25.2784 104.904 24.5057 104.904 23.4287L104.929 18.9568C104.929 16.756 103.331 14.1103 101.371 12.9864C100.379 12.4479 99.4835 12.3777 98.8301 12.7523L100.718 11.6753C101.371 11.3007 102.267 11.3709 103.259 11.9094C105.219 13.0099 106.816 15.679 106.816 17.8564" fill="white"/>
<path d="M106.743 18.323C106.743 16.0753 105.436 13.2423 103.403 12.1185C102.363 11.5331 101.395 11.4629 100.644 11.8843L98.8535 12.8911" stroke="#138BE1" stroke-miterlimit="10" stroke-linecap="round" stroke-linejoin="round"/>
<path d="M106.572 21.6289V22.3313C106.572 23.3147 106.233 24.0171 105.628 24.3682L103.74 25.4218" stroke="#138BE1" stroke-miterlimit="10" stroke-linecap="round" stroke-linejoin="round"/>
<path d="M97.959 19.4273L97.9832 14.9554C97.9832 12.9184 99.4352 12.1458 101.25 13.1525C103.162 14.2296 104.711 16.805 104.711 18.9356V19.6848L104.687 23.4075C104.687 25.4679 103.235 26.2171 101.42 25.2103C99.5078 24.1333 97.959 21.5345 97.959 19.4273Z" stroke="#138BE1" stroke-miterlimit="10" stroke-linecap="round" stroke-linejoin="round"/>
<path d="M100.426 15.7479C100.426 16.3332 100.861 17.059 101.394 17.3634C101.854 17.6209 102.192 17.4336 102.192 16.9185C102.192 16.3332 101.757 15.6074 101.224 15.303C100.789 15.0455 100.426 15.2094 100.426 15.7479Z" stroke="#1C1D22" stroke-miterlimit="10"/>
<path d="M102.192 22.6073C102.192 22.022 101.757 21.2962 101.224 20.9918C100.765 20.7343 100.426 20.9216 100.426 21.4366C100.426 22.022 100.861 22.7478 101.394 23.0522C101.854 23.3097 102.192 23.1458 102.192 22.6073Z" stroke="#1C1D22" stroke-miterlimit="10"/>
<path d="M15.6093 142.64L15.406 147.135L15.377 147.866V147.894C15.3479 148.568 15.6384 149.243 16.3063 149.636L27.2844 156.38C29.0559 157.475 31.2922 157.588 33.1509 156.66L45.2326 150.788C45.9877 150.423 46.4523 149.524 46.4233 148.821L46.5685 143.932L15.6093 142.64Z" fill="white"/>
<path d="M15.6093 142.64L15.406 147.135L15.377 147.866V147.894C15.3479 148.568 15.6384 149.243 16.3063 149.636L27.2844 156.38C29.0559 157.475 31.2922 157.588 33.1509 156.66L45.2326 150.788C45.9877 150.423 46.4523 149.524 46.4233 148.821L46.5685 143.932" stroke="#1C1D22" stroke-miterlimit="10"/>
<path d="M16.5399 144.382L27.5179 151.125C29.2895 152.221 31.5258 152.333 33.3845 151.406L45.4661 145.534C46.8602 144.859 46.9473 142.949 45.6113 142.162L34.1106 135.334C32.3099 134.267 30.0737 134.182 28.1859 135.138L16.6561 141.038C15.3201 141.741 15.233 143.595 16.5399 144.382Z" fill="white" stroke="#1C1D22" stroke-miterlimit="10"/>
<path d="M15.6093 134.127L15.406 138.623L15.377 139.353V139.381C15.3479 140.056 15.6384 140.73 16.3063 141.123L27.2844 147.867C29.0559 148.963 31.2922 149.075 33.1509 148.148L45.2326 142.275C45.9877 141.91 46.4523 141.011 46.4233 140.308L46.5685 135.419L15.6093 134.127Z" fill="white"/>
<path d="M15.6093 134.127L15.406 138.623L15.377 139.353V139.381C15.3479 140.056 15.6384 140.73 16.3063 141.123L27.2844 147.867C29.0559 148.963 31.2922 149.075 33.1509 148.148L45.2326 142.275C45.9877 141.91 46.4523 141.011 46.4233 140.308L46.5685 135.419" stroke="#1C1D22" stroke-miterlimit="10"/>
<path d="M16.5399 135.869L27.5179 142.613C29.2895 143.708 31.5258 143.821 33.3845 142.894L45.4661 137.021C46.8602 136.347 46.9473 134.436 45.6113 133.649L34.1106 126.822C32.3099 125.754 30.0737 125.67 28.1859 126.625L16.6561 132.525C15.3201 133.228 15.233 135.082 16.5399 135.869Z" fill="white" stroke="#1C1D22" stroke-miterlimit="10"/>
<path d="M15.5511 125.275L15.4059 129.771L15.3768 130.502V130.53C15.3478 131.204 15.6672 131.878 16.3352 132.272L27.4004 138.875C29.1719 139.942 31.4082 140.027 33.296 139.071L45.2905 133.03C46.0456 132.637 46.5103 131.766 46.4522 131.035L46.5393 126.146L15.5511 125.275Z" fill="white"/>
<path d="M15.5511 125.275L15.4059 129.771L15.3768 130.502V130.53C15.3478 131.204 15.6672 131.878 16.3352 132.272L27.4004 138.875C29.1719 139.942 31.4082 140.027 33.296 139.071L45.2905 133.03C46.0456 132.637 46.5103 131.766 46.4522 131.035L46.5393 126.146" stroke="#1C1D22" stroke-miterlimit="10"/>
<path d="M16.5127 127.017L27.5779 133.62C29.3785 134.688 31.5857 134.772 33.4735 133.817L45.468 127.776C46.862 127.073 46.9201 125.162 45.5551 124.404L33.9672 117.717C32.1666 116.677 29.9013 116.621 28.0425 117.604L16.5998 123.645C15.2639 124.376 15.2058 126.23 16.5127 127.017Z" fill="white" stroke="#1C1D22" stroke-miterlimit="10"/>
<path d="M30.3028 119.825L41.1356 125.248C41.5422 125.444 41.5422 125.838 41.1356 126.034L31.6387 131.064C31.2902 131.261 30.7674 131.233 30.448 131.064L20.3993 125.332C20.0799 125.135 20.1089 124.798 20.4864 124.601L29.1992 119.881C29.4896 119.684 29.9833 119.684 30.3028 119.825Z" fill="white" stroke="#1C1D22" stroke-miterlimit="10" stroke-linecap="round" stroke-linejoin="round"/>
<path d="M30.419 121.117L31.6969 121.792C31.9583 121.932 31.9583 122.185 31.6678 122.326L24.8719 126.007C24.6396 126.147 24.2911 126.147 24.0587 126.007L22.7809 125.332C22.5485 125.192 22.5485 124.939 22.839 124.798L29.6058 121.117C29.8382 121.005 30.1867 121.005 30.419 121.117Z" fill="white" stroke="#138BE1" stroke-width="0.8" stroke-miterlimit="10" stroke-linecap="round" stroke-linejoin="round"/>
<path d="M28.5017 126.232L29.3439 126.71C29.5182 126.822 29.5182 126.991 29.3149 127.075L28.1241 127.693C27.9499 127.778 27.7175 127.778 27.5723 127.693L26.7011 127.244C26.5268 127.131 26.5558 126.963 26.7301 126.878L27.9499 126.232C28.1241 126.148 28.3565 126.148 28.5017 126.232Z" fill="white" stroke="#1C1D22" stroke-width="0.8" stroke-miterlimit="10" stroke-linecap="round" stroke-linejoin="round"/>
<path d="M31.2306 124.714L32.1019 125.192C32.2762 125.276 32.2762 125.473 32.0729 125.557L30.8821 126.204C30.7079 126.288 30.4755 126.288 30.3303 126.204L29.43 125.754C29.2557 125.67 29.2558 125.473 29.459 125.389L30.6788 124.742C30.824 124.63 31.0564 124.63 31.2306 124.714Z" fill="white" stroke="#1C1D22" stroke-width="0.8" stroke-miterlimit="10" stroke-linecap="round" stroke-linejoin="round"/>
<path d="M33.965 123.253L34.8363 123.73C35.0105 123.815 35.0105 124.011 34.8363 124.096L33.6455 124.742C33.4713 124.826 33.2389 124.826 33.0937 124.742L32.1644 124.292C31.9901 124.208 31.9901 124.039 32.1934 123.927L33.4422 123.253C33.5584 123.168 33.7908 123.168 33.965 123.253Z" fill="white" stroke="#1C1D22" stroke-width="0.8" stroke-miterlimit="10" stroke-linecap="round" stroke-linejoin="round"/>
<path d="M31.0275 127.833L31.8988 128.339C32.073 128.451 32.073 128.619 31.8697 128.704L30.679 129.35C30.5047 129.434 30.2724 129.434 30.1272 129.35L29.2269 128.872C29.0526 128.76 29.0526 128.591 29.2559 128.507L30.5047 127.833C30.6209 127.748 30.8532 127.748 31.0275 127.833Z" fill="white" stroke="#1C1D22" stroke-width="0.8" stroke-miterlimit="10" stroke-linecap="round" stroke-linejoin="round"/>
<path d="M33.7851 126.315L34.6563 126.793C34.8306 126.905 34.8306 127.074 34.6563 127.158L33.4366 127.804C33.2623 127.889 33.03 127.889 32.8848 127.804L31.9554 127.327C31.7811 127.214 31.7811 127.046 31.9844 126.962L33.2333 126.287C33.3785 126.231 33.6108 126.231 33.7851 126.315Z" fill="white" stroke="#1C1D22" stroke-width="0.8" stroke-miterlimit="10" stroke-linecap="round" stroke-linejoin="round"/>
<path d="M36.5443 124.826L37.4447 125.304C37.6189 125.416 37.6189 125.585 37.4447 125.669L36.2249 126.315C36.0506 126.399 35.8183 126.399 35.644 126.315L34.7147 125.866C34.5404 125.753 34.5404 125.585 34.7147 125.5L35.9635 124.826C36.1377 124.742 36.3991 124.742 36.5443 124.826Z" fill="white" stroke="#138BE1" stroke-width="0.8" stroke-miterlimit="10" stroke-linecap="round" stroke-linejoin="round"/>
<path d="M19.0347 159.948L21.5614 159.302C21.9389 159.218 22.2874 159.049 22.6359 158.824C22.8973 158.628 23.1877 158.403 23.2748 158.122L29.1995 141.376C29.6932 139.971 28.9962 138.369 27.6312 137.779L12.5872 131.345C12.2387 131.204 11.8612 131.176 11.5417 131.26C11.4836 131.288 11.3965 131.288 11.3384 131.317L8.05664 132.44L19.0347 159.948Z" fill="white"/>
<path d="M8.51803 132.722L23.3006 139.1C24.6366 139.69 25.3336 141.263 24.8689 142.64L19.1185 159.19C18.799 160.117 17.8116 160.51 16.8822 160.061L2.53531 153.205C1.31553 152.615 0.676593 151.098 1.08319 149.833L6.36889 133.733C6.68836 132.806 7.64676 132.356 8.51803 132.722Z" fill="white" stroke="#1C1D22" stroke-miterlimit="10"/>
<path d="M18.1326 160.201L21.9662 159.218C22.3437 159.133 22.6922 158.965 23.0407 158.74C23.3021 158.543 23.5925 158.319 23.6797 158.038L29.6334 141.263C30.1271 139.858 29.4301 138.257 28.0651 137.667L13.0211 131.232C12.6726 131.092 12.2951 131.064 11.9756 131.148C11.9175 131.176 11.8304 131.176 11.7723 131.204L7.18359 132.75" stroke="#1C1D22" stroke-miterlimit="10"/>
<path d="M10.375 138.116L19.0878 141.881C19.8719 142.218 20.2785 143.174 20.0171 143.96L16.6482 153.71C16.4739 154.244 15.864 154.497 15.3413 154.216L6.88995 150.17C6.16389 149.833 5.78633 148.934 6.04772 148.175L9.15526 138.706C9.30047 138.172 9.85228 137.891 10.375 138.116Z" fill="white" stroke="#1C1D22" stroke-miterlimit="10"/>
<path d="M8.31641 141.15L19.2944 145.983" stroke="#1C1D22" stroke-miterlimit="10"/>
<path d="M12.8414 146.067L11.6797 149.327" stroke="#1C1D22" stroke-miterlimit="10" stroke-linecap="round"/>
<path d="M10.842 145.534L8.63477 146.237L9.56412 147.979" fill="white"/>
<path d="M10.842 145.534L8.63477 146.237L9.56412 147.979" stroke="#1C1D22" stroke-miterlimit="10" stroke-linecap="round" stroke-linejoin="round"/>
<path d="M15.0496 147.304L15.8918 149.327L13.8008 149.776" fill="white"/>
<path d="M15.0496 147.304L15.8918 149.327L13.8008 149.776" stroke="#1C1D22" stroke-miterlimit="10" stroke-linecap="round" stroke-linejoin="round"/>
<path d="M16.0117 142.556L17.8995 143.427" stroke="#1C1D22" stroke-miterlimit="10" stroke-linecap="round" stroke-linejoin="round"/>
<path d="M28.0447 32.4722L25.0435 33.2502L22.7102 36.9671L29.0681 36.1676L30.0106 33.2357L28.0447 32.4722Z" fill="white"/>
<path d="M29.8866 35.9553L26.8855 36.7333L27.2902 40.3062L30.2378 40.3908C30.9349 39.2735 31.158 38.661 31.2168 37.5909L29.8866 35.9553Z" fill="white"/>
<path d="M29.9098 33.4038C26.6711 32.1648 24.7874 34.5381 22.8824 37.0644L23.2382 37.8209C25.0361 42.73 30.1442 39.0011 30.8508 36.2718C31.5574 33.5425 30.5336 33.7394 29.9098 33.4038Z" fill="white"/>
<path d="M27.2192 40.1492C28.2485 40.9269 29.6346 40.9174 30.5218 40.0765C31.4091 39.2356 31.4873 37.8276 30.7815 36.7385C30.2029 38.2515 28.7474 39.6523 27.2192 40.1492Z" stroke="#1C1D22" stroke-miterlimit="10" stroke-linecap="round" stroke-linejoin="round"/>
<path d="M23.7019 38.8172L24.6912 39.8694C25.1362 40.3488 25.8772 40.5673 26.8021 40.3907C26.9627 40.3671 27.1278 40.3131 27.2929 40.2591C28.8179 39.7638 30.2727 38.3776 30.843 36.8511C30.9044 36.6901 30.9527 36.5322 30.9881 36.3774C31.2262 35.4424 31.0557 34.678 30.5935 34.188L29.6041 33.1358C29.6862 33.2187 29.7596 33.3183 29.8199 33.421C29.8415 33.4451 29.8458 33.4588 29.8544 33.486C29.8629 33.5132 29.8802 33.5237 29.8888 33.551C29.8974 33.5782 29.919 33.6023 29.9275 33.6296C29.9361 33.6568 29.9404 33.6704 29.949 33.6976C30.0091 33.8443 30.0432 33.9972 30.0643 34.1532C30.0684 34.2108 30.0855 34.2652 30.0766 34.3259C30.0762 34.4138 30.0801 34.5153 30.0798 34.6032C30.0794 34.6912 30.0703 34.7958 30.0612 34.9004C30.0566 34.9747 30.0346 35.0385 30.0257 35.0992C30.0211 35.1735 29.9991 35.2373 29.9814 35.3147C29.9286 35.5029 29.8758 35.6912 29.7926 35.872C29.214 37.3273 27.8245 38.654 26.3559 39.1505C26.169 39.2243 25.9736 39.2709 25.7739 39.3039C25.7218 39.3163 25.6827 39.3256 25.6263 39.3244C25.6002 39.3306 25.5872 39.3338 25.5611 39.34C25.4787 39.345 25.3875 39.3667 25.305 39.3718C25.2789 39.378 25.2486 39.3706 25.2225 39.3768C25.2095 39.3799 25.1922 39.3694 25.1792 39.3725C25.1488 39.3651 25.1228 39.3713 25.0967 39.3775C25.0664 39.3701 25.0273 39.3794 24.9969 39.372C24.9666 39.3646 24.9405 39.3708 24.9102 39.3634C24.8799 39.356 24.8538 39.3622 24.8235 39.3548C24.7801 39.3505 24.7367 39.3462 24.6933 39.3419C24.663 39.3345 24.6327 39.3271 24.6023 39.3197C24.572 39.3123 24.5416 39.3049 24.5113 39.2975C24.481 39.2901 24.4506 39.2827 24.4203 39.2753C24.3726 39.2574 24.3292 39.2531 24.2946 39.2321C24.2643 39.2247 24.247 39.2142 24.2123 39.1931C24.1604 39.1616 24.0954 39.1332 24.0435 39.1017C24.0262 39.0912 24.0089 39.0806 23.9873 39.0565C23.9353 39.025 23.8964 38.9904 23.8445 38.9588C23.8229 38.9347 23.8056 38.9242 23.784 38.9001C23.7667 38.8896 23.7278 38.8549 23.7019 38.8172Z" stroke="#1C1D22" stroke-width="0.8" stroke-miterlimit="10" stroke-linecap="round" stroke-linejoin="round"/>
<path d="M23.2525 37.45C23.2415 38.0383 23.4261 38.536 23.7458 38.8844C23.7717 38.9222 23.8107 38.9568 23.8453 38.9779C23.8669 39.002 23.8842 39.0125 23.9058 39.0366C23.9447 39.0713 23.9967 39.1028 24.0486 39.1344C24.0659 39.1449 24.0833 39.1554 24.1049 39.1795C24.1568 39.2111 24.2088 39.2426 24.2738 39.271C24.3041 39.2784 24.3257 39.3026 24.3561 39.31C24.4037 39.3279 24.4384 39.3489 24.4817 39.3532C24.5121 39.3606 24.5424 39.368 24.5728 39.3755C24.6031 39.3829 24.6335 39.3903 24.6638 39.3977C24.6942 39.4051 24.7245 39.4125 24.7549 39.4199C24.7983 39.4242 24.8416 39.4285 24.885 39.4328C24.9154 39.4402 24.9457 39.4476 24.9718 39.4414C25.0021 39.4488 25.0282 39.4426 25.0586 39.45C25.0889 39.4574 25.128 39.4481 25.1584 39.4555C25.1887 39.4629 25.2148 39.4567 25.2408 39.4505C25.2539 39.4474 25.2712 39.4579 25.2842 39.4548C25.3103 39.4485 25.3406 39.4559 25.3667 39.4497C25.4492 39.4447 25.5317 39.4397 25.6229 39.4179C25.6489 39.4117 25.662 39.4086 25.688 39.4024C25.7271 39.3931 25.7836 39.3943 25.8357 39.3819C26.0354 39.3489 26.2266 39.2886 26.4178 39.2284C27.8825 38.7182 29.2592 37.3943 29.8553 35.9491C29.9385 35.7682 29.9913 35.5799 30.0441 35.3916C30.0618 35.3142 30.0838 35.2504 30.0884 35.176C30.0973 35.1153 30.115 35.0379 30.1239 34.9772C30.133 34.8726 30.1464 34.7815 30.1425 34.68C30.1385 34.5784 30.1389 34.4905 30.1393 34.4025C30.1352 34.3449 30.131 34.2874 30.1269 34.2298C30.1059 34.0737 30.0675 33.9072 30.0116 33.7741C30.003 33.7468 29.9987 33.7332 29.9902 33.706C29.9816 33.6787 29.973 33.6515 29.9514 33.6274C29.9471 33.6137 29.9255 33.5896 29.917 33.5624C29.9084 33.5351 29.8868 33.511 29.8825 33.4974C29.8222 33.3946 29.7488 33.295 29.6667 33.2121C29.3469 32.8637 28.8747 32.6541 28.2933 32.6317" stroke="#1C1D22" stroke-width="0.8" stroke-miterlimit="10" stroke-linecap="round" stroke-linejoin="round"/>
<path d="M23.4484 36.5367C23.4657 36.5473 23.5005 36.5684 23.5178 36.5789C25.1772 38.3713 29.0609 34.6847 27.3885 32.8954C27.3668 32.8712 27.3582 32.8439 27.3453 32.8029" stroke="#1C1D22" stroke-miterlimit="10" stroke-linecap="round" stroke-linejoin="round"/>
<path d="M28.4143 32.5652C28.431 32.5755 28.4352 32.5888 28.4393 32.6022C28.456 32.6125 28.4643 32.6391 28.481 32.6494C28.481 32.6494 28.481 32.6494 28.4852 32.6628L28.4978 32.6597L28.4143 32.5652Z" stroke="#1C1D22" stroke-miterlimit="10" stroke-linecap="round" stroke-linejoin="round"/>
<path d="M22.9846 37.4353L23.0681 37.5299L23.064 37.5165C23.0431 37.4929 23.0222 37.4692 22.9846 37.4353Z" stroke="#1C1D22" stroke-miterlimit="10" stroke-linecap="round" stroke-linejoin="round"/>
<path d="M22.741 36.1681C22.9878 36.2849 23.2217 36.4049 23.451 36.5552C23.4683 36.5657 23.503 36.5868 23.5203 36.5973C25.1751 38.3844 29.047 34.7094 27.3792 32.9255C27.3576 32.9013 27.349 32.8741 27.3362 32.8332C27.2026 32.5869 27.0952 32.3343 26.9877 32.0818" stroke="#1C1D22" stroke-miterlimit="10" stroke-linecap="round" stroke-linejoin="round"/>
<path d="M15.3791 30.6574L11.6989 31.6914C12.6391 32.9193 13.2566 33.4792 14.4987 34.2776C17.5745 35.9083 20.8935 35.554 23.7083 36.803L24.1449 37.2906L25.2512 37.1725L26.5005 36.1309L27.4412 35.0154L27.5415 33.954L26.854 32.193L15.3791 30.6574Z" fill="white"/>
<path d="M22.5993 36.3923C21.673 35.9666 20.6606 35.7681 19.6585 35.8326C17.8915 35.9486 16.0476 35.4933 14.4343 34.4516" stroke="#1C1D22" stroke-miterlimit="10" stroke-linecap="round" stroke-linejoin="round"/>
<path d="M23.5944 37.8331C23.6159 37.857 23.6546 37.8914 23.6891 37.9121C23.7623 37.9673 23.8356 38.0224 23.9046 38.0639C23.9219 38.0743 23.9564 38.0951 23.9867 38.1024C24.017 38.1096 24.0385 38.1335 24.0688 38.1408C24.0819 38.1376 24.0861 38.1512 24.0861 38.1512C24.1164 38.1584 24.1336 38.1688 24.164 38.1761C24.2419 38.201 24.3329 38.2227 24.4066 38.2341C24.4369 38.2413 24.4672 38.2486 24.4934 38.2423C24.5237 38.2495 24.5671 38.2536 24.6105 38.2578C24.7103 38.2628 24.8232 38.2647 24.9492 38.2635C25.0057 38.2645 25.0579 38.2519 25.1144 38.2529C25.1405 38.2466 25.1708 38.2539 25.197 38.2476C25.2231 38.2413 25.2362 38.2381 25.2623 38.2319C25.2884 38.2256 25.3015 38.2224 25.3276 38.2161C25.3799 38.2036 25.4322 38.191 25.4713 38.1816C25.5236 38.169 25.5759 38.1564 25.6151 38.147C25.6543 38.1376 25.7065 38.125 25.7415 38.102C25.7677 38.0957 25.8069 38.0863 25.8419 38.0634C25.9291 38.0278 26.0164 37.9923 26.0906 37.9599C26.1298 37.9505 26.1648 37.9275 26.1998 37.9045L26.2129 37.9014C26.2521 37.892 26.2871 37.869 26.3221 37.846C26.3482 37.8398 26.3571 37.8231 26.3832 37.8168C26.4182 37.7938 26.4532 37.7709 26.4924 37.7614C26.5405 37.7353 26.5885 37.7092 26.6366 37.6831C26.6847 37.657 26.7327 37.6309 26.7897 37.5881C26.8116 37.5683 26.8466 37.5453 26.8686 37.5255C27.0436 37.4107 27.2144 37.2823 27.3679 37.1436C27.403 37.1206 27.4338 37.0841 27.4557 37.0643C27.4996 37.0246 27.5434 36.985 27.5873 36.9454C27.6181 36.9089 27.662 36.8692 27.6928 36.8327C27.8291 36.6836 27.9654 36.5344 28.0975 36.3718C28.1283 36.3353 28.1591 36.2988 28.1769 36.2654C28.2077 36.2289 28.2385 36.1924 28.252 36.1455C28.2786 36.0955 28.3225 36.0558 28.3491 36.0058C28.442 35.8525 28.5349 35.6993 28.6106 35.5357C28.6283 35.5023 28.6372 35.4856 28.6549 35.4523C28.6727 35.4189 28.6904 35.3856 28.6951 35.3553C28.704 35.3387 28.704 35.3387 28.6998 35.3251C28.7264 35.2751 28.7399 35.2282 28.7535 35.1813C28.7535 35.1813 28.7535 35.1813 28.7493 35.1678C28.7629 35.1209 28.7895 35.0708 28.7988 35.0104C28.8212 34.9468 28.8306 34.8864 28.853 34.8228C28.8895 34.6686 28.917 34.5311 28.9404 34.38C28.9498 34.3196 28.9461 34.2623 28.9466 34.2186C28.9536 33.9696 28.9257 33.7436 28.867 33.5541C28.8586 33.527 28.8502 33.5 28.8418 33.4729C28.8335 33.4458 28.8251 33.4188 28.8036 33.3948C28.757 33.2897 28.7015 33.2012 28.646 33.1128C28.646 33.1128 28.646 33.1128 28.6418 33.0992C28.6246 33.0888 28.6162 33.0618 28.5989 33.0514C28.5817 33.041 28.5775 33.0274 28.5733 33.0139C28.556 33.0035 28.5518 32.99 28.5346 32.9796C28.2598 32.682 27.4239 32.0686 26.9158 32.0599C27.0086 32.314 27.1275 32.5617 27.2594 32.8063C27.2809 32.8303 27.2893 32.8573 27.3019 32.8979C28.9459 34.6696 25.057 38.3394 23.4129 36.5678C23.3956 36.5574 23.3611 36.5366 23.3438 36.5262C23.1153 36.3776 22.882 36.2591 22.6357 36.1438C22.7125 36.6635 23.2894 37.5283 23.5944 37.8331Z" stroke="#1C1D22" stroke-width="0.8" stroke-miterlimit="10" stroke-linecap="round" stroke-linejoin="round"/>
<path d="M27.2491 32.5037C26.8955 31.5882 26.7592 30.6059 26.8995 29.6585C27.2557 27.1946 26.467 24.5131 24.5547 22.45C21.1362 18.7772 15.5103 18.5938 12.4612 22.2569C10.1885 24.9935 10.181 29.2153 12.4626 32.3351" fill="white"/>
<path d="M27.2491 32.5037C26.8955 31.5882 26.7592 30.6059 26.8995 29.6585C27.2557 27.1946 26.467 24.5131 24.5547 22.45C21.1362 18.7772 15.5103 18.5938 12.4612 22.2569C10.1885 24.9935 10.181 29.2153 12.4626 32.3351" stroke="#1C1D22" stroke-miterlimit="10" stroke-linecap="round" stroke-linejoin="round"/>
<path d="M19.3094 20.8701C20.2522 20.9364 21.1619 21.1723 22.0426 21.5914" stroke="#1C1D22" stroke-miterlimit="10" stroke-linecap="round" stroke-linejoin="round"/>
<path d="M14.0875 22.808C15.094 21.8474 16.3486 21.2361 17.7394 21.032" stroke="#1C1D22" stroke-miterlimit="10" stroke-linecap="round" stroke-linejoin="round"/>
<path d="M26.5621 34.4077C26.5194 34.36 22.0604 29.5038 21.8681 27.377C21.8642 27.32 21.8173 27.2588 21.7573 27.2443C21.6972 27.2297 21.6368 27.2586 21.6149 27.3218C21.3653 28.0335 20.9494 28.5242 20.3719 28.7639C19.51 29.1153 18.2777 28.947 16.7136 28.2498C16.6493 28.2217 16.576 28.2538 16.5541 28.317C16.5322 28.3801 16.5575 28.461 16.6218 28.4891C16.6689 28.5067 21.1565 31.0095 24.2707 35.1595" stroke="#1C1D22" stroke-miterlimit="10" stroke-linecap="round" stroke-linejoin="round"/>
</svg>
