<svg width="246" height="245" viewBox="0 0 246 245" fill="none" xmlns="http://www.w3.org/2000/svg">
<path d="M92.8161 76.0606L58.875 93.1855L68.4576 95.4265L233.975 12.7117L222.181 10.8052L102.131 71.3445" fill="white"/>
<path d="M92.8161 76.0606L58.875 93.1855L68.4576 95.4265L233.975 12.7117L222.181 10.8052L102.131 71.3445" stroke="#1C1D22" stroke-miterlimit="10" stroke-linecap="round" stroke-linejoin="round"/>
<path d="M86.413 221.524L226.097 144.06L228.376 105.83" fill="white"/>
<path d="M228.376 105.83L233.904 12.7798L68.4541 95.4277L67.918 231.792L86.413 221.524" fill="white"/>
<path d="M86.413 221.524L226.097 144.06L228.376 105.83L233.904 12.7798L68.4541 95.4277L67.918 231.792L86.413 221.524Z" stroke="#1C1D22" stroke-miterlimit="10" stroke-linecap="round" stroke-linejoin="round"/>
<path d="M58.875 93.1859L59.7796 227.543L67.9215 231.925L68.4576 95.4269L58.875 93.1859Z" fill="#F6F5F5" stroke="#1C1D22" stroke-miterlimit="10" stroke-linecap="round" stroke-linejoin="round"/>
<path d="M233.203 24.353L68.4562 108.606L59.2422 106.165" stroke="#1C1D22" stroke-miterlimit="10" stroke-linecap="round" stroke-linejoin="round"/>
<path d="M78.4549 98.8557C79.4406 97.1627 79.4355 95.3238 78.4435 94.7483C77.4516 94.1728 75.8484 95.0786 74.8628 96.7716C73.8772 98.4645 73.8823 100.303 74.8742 100.879C75.8661 101.454 77.4693 100.549 78.4549 98.8557Z" fill="white" stroke="#1C1D22" stroke-miterlimit="10" stroke-linecap="round" stroke-linejoin="round"/>
<path d="M48.6071 33.1797L54.604 29.7299C58.2631 27.6329 61.5495 27.43 63.955 28.8167L69.1726 31.8268C66.801 30.4401 63.4807 30.6092 59.8216 32.74L37.3248 45.6937C33.6996 47.7906 30.4132 51.3757 28.0415 55.4681C25.6699 59.5606 24.213 64.1941 24.2469 68.3542C24.2469 72.4804 25.7038 75.3891 28.0754 76.742L22.8578 73.7318C20.52 72.379 19.0293 69.4703 19.0293 65.3441C19.0293 61.184 20.4862 56.5842 22.8239 52.458C25.1956 48.3656 28.482 44.7805 32.1072 42.7174L40.3063 37.9823" fill="#F6F5F5"/>
<path d="M48.6071 33.1797L54.604 29.7299C58.2631 27.6329 61.5495 27.43 63.955 28.8167L69.1726 31.8268C66.801 30.4401 63.4807 30.6092 59.8216 32.74L37.3248 45.6937C33.6996 47.7906 30.4132 51.3757 28.0415 55.4681C25.6699 59.5606 24.213 64.1941 24.2469 68.3542C24.2469 72.4804 25.7038 75.3891 28.0754 76.742L22.8578 73.7318C20.52 72.379 19.0293 69.4703 19.0293 65.3441C19.0293 61.184 20.4862 56.5842 22.8239 52.458C25.1956 48.3656 28.482 44.7805 32.1072 42.7174L40.3063 37.9823" stroke="#1C1D22" stroke-miterlimit="10" stroke-linecap="round"/>
<path d="M59.8202 32.7407C67.0706 28.5468 72.9658 31.929 72.9997 40.2491C73.0336 48.5693 67.1723 58.7157 59.8879 62.8758L64.123 73.834L51.7227 67.577L37.3573 75.8633C30.1068 80.0572 24.2116 76.7089 24.1777 68.3887C24.1777 64.2287 25.6346 59.5951 28.0062 55.5027C30.3779 51.4103 33.6643 47.8252 37.2895 45.7282L59.8202 32.7407Z" fill="white" stroke="#1C1D22" stroke-miterlimit="10" stroke-linecap="round" stroke-linejoin="round"/>
<path d="M62.4267 36.8326L42.0645 48.5011" stroke="#1C1D22" stroke-miterlimit="10" stroke-linecap="round"/>
<path d="M60.5703 42.5498L67.3803 38.6603" stroke="#1C1D22" stroke-miterlimit="10" stroke-linecap="round"/>
<path d="M33.1152 58.1419L54.7988 45.8308" stroke="#1C1D22" stroke-miterlimit="10" stroke-linecap="round"/>
<path d="M33.1152 62.6725L64.7597 44.5779" stroke="#1C1D22" stroke-miterlimit="10" stroke-linecap="round"/>
<path d="M33.1152 67.2047L67.3686 47.7234" stroke="#1C1D22" stroke-miterlimit="10" stroke-linecap="round"/>
<path d="M33.1152 71.7344L64.7597 53.606" stroke="#1C1D22" stroke-miterlimit="10" stroke-linecap="round"/>
<path d="M55.3694 68.8957L55.1323 69.7413C53.2688 76.6747 48.39 83.7434 42.6303 87.0579L29.6879 94.5325L25.69 111.105C25.6561 111.274 25.5206 111.376 25.3512 111.41C25.2495 111.443 25.1479 111.41 25.0462 111.376L19.8286 108.366C19.727 108.298 19.6592 108.23 19.6253 108.129L17.2876 101.331C14.6788 102.21 12.2732 102.109 10.3082 100.992L10.2743 100.959L9.42726 100.451L5.09054 97.9485C2.48173 96.4265 1.05874 93.3149 1.05874 89.1549C1.02486 80.8009 6.85233 70.4853 14.3738 66.1562L26.7403 59.0198L36.8706 53.1686C40.5636 51.0717 44.0194 50.7335 46.6621 52.2555L51.6425 55.1303L51.8119 55.2318C51.8458 55.2318 51.8458 55.2318 51.8797 55.2656C56.2164 57.7684 56.4875 63.9916 55.3694 68.8957Z" fill="white"/>
<path d="M43.9523 51.478C40.2594 50.9031 32.0941 55.1308 23.7595 60.7452C15.4248 66.3596 15.3232 63.7215 7.39513 72.4136C-2.59966 83.3719 1.87259 93.958 2.78736 95.7168C3.70214 97.4755 9.46185 100.452 9.46185 100.452L9.25856 100.215C7.39513 97.9828 6.31095 95.1756 6.31095 92.2669C6.31095 92.2331 6.31095 92.2331 6.31095 92.1993C6.27707 83.9468 12.0029 73.5636 19.626 69.1668L28.1301 64.2626L42.1567 56.1792C44.2573 54.9617 46.3579 54.4205 47.9503 54.3191C48.3229 54.3191 48.6956 54.3191 49.0683 54.3867L49.5088 54.4543C49.8815 54.522 50.2541 54.5896 50.6268 54.7249L51.711 55.1308C51.6771 55.1646 47.6453 52.053 43.9523 51.478Z" fill="#F6F5F5"/>
<path d="M35.3886 66.4609C36.7777 65.683 38.1329 65.4801 39.2171 66.0889C41.3177 67.2726 41.3516 71.1959 39.251 74.8487L31.1535 88.817L23.0222 84.1835C20.9216 82.9659 20.8877 79.0764 22.9883 75.4236C24.0386 73.5973 25.4277 72.2106 26.8168 71.3989C28.2059 70.621 29.5611 70.418 30.6114 71.0268C30.7808 71.1283 30.9503 71.2636 31.0858 71.3989C31.2213 71.0945 31.3907 70.7901 31.5601 70.4857C32.6443 68.6593 33.9995 67.2388 35.3886 66.4609Z" fill="#F6F5F5" stroke="#1C1D22" stroke-miterlimit="10"/>
<path d="M9.42839 100.453L9.22511 100.216C7.36168 97.9841 6.27749 95.1769 6.27749 92.2682C6.27749 92.2344 6.27749 92.2344 6.27749 92.2006C6.24361 83.9481 11.9694 73.5648 19.5926 69.168L28.0966 64.2639L42.1232 56.1805C44.2238 54.9629 46.3244 54.4218 47.9168 54.3203C48.2895 54.3203 48.6622 54.3203 49.0349 54.388L49.4753 54.4556C49.848 54.5232 50.2207 54.5909 50.5934 54.7262L51.6776 55.132" stroke="#1C1D22" stroke-miterlimit="10"/>
<path d="M24.8061 110.158L20.6726 99.9778L17.2168 101.703L20.0289 108.805L24.8061 111.139V110.158Z" fill="#F6F5F5"/>
<path d="M25.3551 111.444L20.578 99.7075L19.6971 100.215C18.9517 100.655 18.2063 100.993 17.4609 101.297" stroke="#1C1D22" stroke-miterlimit="10"/>
<path d="M51.8836 55.266C51.8497 55.266 51.8497 55.266 51.8158 55.2322L51.6464 55.1308L46.666 52.2559C44.0233 50.7339 40.5675 51.0383 36.8745 53.1691L26.7442 59.0203L14.3777 66.1566C6.85624 70.4858 1.02877 80.8352 1.06265 89.1553C1.06265 93.3154 2.48563 96.427 5.09444 97.949L9.43116 100.452L10.2782 100.959L10.3121 100.993C12.2771 102.109 14.6827 102.21 17.2915 101.331L19.6292 108.129C19.6631 108.231 19.7309 108.298 19.8325 108.366L25.0501 111.376C25.1518 111.444 25.2534 111.444 25.3551 111.41C25.5245 111.376 25.6261 111.275 25.6939 111.106L29.6918 94.533L42.6342 87.0584C48.3939 83.7439 53.2727 76.709 55.1362 69.7417L55.3733 68.8962C56.4914 63.992 56.2203 57.7688 51.8836 55.266Z" stroke="#1C1D22" stroke-miterlimit="10"/>
<path d="M182.212 182.262C186.539 180.868 191.255 181.37 195.191 183.655L200.271 186.608C196.586 184.463 191.507 184.769 185.869 188.029C174.704 194.465 165.661 210.096 165.689 222.94C165.717 229.293 167.978 233.807 171.606 235.924L163.959 231.466C160.302 229.349 158.042 224.863 158.014 218.482C157.986 207.923 164.07 195.496 172.472 187.834C175.263 185.271 178.612 183.432 182.212 182.262Z" fill="#F6F5F5" stroke="#1C1D22" stroke-miterlimit="10"/>
<path d="M200.269 219.558C208.193 205.948 208.21 191.198 200.306 186.612C192.403 182.027 179.573 189.343 171.649 202.954C163.724 216.564 163.708 231.314 171.611 235.9C179.514 240.485 192.345 233.169 200.269 219.558Z" fill="white" stroke="#1C1D22" stroke-miterlimit="10" stroke-linecap="round" stroke-linejoin="round"/>
<path d="M185.899 209.929C191.174 206.892 195.472 209.316 195.5 215.39V217.256L176.354 228.29V226.423C176.354 220.349 180.624 212.993 185.899 209.929Z" fill="#F6F5F5" stroke="#1C1D22" stroke-miterlimit="10" stroke-linecap="round" stroke-linejoin="round"/>
<path d="M185.902 196.22C188.051 194.966 189.809 195.997 189.809 198.449C189.809 200.929 188.079 203.91 185.93 205.164C183.78 206.418 182.022 205.415 181.994 202.935C181.994 200.483 183.725 197.474 185.902 196.22Z" fill="#F6F5F5" stroke="#1C1D22" stroke-miterlimit="10" stroke-linecap="round" stroke-linejoin="round"/>
<path d="M228.016 137.256C230.416 136.476 233.04 136.755 235.217 138.036L238.036 139.68C235.998 138.482 233.151 138.649 230.025 140.46C223.829 144.027 218.805 152.72 218.805 159.852C218.805 163.391 220.061 165.871 222.099 167.069L217.856 164.589C215.847 163.419 214.591 160.939 214.563 157.373C214.535 151.522 217.94 144.612 222.601 140.349C224.164 138.928 226.034 137.897 228.016 137.256Z" fill="#F6F5F5" stroke="#1C1D22" stroke-miterlimit="10"/>
<path d="M238.03 157.977C242.43 150.42 242.442 142.232 238.057 139.688C233.673 137.144 226.551 141.208 222.152 148.764C217.752 156.321 217.74 164.51 222.125 167.054C226.51 169.598 233.631 165.534 238.03 157.977Z" fill="white" stroke="#1C1D22" stroke-miterlimit="10" stroke-linecap="round" stroke-linejoin="round"/>
<path d="M230.065 152.609C232.996 150.909 235.396 152.274 235.396 155.646V156.676L224.762 162.806V161.775C224.734 158.404 227.134 154.308 230.065 152.609Z" fill="#F6F5F5" stroke="#138BE1" stroke-miterlimit="10" stroke-linecap="round" stroke-linejoin="round"/>
<path d="M230.04 145.002C231.24 144.306 232.217 144.863 232.217 146.256C232.217 147.621 231.268 149.293 230.068 149.99C228.867 150.686 227.891 150.129 227.891 148.764C227.891 147.371 228.84 145.699 230.04 145.002Z" fill="#F6F5F5" stroke="#138BE1" stroke-miterlimit="10" stroke-linecap="round" stroke-linejoin="round"/>
<path d="M196.169 3.31891C199.797 2.1487 203.733 2.56663 207.026 4.48911L211.269 6.96885C208.199 5.18567 203.928 5.43643 199.211 8.13906C189.889 13.5164 182.325 26.5838 182.325 37.3107C182.353 42.6324 184.223 46.3938 187.265 48.1491L180.874 44.4156C177.832 42.6324 175.962 38.8988 175.934 33.5772C175.906 24.7449 181.013 14.3802 188.019 7.94402C190.364 5.8265 193.183 4.26622 196.169 3.31891Z" fill="#F6F5F5" stroke="#1C1D22" stroke-miterlimit="10"/>
<path d="M211.247 34.4573C217.87 23.0821 217.891 10.7579 211.293 6.93038C204.696 3.10285 193.979 9.22144 187.357 20.5966C180.734 31.9718 180.713 44.2961 187.31 48.1236C193.908 51.9511 204.624 45.8325 211.247 34.4573Z" fill="white" stroke="#1C1D22" stroke-miterlimit="10" stroke-linecap="round" stroke-linejoin="round"/>
<path d="M199.268 26.4466C203.678 23.9111 207.278 25.945 207.278 30.9881V32.5484L191.285 41.7707V40.2105C191.285 35.1395 194.83 28.982 199.268 26.4466Z" fill="#F6F5F5" stroke="#1C1D22" stroke-miterlimit="10" stroke-linecap="round" stroke-linejoin="round"/>
<path d="M199.242 14.9655C201.056 13.9346 202.508 14.7704 202.508 16.8322C202.508 18.894 201.084 21.4016 199.27 22.4325C197.456 23.4634 196.004 22.6554 195.977 20.5657C195.977 18.5318 197.428 15.9964 199.242 14.9655Z" fill="#F6F5F5" stroke="#1C1D22" stroke-miterlimit="10" stroke-linecap="round" stroke-linejoin="round"/>
<path d="M32.9805 131.874C35.3808 131.094 38.0044 131.372 40.1815 132.654L43.0004 134.298C40.963 133.1 38.1161 133.267 34.9901 135.078C28.7939 138.644 23.7699 147.337 23.7699 154.47C23.7699 158.009 25.0259 160.488 27.0634 161.686L22.821 159.207C20.8114 158.036 19.5554 155.557 19.5275 151.99C19.4996 146.139 22.9047 139.23 27.5658 134.967C29.1288 133.518 30.9988 132.515 32.9805 131.874Z" fill="#F6F5F5" stroke="#1C1D22" stroke-miterlimit="10"/>
<path d="M42.9933 152.573C47.393 145.016 47.4051 136.827 43.0203 134.284C38.6356 131.74 31.5144 135.803 27.1147 143.36C22.7151 150.917 22.703 159.105 27.0877 161.649C31.4725 164.193 38.5937 160.13 42.9933 152.573Z" fill="white" stroke="#1C1D22" stroke-miterlimit="10" stroke-linecap="round" stroke-linejoin="round"/>
<path d="M35.0472 147.225C37.9778 145.526 40.3781 146.891 40.3781 150.262V151.293L29.7441 157.423V156.392C29.7441 153.021 32.1166 148.925 35.0472 147.225Z" fill="#F6F5F5" stroke="#1C1D22" stroke-miterlimit="10" stroke-linecap="round" stroke-linejoin="round"/>
<path d="M35.0222 139.62C36.2223 138.924 37.1992 139.481 37.1992 140.874C37.1992 142.239 36.2502 143.911 35.0501 144.608C33.8499 145.304 32.873 144.747 32.873 143.382C32.873 141.988 33.822 140.289 35.0222 139.62Z" fill="#F6F5F5" stroke="#1C1D22" stroke-miterlimit="10" stroke-linecap="round" stroke-linejoin="round"/>
<path d="M177.319 125.747H178.156C181.561 125.775 184.436 128.339 184.185 131.376C184.129 132.184 183.85 132.992 183.347 133.716L143.938 144.248L147.678 134.19L151.138 134.385C152.367 134.468 153.595 134.301 154.739 133.911L167.522 129.592C167.801 129.509 168.052 129.397 168.304 129.258C171.123 127.753 175.142 125.719 177.319 125.747Z" fill="white" stroke="#1C1D22" stroke-miterlimit="10" stroke-linecap="round" stroke-linejoin="round"/>
<path d="M184.969 129.006H185.918C189.742 129.034 192.951 131.904 192.7 135.331C192.616 136.222 192.337 137.142 191.751 137.977L147.457 149.791L140.451 137.81L155.551 138.702C156.919 138.785 158.314 138.59 159.598 138.145L173.944 133.297C174.251 133.185 174.53 133.074 174.809 132.934C178.019 131.291 182.541 129.006 184.969 129.006Z" fill="white" stroke="#1C1D22" stroke-miterlimit="10" stroke-linecap="round" stroke-linejoin="round"/>
<path d="M118.512 171.859C118.317 172.194 118.038 172.5 117.703 172.751C114.577 175.063 105.869 173.169 96.9651 168.042C87.7545 162.748 81.6421 155.839 82.591 152.049L83.9028 150.294C84.1261 150.155 84.3494 150.043 84.6285 149.932C85.9124 149.43 87.7545 149.347 89.9315 149.625C93.9507 150.183 99.17 152.105 104.445 155.142C111.255 159.071 116.363 163.863 118.177 167.624C118.959 169.296 119.126 170.773 118.512 171.859Z" stroke="#138BE1" stroke-miterlimit="10" stroke-linecap="round" stroke-linejoin="round"/>
<path d="M118.481 171.863C120.539 168.305 114.231 160.824 104.393 155.154C94.5546 149.483 84.9109 147.771 82.853 151.329C80.7952 154.887 87.1025 162.368 96.9408 168.038C106.779 173.709 116.423 175.421 118.481 171.863Z" fill="white" stroke="#138BE1" stroke-miterlimit="10" stroke-linecap="round" stroke-linejoin="round"/>
<path d="M192.701 133.186H193.65C197.474 133.213 200.684 136.083 200.432 139.51C200.349 140.402 200.07 141.321 199.484 142.157L155.189 153.971L148.184 141.99L163.283 142.882C164.651 142.965 166.046 142.77 167.33 142.324L181.676 137.476C181.983 137.365 182.263 137.253 182.542 137.114C185.751 135.47 190.273 133.158 192.701 133.186Z" fill="white" stroke="#1C1D22" stroke-miterlimit="10" stroke-linecap="round" stroke-linejoin="round"/>
<path d="M91.5215 153.804L107.738 132.741C110.892 128.645 114.436 126.722 119.739 126.639C122.754 126.583 125.74 127.196 128.559 128.283L141.789 134.301L147.427 134.189C147.594 134.189 147.734 134.217 147.873 134.273C149.325 134.914 157.279 138.898 152.925 148.706C148.571 158.541 138.272 157.231 138.272 157.231" fill="white"/>
<path d="M91.5215 153.804L107.738 132.741C110.892 128.645 114.436 126.722 119.739 126.639C122.754 126.583 125.74 127.196 128.559 128.283L141.789 134.301L147.427 134.189C147.594 134.189 147.734 134.217 147.873 134.273C149.325 134.914 157.279 138.898 152.925 148.706C148.571 158.541 138.272 157.231 138.272 157.231" stroke="#1C1D22" stroke-miterlimit="10" stroke-linecap="round" stroke-linejoin="round"/>
<path d="M107.793 176.318L115.58 170.244C118.678 167.931 122.558 166.845 126.409 167.179L142.067 168.6C145.11 168.879 148.152 168.489 151.027 167.458L195.461 151.493C197.526 150.768 199.145 149.18 199.954 147.146C201.238 143.886 198.698 140.403 195.209 140.626C190.381 140.933 185.692 143.05 181.087 144.555L169.95 148.595C164.005 150.545 157.753 149.542 151.529 148.901L112.342 144.75" fill="white"/>
<path d="M107.793 176.318L115.58 170.244C118.678 167.931 122.558 166.845 126.409 167.179L142.067 168.6C145.11 168.879 148.152 168.489 151.027 167.458L195.461 151.493C197.526 150.768 199.145 149.18 199.954 147.146C201.238 143.886 198.698 140.403 195.209 140.626C190.381 140.933 185.692 143.05 181.087 144.555L169.95 148.595C164.005 150.545 157.753 149.542 151.529 148.901L112.342 144.75" stroke="#1C1D22" stroke-miterlimit="10" stroke-linecap="round" stroke-linejoin="round"/>
<path d="M116.163 147.954L129.56 151.046C131.151 151.409 132.77 151.52 134.389 151.353L147.339 150.043C149.74 150.071 152.112 149.375 154.094 148.009C157.945 145.418 156.885 139.511 152.391 138.369L150.912 138.007C148.484 137.394 145.999 137.032 143.488 136.892L133.412 137.338L120.182 131.32C117.363 130.233 114.377 129.62 111.362 129.676C106.087 129.76 102.515 131.71 99.3607 135.778L83.1445 156.842L93.639 175.259L108.739 175.398" fill="white"/>
<path d="M116.163 147.954L129.56 151.046C131.151 151.409 132.77 151.52 134.389 151.353L147.339 150.043C149.74 150.071 152.112 149.375 154.094 148.009C157.945 145.418 156.885 139.511 152.391 138.369L150.912 138.007C148.484 137.394 145.999 137.032 143.488 136.892L133.412 137.338L120.182 131.32C117.363 130.233 114.377 129.62 111.362 129.676C106.087 129.76 102.515 131.71 99.3607 135.778L83.1445 156.842L93.639 175.259L108.739 175.398" stroke="#1C1D22" stroke-miterlimit="10" stroke-linecap="round" stroke-linejoin="round"/>
<path d="M117.952 172.779L105.309 195.682L87.0831 228.67C78.4866 244.607 66.5966 242.462 53.9252 235.58C42.733 229.478 35.839 218.946 43.5424 206.743L68.7737 170.494L82.5616 152.049C81.6126 155.839 87.7251 162.721 96.9356 168.042C105.811 173.169 114.547 175.064 117.673 172.751C117.785 172.751 117.869 172.751 117.952 172.779Z" fill="white" stroke="#138BE1" stroke-miterlimit="10" stroke-linecap="round" stroke-linejoin="round"/>
<path d="M106.342 193.759C102.574 196.211 96.7405 195.487 90.7676 193.09C90.7676 193.09 87.5299 192.004 87.8369 190.109" stroke="#138BE1" stroke-miterlimit="10" stroke-linecap="round" stroke-linejoin="round"/>
<path d="M83.7065 176.734C85.7104 176.734 87.3349 175.113 87.3349 173.112C87.3349 171.112 85.7104 169.49 83.7065 169.49C81.7026 169.49 80.0781 171.112 80.0781 173.112C80.0781 175.113 81.7026 176.734 83.7065 176.734Z" stroke="#1C1D22" stroke-miterlimit="10" stroke-linecap="round" stroke-linejoin="round"/>
<path d="M146.227 145.502C146.227 145.502 144.804 139.289 153.261 139.066" stroke="#1C1D22" stroke-miterlimit="10" stroke-linecap="round" stroke-linejoin="round"/>
<path d="M104.498 171.691L97.7159 184.201C94.869 189.467 88.31 191.501 82.9512 188.798L82.2534 188.436C81.6114 188.101 80.9695 187.739 80.3555 187.321C72.8754 182.306 67.8235 176.316 67.9073 171.523" stroke="#138BE1" stroke-miterlimit="10" stroke-linecap="round" stroke-linejoin="round"/>
<path d="M163.529 122.932L157.891 121.205C157.891 121.205 161.91 118.335 163.529 116.189V122.932Z" fill="#F6F5F5" stroke="#1C1D22" stroke-miterlimit="10" stroke-linecap="round" stroke-linejoin="round"/>
<path d="M134.168 124.131V111.092C134.168 111.092 141.564 108.946 146.114 103.597C150.663 98.2473 152.059 94.2909 153.371 85.9323L164.619 88.8856C164.619 88.8856 163.167 99.6404 158.534 105.742C153.845 111.955 148.989 113.293 146.505 114.24V127.085L134.168 124.131Z" fill="white" stroke="#1C1D22" stroke-miterlimit="10" stroke-linecap="round" stroke-linejoin="round"/>
<path d="M153.289 86.0152L164.844 83.1454L176.008 86.4331L164.593 89.0522L153.289 86.0152Z" fill="white" stroke="#1C1D22" stroke-miterlimit="10" stroke-linecap="round" stroke-linejoin="round"/>
<path d="M170.618 81.5858L182.173 84.6507C182.173 84.6507 182.396 98.4981 169.613 107.72C169.613 107.72 172.683 102.65 173.995 97.8852C173.995 97.8852 175.698 93.2601 176.089 86.3781L170.311 84.7064L170.618 81.5858Z" fill="#F6F5F5" stroke="#1C1D22" stroke-miterlimit="10" stroke-linecap="round" stroke-linejoin="round"/>
<path d="M170.617 81.5853L181.167 78.9105L192.722 81.9196L182.088 84.5944L170.617 81.5853Z" fill="white" stroke="#1C1D22" stroke-miterlimit="10" stroke-linecap="round" stroke-linejoin="round"/>
<path d="M180.891 118.252L175.029 117.249C175.029 117.249 177.792 115.521 180.891 111.704V118.252Z" fill="#F6F5F5" stroke="#1C1D22" stroke-miterlimit="10" stroke-linecap="round" stroke-linejoin="round"/>
<path d="M192.361 114.017L192.751 82.8397C192.751 82.8954 191.049 94.5975 188.118 100.699C185.802 105.519 181.95 110.535 180.861 111.788V118.28L192.361 114.017Z" fill="white" stroke="#1C1D22" stroke-miterlimit="10" stroke-linecap="round" stroke-linejoin="round"/>
<path d="M134.168 124.131V111.147L146.505 114.351V127.196L134.168 124.131Z" fill="#F6F5F5" stroke="#1C1D22" stroke-miterlimit="10" stroke-linecap="round" stroke-linejoin="round"/>
<path d="M146.5 114.212L146.556 127.251C146.556 127.251 157.134 123.629 163.693 116.274V122.961C163.693 122.961 170.085 120.955 175.555 116.998C181.333 112.847 187.194 103.764 188.896 99.2221C190.683 94.8199 192.832 85.2353 192.832 81.9755L182.198 84.6502C182.198 84.6502 182.421 91.5322 177.565 99.3057C174.411 104.46 169.554 107.72 169.554 107.72C169.554 107.72 175.555 98.3027 176.03 86.3777L164.614 88.9967C164.614 88.9967 162.856 100.002 158.781 105.268C155.99 109.113 153.059 112.011 146.5 114.212Z" fill="white" stroke="#138BE1" stroke-miterlimit="10" stroke-linecap="round" stroke-linejoin="round"/>
</svg>
