<svg width="282" height="159" viewBox="0 0 282 159" fill="none" xmlns="http://www.w3.org/2000/svg">
<g filter="url(#filter0_d_5602_15955)">
<path d="M19.0863 46.5332C18.4863 37.9539 24.9549 30.5127 33.5341 29.9128L240.582 15.4346C249.161 14.8347 256.602 21.3032 257.202 29.8825L262.484 105.418C263.084 113.998 256.615 121.439 248.036 122.039L40.9886 136.517C32.4094 137.117 24.9682 130.648 24.3682 122.069L19.0863 46.5332Z" fill="white"/>
</g>
<g filter="url(#filter1_d_5602_15955)">
<path d="M24.9137 29.5332C25.5137 20.9539 32.9549 14.4854 41.5341 15.0853L248.584 29.5636C257.164 30.1636 263.632 37.6048 263.032 46.184L257.751 121.715C257.151 130.295 249.709 136.763 241.13 136.163L34.08 121.685C25.5007 121.085 19.0322 113.644 19.6321 105.065L24.9137 29.5332Z" fill="white" shape-rendering="crispEdges"/>
<path d="M142.054 94.8082C142.214 92.5238 144.196 90.8014 146.48 90.9612L230.577 96.8427C232.862 97.0024 234.584 98.9839 234.424 101.268C234.265 103.553 232.283 105.275 229.999 105.115L145.901 99.2339C143.617 99.0741 141.895 97.0927 142.054 94.8082Z" fill="#EAEDEF"/>
<path d="M141.187 107.218C141.347 104.934 143.328 103.211 145.613 103.371L187.194 106.279C189.479 106.439 191.201 108.42 191.041 110.705C190.882 112.989 188.9 114.712 186.616 114.552L145.034 111.644C142.75 111.484 141.027 109.503 141.187 107.218Z" fill="#EAEDEF"/>
<path d="M79.6231 43.6513C79.7557 41.7544 81.401 40.3242 83.298 40.4569L135.505 44.1082C137.402 44.2409 138.832 45.8862 138.699 47.7831C138.567 49.68 136.922 51.1102 135.025 50.9775L82.8175 47.3262C80.9206 47.1936 79.4904 45.5483 79.6231 43.6513Z" fill="#DADEE0"/>
<path d="M78.7823 55.6667C78.9813 52.8213 81.4492 50.676 84.2946 50.875L186.648 58.0334C189.493 58.2324 191.639 60.7004 191.44 63.5458C191.241 66.3912 188.773 68.5365 185.927 68.3375L83.5739 61.179C80.7286 60.98 78.5833 58.512 78.7823 55.6667Z" fill="#EAEDEF"/>
<ellipse cx="54.4497" cy="43.8466" rx="12.4893" ry="11.8648" transform="rotate(11.7359 54.4497 43.8466)" fill="#B8DCF6"/>
<ellipse cx="54.4502" cy="43.8467" rx="7.92943" ry="7.53295" transform="rotate(11.7359 54.4502 43.8467)" fill="#138BE1"/>
<path fill-rule="evenodd" clip-rule="evenodd" d="M53.0791 53.2659L48.194 49.1426L38.7621 59.1316L43.9889 59.9532L45.443 64.7705L52.1685 57.6478L55.5006 66.8602L58.7531 63.0207L63.8746 64.3488L59.2018 51.4297L53.0791 53.2659Z" fill="#B8DCF6"/>
<path d="M32.7771 87.1666C32.9369 84.8822 34.9183 83.1598 37.2028 83.3196L113.286 88.6408C115.571 88.8005 117.293 90.782 117.133 93.0664C116.974 95.3508 114.992 97.0732 112.708 96.9135L36.6242 91.5923C34.3397 91.4325 32.6173 89.4511 32.7771 87.1666Z" fill="#EAEDEF"/>
<path d="M31.9099 99.5767C32.0697 97.2923 34.0511 95.5699 36.3356 95.7297L49.3979 96.6432C51.6823 96.803 53.4047 98.7844 53.2449 101.069C53.0852 103.353 51.1037 105.076 48.8193 104.916L35.757 104.002C33.4725 103.843 31.7502 101.861 31.9099 99.5767Z" fill="#EAEDEF"/>
<path d="M58.4158 101.43C58.5756 99.1457 60.557 97.4233 62.8414 97.5831L75.9037 98.4966C78.1882 98.6564 79.9106 100.638 79.7508 102.922C79.591 105.207 77.6096 106.929 75.3251 106.769L62.2628 105.856C59.9784 105.696 58.256 103.715 58.4158 101.43Z" fill="#EAEDEF"/>
</g>
<defs>
<filter id="filter0_d_5602_15955" x="-0.28871" y="-0.502655" width="282.148" height="159.832" filterUnits="userSpaceOnUse" color-interpolation-filters="sRGB">
<feFlood flood-opacity="0" result="BackgroundImageFix"/>
<feColorMatrix in="SourceAlpha" type="matrix" values="0 0 0 0 0 0 0 0 0 0 0 0 0 0 0 0 0 0 127 0" result="hardAlpha"/>
<feOffset dy="3.43773"/>
<feGaussianBlur stdDeviation="9.14435"/>
<feComposite in2="hardAlpha" operator="out"/>
<feColorMatrix type="matrix" values="0 0 0 0 0 0 0 0 0 0 0 0 0 0 0 0 0 0 0.08 0"/>
<feBlend mode="normal" in2="BackgroundImageFix" result="effect1_dropShadow_5602_15955"/>
<feBlend mode="normal" in="SourceGraphic" in2="effect1_dropShadow_5602_15955" result="shape"/>
</filter>
<filter id="filter1_d_5602_15955" x="0.256212" y="-0.851959" width="282.152" height="159.828" filterUnits="userSpaceOnUse" color-interpolation-filters="sRGB">
<feFlood flood-opacity="0" result="BackgroundImageFix"/>
<feColorMatrix in="SourceAlpha" type="matrix" values="0 0 0 0 0 0 0 0 0 0 0 0 0 0 0 0 0 0 127 0" result="hardAlpha"/>
<feOffset dy="3.43773"/>
<feGaussianBlur stdDeviation="9.14435"/>
<feComposite in2="hardAlpha" operator="out"/>
<feColorMatrix type="matrix" values="0 0 0 0 0 0 0 0 0 0 0 0 0 0 0 0 0 0 0.08 0"/>
<feBlend mode="normal" in2="BackgroundImageFix" result="effect1_dropShadow_5602_15955"/>
<feBlend mode="normal" in="SourceGraphic" in2="effect1_dropShadow_5602_15955" result="shape"/>
</filter>
</defs>
</svg>
