<svg width="281" height="159" viewBox="0 0 281 159" fill="none" xmlns="http://www.w3.org/2000/svg">
<g filter="url(#filter0_d_5620_8770)">
<path d="M19.2113 47.1513C18.6113 38.5721 25.0799 31.1309 33.6591 30.5309L240.707 16.0528C249.286 15.4528 256.727 21.9214 257.327 30.5007L262.609 106.037C263.209 114.616 256.74 122.057 248.161 122.657L41.1136 137.135C32.5344 137.735 25.0932 131.266 24.4932 122.687L19.2113 47.1513Z" fill="white"/>
</g>
<g filter="url(#filter1_d_5620_8770)">
<path d="M26.1677 29.7587C26.7676 21.1795 34.2088 14.7109 42.7881 15.3109L243.904 29.3743C252.483 29.9742 258.952 37.4154 258.352 45.9947L253.07 121.526C252.47 130.105 245.029 136.574 236.45 135.974L35.3339 121.911C26.7546 121.311 20.2861 113.869 20.886 105.29L26.1677 29.7587Z" fill="white" shape-rendering="crispEdges"/>
<path d="M143.441 98.777C143.601 96.4925 145.582 94.7701 147.867 94.9299L198.637 98.4806C200.921 98.6404 202.644 100.622 202.484 102.906C202.324 105.191 200.343 106.913 198.058 106.753L147.288 103.203C145.004 103.043 143.281 101.061 143.441 98.777Z" fill="#EAEDEF"/>
<path d="M142.574 111.187C142.734 108.902 144.715 107.18 147 107.34L188.581 110.248C190.866 110.407 192.588 112.389 192.428 114.673C192.268 116.958 190.287 118.68 188.003 118.52L146.421 115.612C144.137 115.453 142.414 113.471 142.574 111.187Z" fill="#EAEDEF"/>
<path d="M100.924 45.668C101.057 43.771 102.702 42.3408 104.599 42.4735L156.806 46.1248C158.703 46.2575 160.133 47.9028 160 49.7997C159.868 51.6966 158.222 53.1268 156.325 52.9941L104.118 49.3428C102.221 49.2102 100.791 47.5649 100.924 45.668Z" fill="#DADEE0"/>
<path d="M100.081 57.6833C100.28 54.8379 102.748 52.6926 105.593 52.8916L207.947 60.05C210.792 60.2491 212.937 62.717 212.738 65.5624C212.539 68.4078 210.071 70.5531 207.226 70.3541L104.873 63.1956C102.027 62.9966 99.8821 60.5286 100.081 57.6833Z" fill="#EAEDEF"/>
<path d="M34.1638 91.1364C34.3236 88.8519 36.305 87.1295 38.5895 87.2893L114.673 92.6105C116.958 92.7703 118.68 94.7517 118.52 97.0361C118.36 99.3206 116.379 101.043 114.095 100.883L38.0109 95.562C35.7264 95.4022 34.0041 93.4208 34.1638 91.1364Z" fill="#EAEDEF"/>
<path d="M33.2966 103.546C33.4564 101.262 35.4378 99.5396 37.7223 99.6993L50.7846 100.613C53.069 100.773 54.7914 102.754 54.6316 105.039C54.4719 107.323 52.4904 109.045 50.206 108.886L37.1437 107.972C34.8593 107.812 33.1369 105.831 33.2966 103.546Z" fill="#EAEDEF"/>
<path d="M59.8005 105.4C59.9603 103.115 61.9418 101.393 64.2262 101.553L77.2885 102.466C79.5729 102.626 81.2953 104.607 81.1355 106.892C80.9758 109.176 78.9943 110.899 76.7099 110.739L63.6476 109.825C61.3631 109.666 59.6408 107.684 59.8005 105.4Z" fill="#EAEDEF"/>
<path d="M85.2873 80.293C76.5461 79.692 67.8056 79.0808 59.0658 78.4594C54.6209 78.1486 50.1858 77.8385 45.7408 77.5277C42.9104 77.3297 36.6487 78.2211 35.5516 74.8622C35.2291 73.8888 35.3024 72.8408 35.3735 71.8233C36.0025 62.8286 36.6307 53.8441 37.2597 44.8495C37.5742 40.3521 37.8887 35.8548 38.2024 31.3676C38.3874 28.7221 37.8555 23.4397 42.141 23.7393C56.9524 24.7546 71.7759 25.74 86.5902 26.7146C91.0765 27.0079 92.2939 29.0766 92.0071 33.1771C91.6969 37.8997 91.3469 42.6195 91.0167 47.3406C90.5799 53.5881 90.2619 59.854 89.8051 66.1001C89.5767 69.2231 89.3084 72.3433 88.9605 75.458C88.7142 77.6902 88.3876 80.4996 85.288 80.2828L85.2873 80.293Z" fill="#B8DCF6"/>
<path d="M78.1807 71.5141C72.3199 71.1138 66.4604 70.6945 60.6002 70.2847C57.6235 70.0766 54.6468 69.8684 51.67 69.6603C49.7664 69.5271 45.5706 70.1241 44.8374 67.8709C44.6207 67.2144 44.6693 66.5189 44.7173 65.833C45.139 59.8025 45.56 53.7816 45.9817 47.7512C46.1922 44.7407 46.4034 41.7207 46.6139 38.7102C46.7378 36.9383 46.3851 33.4002 49.2599 33.5916C59.1899 34.2669 69.1205 34.9326 79.0519 35.5887C82.0573 35.7893 82.8698 37.1768 82.678 39.9205C82.4755 43.0847 82.2356 46.2463 82.0145 49.4092C81.7213 53.601 81.5122 57.7986 81.2004 61.9891C81.0539 64.085 80.8606 66.1776 80.6394 68.2683C80.4782 69.7696 80.253 71.6494 78.1814 71.5045L78.1807 71.5141Z" stroke="white" stroke-width="2" stroke-miterlimit="10"/>
<path d="M57.9444 52.8754C57.5908 52.4709 57.4335 51.9841 57.4725 51.4151C57.5116 50.846 57.7339 50.3862 58.1394 50.0355C58.5486 49.6815 59.0486 49.524 59.6392 49.5631C60.3037 49.607 60.7972 49.8788 61.1196 50.3783C61.2668 50.6001 61.3648 50.8439 61.4137 51.1096L60.5963 51.0555C60.5589 50.9308 60.4962 50.8152 60.4082 50.7087C60.2022 50.4686 59.9287 50.3372 59.5876 50.3147C59.2431 50.2919 58.9503 50.3893 58.7094 50.6071C58.4721 50.8215 58.3411 51.1094 58.3163 51.4709C58.2905 51.8467 58.3771 52.1544 58.5761 52.3941C58.7788 52.6304 59.0595 52.7604 59.4181 52.7841C59.7767 52.8078 60.0736 52.7017 60.3088 52.4656C60.4153 52.354 60.496 52.2335 60.5508 52.1041L61.3682 52.1581C61.2679 52.4355 61.1294 52.678 60.9527 52.8856C60.5386 53.3616 60.0099 53.5783 59.3665 53.5357C58.7759 53.4966 58.3018 53.2765 57.9444 52.8754Z" fill="white"/>
<path d="M61.7711 53.5869L62.0291 49.829L63.743 49.9424C64.1825 49.9715 64.5288 50.122 64.7821 50.394C65.0391 50.6627 65.1549 50.9832 65.1293 51.3554C65.1038 51.7276 64.9452 52.0317 64.6535 52.2676C64.3656 52.5002 64.0019 52.602 63.5624 52.5729L62.6395 52.5119L62.5622 53.6393L61.7711 53.5869ZM62.6911 51.7603L63.5877 51.8196C63.8056 51.834 63.9779 51.7933 64.1046 51.6974C64.2313 51.6015 64.3004 51.4695 64.3119 51.3013C64.3235 51.1331 64.273 50.9931 64.1606 50.8814C64.0482 50.7697 63.883 50.7067 63.665 50.6923L62.7685 50.6329L62.6911 51.7603Z" fill="white"/>
<path d="M65.5386 52.3531L65.6953 50.0716L66.4863 50.1239L66.3297 52.4055C66.312 52.6632 66.3683 52.8718 66.4986 53.0314C66.6327 53.1877 66.821 53.2739 67.0636 53.2899C67.3062 53.306 67.5028 53.2453 67.6535 53.1078C67.808 52.9671 67.8941 52.7678 67.9118 52.5101L68.0684 50.2286L68.8594 50.2809L68.7028 52.5625C68.6696 53.0456 68.5008 53.4209 68.1964 53.6884C67.892 53.9559 67.4972 54.0736 67.012 54.0415C66.5268 54.0094 66.1517 53.8408 65.8866 53.5356C65.6215 53.2305 65.5055 52.8363 65.5386 52.3531Z" fill="white"/>
<path d="M51.7525 47.4706L52.1682 41.5259C52.2562 40.2684 53.3266 39.3093 54.5677 39.3961L61.5943 39.8875" stroke="white" stroke-width="2" stroke-miterlimit="10"/>
<path d="M58.7551 65.0659L53.1656 64.675C51.9338 64.5889 50.9973 63.499 51.0859 62.232L51.4609 56.8684" stroke="white" stroke-width="2" stroke-miterlimit="10"/>
<path d="M75.3081 58.0742L74.943 63.2949C74.8551 64.5524 73.7846 65.5115 72.5436 65.4247L68.3071 65.1284" stroke="white" stroke-width="2" stroke-miterlimit="10"/>
<path d="M68.1016 40.5657L73.9804 40.9768C75.2121 41.0629 76.1487 42.1527 76.0601 43.4198L75.7563 47.764" stroke="white" stroke-width="2" stroke-miterlimit="10"/>
<ellipse cx="228.956" cy="102.86" rx="12.4893" ry="11.8648" transform="rotate(11.7359 228.956 102.86)" fill="#B8DCF6"/>
<ellipse cx="228.958" cy="102.86" rx="7.92943" ry="7.53296" transform="rotate(11.7359 228.958 102.86)" fill="#138BE1"/>
<path fill-rule="evenodd" clip-rule="evenodd" d="M227.589 112.28L222.704 108.156L213.272 118.145L218.499 118.967L219.953 123.784L226.678 116.661L230.01 125.874L233.263 122.034L238.384 123.362L233.712 110.443L227.589 112.28Z" fill="#B8DCF6"/>
</g>
<defs>
<filter id="filter0_d_5620_8770" x="-0.16371" y="0.115509" width="282.148" height="159.832" filterUnits="userSpaceOnUse" color-interpolation-filters="sRGB">
<feFlood flood-opacity="0" result="BackgroundImageFix"/>
<feColorMatrix in="SourceAlpha" type="matrix" values="0 0 0 0 0 0 0 0 0 0 0 0 0 0 0 0 0 0 127 0" result="hardAlpha"/>
<feOffset dy="3.43773"/>
<feGaussianBlur stdDeviation="9.14435"/>
<feComposite in2="hardAlpha" operator="out"/>
<feColorMatrix type="matrix" values="0 0 0 0 0 0 0 0 0 0 0 0 0 0 0 0 0 0 0.08 0"/>
<feBlend mode="normal" in2="BackgroundImageFix" result="effect1_dropShadow_5620_8770"/>
<feBlend mode="normal" in="SourceGraphic" in2="effect1_dropShadow_5620_8770" result="shape"/>
</filter>
<filter id="filter1_d_5620_8770" x="1.51207" y="-0.626373" width="276.214" height="159.413" filterUnits="userSpaceOnUse" color-interpolation-filters="sRGB">
<feFlood flood-opacity="0" result="BackgroundImageFix"/>
<feColorMatrix in="SourceAlpha" type="matrix" values="0 0 0 0 0 0 0 0 0 0 0 0 0 0 0 0 0 0 127 0" result="hardAlpha"/>
<feOffset dy="3.43773"/>
<feGaussianBlur stdDeviation="9.14435"/>
<feComposite in2="hardAlpha" operator="out"/>
<feColorMatrix type="matrix" values="0 0 0 0 0 0 0 0 0 0 0 0 0 0 0 0 0 0 0.08 0"/>
<feBlend mode="normal" in2="BackgroundImageFix" result="effect1_dropShadow_5620_8770"/>
<feBlend mode="normal" in="SourceGraphic" in2="effect1_dropShadow_5620_8770" result="shape"/>
</filter>
</defs>
</svg>
