<svg width="283" height="159" viewBox="0 0 283 159" fill="none" xmlns="http://www.w3.org/2000/svg">
<g filter="url(#filter0_d_5602_7789)">
<path d="M19.2093 47.1513C18.6094 38.572 25.0779 31.1308 33.6572 30.5309L240.705 16.0527C249.284 15.4528 256.725 21.9213 257.325 30.5006L262.607 106.036C263.207 114.616 256.738 122.057 248.159 122.657L41.1117 137.135C32.5324 137.735 25.0912 131.266 24.4913 122.687L19.2093 47.1513Z" fill="white"/>
</g>
<g filter="url(#filter1_d_5602_7789)">
<path d="M26.1637 29.7587C26.7637 21.1795 34.2049 14.7109 42.7841 15.3109L249.834 29.7892C258.414 30.3891 264.882 37.8304 264.282 46.4096L259.001 121.941C258.401 130.52 250.959 136.989 242.38 136.389L35.33 121.911C26.7507 121.311 20.2822 113.869 20.8821 105.29L26.1637 29.7587Z" fill="white" shape-rendering="crispEdges"/>
<path d="M143.304 95.0338C143.464 92.7494 145.446 91.027 147.73 91.1867L231.827 97.0682C234.112 97.228 235.834 99.2094 235.674 101.494C235.515 103.778 233.533 105.501 231.249 105.341L147.151 99.4594C144.867 99.2997 143.145 97.3183 143.304 95.0338Z" fill="#EAEDEF"/>
<path d="M142.437 107.444C142.597 105.159 144.578 103.437 146.863 103.597L188.444 106.505C190.729 106.665 192.451 108.646 192.291 110.93C192.132 113.215 190.15 114.937 187.866 114.777L146.284 111.869C144 111.71 142.277 109.728 142.437 107.444Z" fill="#EAEDEF"/>
<path d="M100.918 45.668C101.051 43.771 102.696 42.3408 104.593 42.4735L156.8 46.1248C158.697 46.2575 160.127 47.9028 159.994 49.7997C159.862 51.6966 158.216 53.1268 156.319 52.9941L104.112 49.3428C102.216 49.2102 100.785 47.5649 100.918 45.668Z" fill="#DADEE0"/>
<path d="M100.077 57.6833C100.276 54.8379 102.744 52.6926 105.59 52.8916L207.943 60.05C210.788 60.249 212.934 62.717 212.735 65.5624C212.536 68.4078 210.068 70.5531 207.222 70.3541L104.869 63.1956C102.023 62.9966 99.8782 60.5286 100.077 57.6833Z" fill="#EAEDEF"/>
<path d="M34.0271 87.3922C34.1869 85.1078 36.1683 83.3854 38.4528 83.5452L114.536 88.8664C116.821 89.0261 118.543 91.0075 118.383 93.292C118.224 95.5764 116.242 97.2988 113.958 97.1391L37.8742 91.8179C35.5897 91.6581 33.8673 89.6767 34.0271 87.3922Z" fill="#EAEDEF"/>
<path d="M33.1599 99.8023C33.3197 97.5179 35.3011 95.7955 37.5856 95.9552L50.6479 96.8688C52.9323 97.0286 54.6547 99.01 54.4949 101.294C54.3352 103.579 52.3537 105.301 50.0693 105.142L37.007 104.228C34.7225 104.068 33.0002 102.087 33.1599 99.8023Z" fill="#EAEDEF"/>
<path d="M59.6658 101.656C59.8256 99.3713 61.807 97.6489 64.0914 97.8087L77.1537 98.7222C79.4382 98.882 81.1606 100.863 81.0008 103.148C80.841 105.432 78.8596 107.155 76.5751 106.995L63.5128 106.081C61.2284 105.922 59.506 103.94 59.6658 101.656Z" fill="#EAEDEF"/>
<circle cx="63.6007" cy="49.6007" r="23.6747" transform="rotate(3.24172 63.6007 49.6007)" fill="#B8DCF6"/>
<circle cx="63.5492" cy="49.6468" r="18.8326" transform="rotate(3.24172 63.5492 49.6468)" stroke="white" stroke-width="2.39969"/>
<path d="M55.5421 56.3993L55.7343 53.4919L57.9149 53.636L58.059 51.4554L55.8784 51.3113L56.0802 48.2584L58.2608 48.4026L58.9046 38.6626L66.3186 39.1526C68.7803 39.3153 70.6595 40.0431 71.9562 41.3358C73.2724 42.6298 73.869 44.2072 73.746 46.0679C73.623 47.9287 72.824 49.4138 71.349 50.5233C69.8933 51.6341 67.9347 52.1082 65.473 51.9455L61.4026 51.6764L61.2585 53.857L68.2364 54.3182L68.0442 57.2257L61.0663 56.7645L60.9029 59.2358L57.5593 59.0148L57.7227 56.5435L55.5421 56.3993ZM61.6044 48.6236L65.6748 48.8926C68.5823 49.0848 70.1097 48.0664 70.257 45.8373C70.4044 43.6083 69.0243 42.3976 66.1168 42.2055L62.0464 41.9364L61.6044 48.6236Z" fill="#138BE1"/>
</g>
<defs>
<filter id="filter0_d_5602_7789" x="-0.165663" y="0.115448" width="282.148" height="159.832" filterUnits="userSpaceOnUse" color-interpolation-filters="sRGB">
<feFlood flood-opacity="0" result="BackgroundImageFix"/>
<feColorMatrix in="SourceAlpha" type="matrix" values="0 0 0 0 0 0 0 0 0 0 0 0 0 0 0 0 0 0 127 0" result="hardAlpha"/>
<feOffset dy="3.43773"/>
<feGaussianBlur stdDeviation="9.14435"/>
<feComposite in2="hardAlpha" operator="out"/>
<feColorMatrix type="matrix" values="0 0 0 0 0 0 0 0 0 0 0 0 0 0 0 0 0 0 0.08 0"/>
<feBlend mode="normal" in2="BackgroundImageFix" result="effect1_dropShadow_5602_7789"/>
<feBlend mode="normal" in="SourceGraphic" in2="effect1_dropShadow_5602_7789" result="shape"/>
</filter>
<filter id="filter1_d_5602_7789" x="1.50621" y="-0.626373" width="282.152" height="159.828" filterUnits="userSpaceOnUse" color-interpolation-filters="sRGB">
<feFlood flood-opacity="0" result="BackgroundImageFix"/>
<feColorMatrix in="SourceAlpha" type="matrix" values="0 0 0 0 0 0 0 0 0 0 0 0 0 0 0 0 0 0 127 0" result="hardAlpha"/>
<feOffset dy="3.43773"/>
<feGaussianBlur stdDeviation="9.14435"/>
<feComposite in2="hardAlpha" operator="out"/>
<feColorMatrix type="matrix" values="0 0 0 0 0 0 0 0 0 0 0 0 0 0 0 0 0 0 0.08 0"/>
<feBlend mode="normal" in2="BackgroundImageFix" result="effect1_dropShadow_5602_7789"/>
<feBlend mode="normal" in="SourceGraphic" in2="effect1_dropShadow_5602_7789" result="shape"/>
</filter>
</defs>
</svg>
