<svg width="151" height="166" viewBox="0 0 151 166" fill="none" xmlns="http://www.w3.org/2000/svg">
<path d="M149.831 126.058V107.888C149.831 108.052 149.831 108.38 149.831 108.543C149.831 111.817 149.009 115.091 147.364 118.201C138.977 134.242 110.527 146.027 76.815 146.027C42.9383 146.027 14.4885 134.242 6.26597 118.201C4.62147 115.091 3.79922 111.817 3.79922 108.543V127.858C3.79922 148.483 36.5248 165.342 76.815 165.342C117.105 165.342 149.995 148.483 149.995 127.858L149.831 126.058ZM149.666 108.707C149.666 111.981 148.844 115.254 147.2 118.364C138.813 134.406 110.363 146.191 76.6506 146.191C42.7739 146.191 14.324 134.406 6.10152 118.364C4.45702 115.254 3.63477 111.981 3.63477 108.707C3.63477 88.0824 36.3603 71.2227 76.6506 71.2227C116.447 71.2227 149.009 87.5913 149.666 107.888C149.666 108.216 149.666 108.379 149.666 108.707Z" fill="white" stroke="#1C1D22" stroke-miterlimit="10"/>
<path d="M76.6499 140.627C112.707 140.627 141.937 126.336 141.937 108.708C141.937 91.0796 112.707 76.7891 76.6499 76.7891C40.5931 76.7891 11.3633 91.0796 11.3633 108.708C11.3633 126.336 40.5931 140.627 76.6499 140.627Z" fill="#F6F5F5" stroke="#1C1D22" stroke-miterlimit="10"/>
<path d="M76.649 134.242C105.168 134.242 128.286 122.81 128.286 108.707C128.286 94.6043 105.168 83.1719 76.649 83.1719C48.1305 83.1719 25.0117 94.6043 25.0117 108.707C25.0117 122.81 48.1305 134.242 76.649 134.242Z" fill="white" stroke="#1C1D22" stroke-miterlimit="10"/>
<path d="M25.1777 108.707V128.349M128.288 108.707V128.186" stroke="#1C1D22" stroke-miterlimit="10"/>
<path d="M62.9976 83.498L58.393 93.1555L60.3664 110.015C60.5309 111.816 59.7087 113.616 57.8997 115.09L56.4196 116.072L56.4194 116.072C56.0906 116.235 55.7618 116.399 55.5974 116.399C55.2685 116.563 55.104 116.563 54.7752 116.726C54.4463 116.89 53.9529 116.89 53.624 117.054C53.4595 117.054 53.2951 117.217 52.9662 117.217C52.6373 117.217 52.1439 117.217 51.6506 117.381H51.1572C48.6905 117.381 46.0593 116.726 44.2503 115.09C42.4414 113.616 41.6191 111.816 41.7836 110.015L44.7437 81.2064L43.2636 78.2601C42.277 75.9685 40.7969 74.0042 38.9879 72.3674L36.5212 70.2394C36.3568 70.0757 36.1923 69.7484 36.1923 69.5847C36.8501 69.5847 37.3434 69.421 37.8368 69.2573C40.6324 70.5668 43.0992 72.3674 45.0726 74.8227L45.7304 65.8199C46.1834 65.6696 46.4978 65.3812 46.9282 65.0816C46.9125 65.055 46.8969 65.0283 46.8815 65.0015C46.8565 64.9641 46.8324 64.9257 46.8092 64.8865C46.3551 65.1973 46.0348 65.5006 45.566 65.6562C44.7437 65.9836 43.9214 66.1472 42.9347 66.1472H42.9343C42.441 66.1472 41.7835 66.1472 41.2902 65.9836C40.468 67.4568 39.1524 68.6026 37.6723 69.0936C37.179 69.2573 36.6856 69.421 36.0278 69.421H35.37C33.5611 73.0221 29.7787 75.4774 25.503 75.4774C21.2273 75.4774 17.6094 73.0221 15.8005 69.421H15.1427C13.9915 69.421 12.8404 69.0936 11.8537 68.6025C10.867 69.0936 9.71585 69.421 8.5647 69.421C4.9468 69.421 1.9867 66.4746 1.9867 62.8735C1.9867 62.5461 2.15115 62.0551 2.15115 61.7277V61.2366C2.15115 61.3982 2.19118 61.5199 2.21199 61.6214C2.26005 61.4478 2.15115 61.2062 2.15115 61.073V60.5819C2.15115 59.7635 2.3156 58.945 2.6445 58.2903C2.80895 58.1266 2.80895 57.9629 2.80895 57.9629C2.80895 57.7992 2.9734 57.7993 2.9734 57.6356C2.9734 57.4719 3.13785 57.1445 3.3023 56.9808C2.9734 56.4898 2.80895 55.835 2.80895 55.344C1.6578 54.5255 1 53.216 1 51.5791C1 50.4333 1.49335 49.2875 2.15115 48.4691C2.31498 39.9893 10.3133 32.8093 20.7801 31.2988C20.0445 30.3499 19.7473 29.253 19.7473 28.0083C19.7473 26.3714 20.2406 25.0619 21.2273 23.9161C21.5562 11.1486 34.8767 1 51.3217 1C67.7667 1 81.2516 11.3123 81.416 24.0798C82.2383 25.0619 82.8961 26.3714 82.8961 27.8446C79.6071 26.6988 75.9892 26.044 72.2068 26.044C59.3797 26.044 48.8549 33.0826 46.3882 42.4127C46.3784 42.3932 46.3685 42.3736 46.3586 42.3541C46.0494 43.4744 45.8948 44.7392 45.8948 45.8501C45.0726 46.8322 44.5792 47.9781 44.5792 49.4512C44.5792 50.3985 44.8068 51.2551 45.214 51.9973C44.9105 51.3341 44.7437 50.5895 44.7437 49.7786C44.7437 48.4691 45.237 47.1596 46.0593 46.1775C46.0593 44.868 46.2237 43.7222 46.5527 42.5764C49.0194 33.2462 59.5442 26.2077 72.3713 26.2077C76.1536 26.2077 79.7715 26.8625 83.0605 28.0083C92.2697 31.1183 98.6833 38.1568 98.6833 46.5048C99.3411 47.1596 99.8344 48.3054 99.8344 49.6149V49.9423C99.7826 50.0676 99.7278 50.1913 99.67 50.3132V50.9244C99.67 51.5792 99.67 52.2339 99.3411 52.8887C99.8344 53.8708 100.163 55.0166 100.163 56.1624V56.9808V57.6356C100.163 61.8914 96.7099 65.1652 92.5986 65.1652C91.9408 65.1652 91.283 65.1651 90.6252 65.0015C89.4741 67.2931 87.0073 68.9299 84.0472 68.9299C82.0738 73.0221 77.7981 75.8048 72.8646 75.8048C71.4302 75.8048 69.9958 75.4973 68.7111 75.0313C66.266 77.6372 64.4692 80.4058 62.9976 83.498Z" fill="white"/>
<path d="M42.7703 56.9808C44.4148 56.9808 45.8949 56.4898 47.2105 55.344C47.2105 55.344 47.2104 55.344 47.046 55.1803C46.8815 54.6892 46.7171 54.1982 46.7171 53.7071C45.4015 52.725 44.5792 51.2518 44.5792 49.4512C44.5792 47.9781 45.0726 46.8322 45.8948 45.8501C45.8948 44.7043 46.0593 43.3948 46.3882 42.249C43.0992 35.7016 34.7122 30.9546 25.0097 30.9546C23.6941 30.9546 22.214 31.1183 20.8984 31.282C10.3736 32.7552 2.3156 39.9574 2.15115 48.4691C1.49335 49.2875 1 50.4333 1 51.5791C1 53.216 1.6578 54.5255 2.80895 55.344C2.80895 55.835 2.9734 56.4898 3.3023 56.9808M42.7703 56.9808C42.1125 56.9808 41.6191 56.8171 41.1258 56.8171C39.9746 58.9451 37.8368 60.2546 35.37 60.2546C33.5611 63.8557 29.9432 66.3109 25.503 66.3109C21.2273 66.3109 17.6094 63.8557 15.8005 60.2546C15.636 60.2546 15.4716 60.2546 15.1427 60.2546C13.9915 60.2546 12.8404 59.9272 11.8537 59.4361C10.867 59.9272 9.71585 60.2546 8.5647 60.2546C8.40025 60.2546 8.2358 60.2546 8.2358 60.2546C6.5913 60.0909 4.6179 58.454 3.3023 56.9808M42.7703 56.9808C44.4148 56.9808 45.8948 56.3261 47.046 55.344C47.2104 55.5077 47.2105 55.5076 47.2105 55.6713C47.2105 55.835 47.046 56.1624 47.046 56.1624C46.3882 57.3082 46.0593 58.6177 46.0593 59.9272C46.0593 60.2545 46.0593 60.4182 46.0593 60.7456C46.0593 60.9093 46.0593 61.2367 46.0593 61.4003C46.0593 61.8914 46.0593 62.5461 46.2237 63.0372C46.3882 63.692 46.5526 64.3467 46.8815 64.8378C46.3882 65.1651 46.0593 65.4925 45.566 65.6562C44.7437 65.9836 43.9214 66.1472 42.9347 66.1472C42.4414 66.1472 41.7836 66.1473 41.2902 65.9836C40.468 67.4568 39.1524 68.6026 37.6723 69.0936C37.179 69.2573 36.6856 69.421 36.0278 69.421C35.6989 69.421 35.5345 69.421 35.37 69.421C33.5611 73.0221 29.7787 75.4774 25.503 75.4774C21.2273 75.4774 17.6094 73.0221 15.8005 69.421C15.4716 69.421 15.3071 69.421 15.1427 69.421C13.9915 69.421 12.8404 69.0936 11.8537 68.6025C10.867 69.0936 9.71585 69.421 8.5647 69.421C4.9468 69.421 1.9867 66.4746 1.9867 62.8735C1.9867 62.5461 2.15115 62.0551 2.15115 61.7277C2.3156 61.564 2.15115 61.2367 2.15115 61.073C2.15115 60.9093 2.15115 60.7456 2.15115 60.5819C2.15115 59.7635 2.3156 58.945 2.6445 58.2903C2.80895 58.1266 2.80895 57.9629 2.80895 57.9629C2.80895 57.7992 2.9734 57.7993 2.9734 57.6356C2.9734 57.4719 3.13785 57.1445 3.3023 56.9808M62.9976 83.498L58.393 93.1555L60.3664 110.015C60.5309 111.816 59.7087 113.616 57.8997 115.09C57.4064 115.417 56.913 115.744 56.4196 116.072C56.0907 116.235 55.7618 116.399 55.5974 116.399C55.2685 116.563 55.104 116.563 54.7751 116.726C54.4462 116.89 53.9529 116.89 53.624 117.054C53.4595 117.054 53.2951 117.217 52.9662 117.217C52.6373 117.217 52.1439 117.217 51.6506 117.381C51.4861 117.381 51.3217 117.381 51.1572 117.381C48.6905 117.381 46.0593 116.726 44.2503 115.09C42.4414 113.616 41.6191 111.816 41.7836 110.015L44.7437 81.2064L43.2636 78.2601C42.2769 75.9685 40.7969 74.0042 38.988 72.3674L36.5212 70.2394C36.3568 70.0757 36.1923 69.7484 36.1923 69.5847C36.8501 69.5847 37.3434 69.421 37.8368 69.2573C40.6324 70.5668 43.0992 72.3674 45.0726 74.8227L45.7304 65.8199C46.2237 65.6562 46.5526 65.3288 47.046 65.0015C48.3616 67.2931 50.8283 68.9299 53.624 68.9299C54.7751 68.9299 55.9263 68.6026 56.913 68.1115L57.5708 78.9148L58.0641 78.0964C59.7086 75.6411 61.6821 73.5132 63.8199 71.7126C65.1355 73.1858 66.78 74.3316 68.7534 74.9864C66.2866 77.6053 64.4777 80.388 62.9976 83.498ZM75.0025 64.8378C74.6736 65.0015 74.5091 65.0015 74.1802 65.1652C74.838 65.1652 75.4958 65.0015 75.9892 64.8378C75.8247 64.6741 75.3314 64.6741 75.0025 64.8378ZM47.3749 55.1803C47.3749 55.344 47.3749 55.344 47.3749 55.1803ZM81.416 24.0798C81.2516 11.3123 67.7667 1 51.3217 1C34.8767 1 21.5562 11.1486 21.2273 23.9161C20.2406 25.0619 19.7473 26.3714 19.7473 28.0083C19.7473 29.3178 20.0762 30.4636 20.8984 31.4457C22.214 31.282 23.6941 31.1183 25.0097 31.1183C34.7122 31.1183 43.0992 35.8652 46.3882 42.4127C48.855 33.0825 59.3797 26.044 72.2068 26.044C75.9892 26.044 79.6071 26.6988 82.8961 27.8446C82.8961 26.3714 82.2383 25.0619 81.416 24.0798ZM47.2105 55.5076H47.3749C47.5393 55.5076 47.5393 55.344 47.5393 55.344L47.7038 55.5076C48.0327 55.835 48.3616 56.1624 48.6905 56.4897C49.0194 56.6534 49.3483 56.9808 49.6772 57.1445C50.8284 57.7992 52.1439 58.2903 53.624 58.2903C54.9396 58.2903 56.2552 57.9629 57.4063 57.3082C58.5575 57.9629 59.8731 58.2903 61.1887 58.2903C61.3532 58.2903 61.682 58.2903 61.8465 58.2903C63.8199 62.3825 68.0956 65.1652 73.0291 65.1652C73.5224 65.1652 73.8513 65.1652 74.3447 65.1652C74.6736 65.0015 74.838 65.0015 75.1669 64.8378C75.6603 64.6741 75.9892 64.6741 76.3181 64.8378C79.936 63.8556 82.7316 61.4003 84.3761 58.2903C87.1718 58.2903 89.6385 56.6534 90.9541 54.3618C91.6119 54.5255 92.2697 54.6892 92.9275 54.6892C96.0521 54.6892 98.6833 52.7249 99.8344 49.9423C99.8344 50.106 99.8344 50.2697 99.8344 50.4334C99.8344 50.106 99.8344 49.9423 99.8344 49.6149C99.8344 48.3054 99.3411 47.1596 98.6833 46.5048C98.6833 38.1568 92.2697 31.1183 83.0605 28.0083C79.7715 26.8625 76.1536 26.2077 72.3713 26.2077C59.5442 26.2077 49.0194 33.2462 46.5526 42.5764C46.2237 43.7222 46.0593 44.868 46.0593 46.1775C45.237 47.1596 44.7437 48.4691 44.7437 49.7786C44.7437 51.5791 45.5659 53.0523 46.8815 54.0344C46.8815 54.5255 47.046 55.0165 47.2105 55.5076ZM2.15115 61.8914C2.15115 61.7277 2.15115 61.564 2.15115 61.2366C2.15115 61.564 2.3156 61.7277 2.15115 61.8914ZM100.163 56.9808C100.163 56.8171 100.163 56.4898 100.163 56.1624C100.163 55.0166 99.8344 53.8708 99.3411 52.8887C99.67 52.2339 99.67 51.5792 99.67 50.9244C99.67 50.7607 99.67 50.4334 99.67 50.2697C99.67 50.106 99.67 49.9423 99.67 49.7786C98.5188 52.5613 95.8876 54.5255 92.7631 54.5255C92.1053 54.5255 91.4475 54.3618 90.7897 54.1981C89.4741 56.4897 87.0073 58.1266 84.2117 58.1266C82.5672 61.2366 79.7715 63.692 76.1536 64.6741C75.4958 64.8378 74.838 65.0015 74.3447 65.0015C73.8513 65.0015 73.5224 65.0015 73.0291 65.0015C68.0956 65.0015 63.8199 62.2188 61.8465 58.1266C61.682 58.1266 61.3532 58.1266 61.1887 58.1266C59.8731 58.1266 58.5575 57.7992 57.4063 57.1445C56.2552 57.7992 54.9396 58.1266 53.624 58.1266C52.1439 58.1266 50.8284 57.6356 49.6772 56.9808C49.3483 56.8171 49.0194 56.4897 48.6905 56.326C48.3616 55.9987 48.0327 55.6713 47.7038 55.344L47.5393 55.1803C47.5393 55.1803 47.5393 55.344 47.3749 55.344C47.3749 55.344 47.046 56.1624 47.046 56.326C46.3882 57.4719 46.0593 58.7814 46.0593 60.0909C46.0593 60.2546 46.0593 60.5819 46.0593 60.9093C46.0593 61.073 46.0593 61.4003 46.0593 61.564C46.0593 62.2188 46.0593 62.7098 46.2237 63.2009C46.3882 63.8556 46.5526 64.5104 46.8815 65.0015C48.1971 67.2931 50.6639 68.9299 53.4595 68.9299C54.6107 68.9299 55.7618 68.6026 56.7485 68.1115C56.913 68.1115 57.0774 67.9478 57.2419 67.7841C58.393 68.4388 59.5442 68.7662 61.0242 68.7662C61.3531 68.7662 61.5176 68.7662 61.682 68.7662C62.1754 69.912 62.9976 70.8942 63.6554 71.7126C64.971 73.1858 66.6156 74.3316 68.589 74.9864C69.9046 75.4774 71.3846 75.8048 72.8646 75.8048C77.7981 75.8048 82.0738 73.0221 84.0472 68.9299C87.0073 68.9299 89.4741 67.2931 90.6252 65.0015C91.283 65.1651 91.9408 65.1652 92.5986 65.1652C96.7099 65.1652 100.163 61.8914 100.163 57.6356C100.163 57.4719 100.163 57.3082 100.163 56.9808Z" stroke="#138BE1" stroke-miterlimit="10" stroke-linecap="round" stroke-linejoin="round"/>
<path d="M106.586 111.159V83.3326V111.159ZM131.747 72.5293V100.52L106.75 111.159L81.7539 100.52V72.5293" fill="white"/>
<path d="M106.586 111.159V83.3326M131.747 72.5293V100.52L106.75 111.159L81.7539 100.52V72.5293" stroke="#1C1D22" stroke-miterlimit="10" stroke-linecap="round" stroke-linejoin="round"/>
<path d="M131.741 72.5293L106.58 83.1689L81.584 72.5293L106.745 61.8896L131.741 72.5293Z" fill="white" stroke="#1C1D22" stroke-miterlimit="10" stroke-linecap="round" stroke-linejoin="round"/>
<path d="M104.61 61.89C104.61 60.7442 105.596 59.9258 106.583 59.9258C107.57 59.9258 108.556 60.9079 108.556 61.89C108.556 62.8722 107.57 63.8542 106.583 63.8542C105.596 63.8542 104.61 63.0358 104.61 61.89ZM131.579 74.6576C132.731 74.6576 133.553 73.6754 133.553 72.6933C133.553 71.7112 132.566 70.7291 131.579 70.7291C130.593 70.7291 129.606 71.7112 129.606 72.6933C129.606 73.6754 130.428 74.6576 131.579 74.6576ZM81.9156 74.8213C83.0667 74.8213 83.889 73.8391 83.889 72.857C83.889 71.7112 82.9023 70.8928 81.9156 70.8928C80.9289 70.8928 79.9422 71.8749 79.9422 72.857C79.7777 73.8391 80.7644 74.8213 81.9156 74.8213ZM131.744 102.484C132.895 102.484 133.717 101.502 133.717 100.52C133.717 99.5379 132.731 98.5558 131.744 98.5558C130.593 98.5558 129.771 99.5379 129.771 100.52C129.771 101.502 130.593 102.484 131.744 102.484ZM81.7511 102.648C82.9023 102.648 83.889 101.666 83.889 100.52C83.889 99.3742 82.9023 98.3921 81.7511 98.3921C80.6 98.3921 79.6133 99.3742 79.6133 100.52C79.6133 101.666 80.6 102.648 81.7511 102.648ZM106.748 85.2972C107.899 85.2972 108.721 84.3151 108.721 83.3329C108.721 82.1871 107.734 81.3687 106.748 81.3687C105.596 81.3687 104.774 82.3508 104.774 83.3329C104.774 84.3151 105.596 85.2972 106.748 85.2972ZM106.748 113.124C107.899 113.124 108.721 112.142 108.721 111.16C108.721 110.178 107.734 109.195 106.748 109.195C105.596 109.195 104.774 110.178 104.774 111.16C104.774 112.142 105.596 113.124 106.748 113.124Z" fill="#1C1D22"/>
<path d="M84.2118 126.22V106.25V126.22ZM84.2118 106.25L66.4512 98.7206V118.69L84.3762 126.22L102.301 118.69V98.7206L84.2118 106.25ZM84.2118 91.0273L66.4512 98.7206L84.3762 106.25L102.301 98.7206L84.2118 91.0273Z" fill="white"/>
<path d="M84.2118 126.22V106.25M84.2118 106.25L66.4512 98.7206M84.2118 106.25L102.301 98.7206M66.4512 98.7206V118.69L84.3762 126.22L102.301 118.69V98.7206M66.4512 98.7206L84.2118 91.0273L102.301 98.7206M66.4512 98.7206L84.3762 106.25L102.301 98.7206" stroke="#1C1D22" stroke-miterlimit="10" stroke-linecap="round" stroke-linejoin="round"/>
<path d="M82.0751 106.25C82.0751 105.104 83.0618 104.122 84.2129 104.122C85.3641 104.122 86.3508 105.104 86.3508 106.25C86.3508 107.396 85.3641 108.378 84.2129 108.378C83.0618 108.378 82.0751 107.56 82.0751 106.25ZM84.3774 128.184C85.5285 128.184 86.5152 127.202 86.5152 126.056C86.5152 124.91 85.5285 123.928 84.3774 123.928C83.2262 123.928 82.2395 124.91 82.2395 126.056C82.2395 127.202 83.2262 128.184 84.3774 128.184ZM84.2129 93.1552C85.3641 93.1552 86.3508 92.1731 86.3508 91.0273C86.3508 89.8815 85.3641 88.8994 84.2129 88.8994C83.0618 88.8994 82.0751 89.8815 82.0751 91.0273C82.0751 92.1731 83.0618 93.1552 84.2129 93.1552ZM66.6168 100.849C67.7679 100.849 68.7546 99.8664 68.7546 98.7206C68.7546 97.5748 67.7679 96.5927 66.6168 96.5927C65.4656 96.5927 64.4789 97.5748 64.4789 98.7206C64.4789 99.8664 65.3012 100.849 66.6168 100.849ZM102.138 100.849C103.289 100.849 104.276 99.8664 104.276 98.7206C104.276 97.5748 103.289 96.5927 102.138 96.5927C100.987 96.5927 100 97.5748 100 98.7206C100 99.8664 100.987 100.849 102.138 100.849ZM66.4523 120.818C67.6035 120.818 68.5902 119.836 68.5902 118.69C68.5902 117.545 67.6035 116.562 66.4523 116.562C65.3012 116.562 64.3145 117.545 64.3145 118.69C64.3145 119.836 65.1367 120.818 66.4523 120.818ZM102.138 120.818C103.289 120.818 104.276 119.836 104.276 118.69C104.276 117.545 103.289 116.562 102.138 116.562C100.987 116.562 100 117.545 100 118.69C100 119.836 100.987 120.818 102.138 120.818Z" fill="#1C1D22"/>
</svg>
