<svg width="263" height="219" viewBox="0 0 263 219" fill="none" xmlns="http://www.w3.org/2000/svg">
<g clip-path="url(#clip0_3437_35473)">
<path d="M143.514 205.985C143.514 205.985 40.8783 143.662 41.1509 141.688C41.4236 139.741 46.0591 135.601 46.0591 135.601C46.0591 135.601 100.513 104.81 103.212 104.344C105.912 103.85 109.947 102.342 120.527 108.84C131.107 115.339 210.756 163.87 210.756 163.87C210.756 163.87 211.629 168.23 210.429 168.778C209.202 169.326 143.514 205.985 143.514 205.985Z" fill="white"/>
<path d="M216.343 93.1566L214.925 157.07C214.843 159.785 214.898 162.115 213.344 162.965L221.033 158.715C222.587 157.865 223.596 155.973 223.651 153.259L225.423 89.318C225.587 83.8616 221.933 77.144 217.27 74.265L127.559 19.0981C125.214 17.6724 123.06 17.4804 121.506 18.3578L113.816 22.6078C115.398 21.7303 116.516 22.9916 118.861 24.4448L209.417 79.4472L215.034 87.0148L216.343 93.1566Z" fill="#F6F5F5"/>
<path d="M111.093 49.122L111.011 28.9691C111.174 23.5675 114.583 21.2644 119.218 24.1159L208.875 80.3795C213.074 82.6827 217.11 88.3859 216.946 95.2954L214.928 157.07C214.765 162.472 211.574 164.446 206.966 161.594L117.991 106.894C113.383 104.069 108.775 97.3519 108.911 91.9503L111.093 49.122Z" fill="white"/>
<path d="M210.401 93.3491C210.483 90.4427 208.138 86.1105 205.657 84.6025L124.508 34.7275C121.863 33.1097 118.455 34.9468 118.346 38.0726L116.846 92.1701C116.764 95.0765 119.109 99.4087 121.59 100.917L202.739 150.792C205.384 152.409 208.793 150.572 208.902 147.447L210.401 93.3491Z" fill="white"/>
<path d="M197.175 185.421L206.855 180.596C209.2 179.307 210.318 177.113 210.372 175.331L210.618 166.557C210.563 168.339 209.254 169.601 206.909 170.889L151.965 201.407C147.22 204.011 139.64 203.819 135.031 200.968L45.6477 146.103C43.3299 144.677 41.8029 143.416 41.8575 141.633L41.6121 150.407C41.5575 152.217 42.321 154.493 44.6388 155.919L134.459 211.25C139.094 214.101 146.675 214.293 151.392 211.689L184.304 192.578" fill="#F6F5F5"/>
<path d="M118.535 39.4155L117.063 92.142C116.981 95.2952 119.462 99.8742 122.162 101.547L201.265 150.16C204.483 152.135 208.655 149.886 208.737 146.075L210.209 93.3485C210.291 90.1953 207.81 85.6163 205.11 83.9438L126.006 35.3575C122.789 33.3559 118.644 35.6317 118.535 39.4155Z" fill="white" stroke="#138BE1" stroke-miterlimit="10"/>
<path d="M109.564 66.8346L108.91 91.9503C108.801 95.9809 110.682 100.642 113.491 104.124C109.128 103.165 104.083 103.603 100.566 105.55L63.836 125.785M110.955 27.8997C111.091 23.1562 114.172 21.5659 118.181 24.0062L208.628 79.6118C212.5 81.7504 216.508 87.0971 216.345 93.8696C215.772 114.16 215.472 124.963 214.545 158.304C214.409 162.883 211.436 164.72 207.346 162.198L116.899 106.619C112.509 103.905 109.019 97.5163 109.182 92.3616M132.414 21.2917L128.433 18.8515C125.87 17.2886 123.389 17.0144 121.426 18.0837L113.791 22.2788C111.855 23.3482 110.764 25.5691 110.682 28.5303L110.109 49.0671M50.8838 132.942L45.2394 136.04C42.649 137.466 41.2038 139.467 41.122 141.688L40.8766 150.435C40.822 152.683 42.1854 154.794 44.7486 156.357L133.751 211.058C138.604 214.047 146.621 214.266 151.638 211.497L184.605 193.373L197.421 186.299L206.964 181.034C209.555 179.609 211 177.607 211.082 175.386L211.327 166.639C211.327 166.639 211.327 166.639 211.327 166.612C211.355 165.652 211.545 165.077 210.564 163.843C210.618 163.843 210.673 163.87 210.727 163.87C211.709 163.898 212.636 163.678 213.454 163.239L221.089 159.044C223.025 157.975 224.143 155.754 224.225 152.793L225.97 89.3729C226.134 83.6698 222.289 76.5683 217.408 73.5796L142.34 27.4062M211.355 166.201C211.327 166.502 211.246 166.804 211.109 167.106C210.646 168.038 209.555 168.97 207.946 169.847C205.492 171.191 154.201 199.487 151.42 200.995C146.894 203.49 139.64 203.298 135.196 200.584L44.285 144.677C40.2767 142.209 40.304 138.809 44.4214 136.533" stroke="#041C2D" stroke-miterlimit="10" stroke-linecap="round" stroke-linejoin="round"/>
<path d="M113.517 111.033L77.5234 130.994L159.354 182.103L195.375 162.142L113.517 111.033Z" fill="#F6F5F5" stroke="#041C2D" stroke-miterlimit="10" stroke-linecap="round" stroke-linejoin="round"/>
<path d="M78.3945 156.192L93.4736 147.83L132.494 172.178L117.415 180.54L78.3945 156.192Z" fill="#F6F5F5" stroke="#041C2D" stroke-miterlimit="10" stroke-linecap="round" stroke-linejoin="round"/>
<path d="M89.5215 124.331L171.379 175.44" stroke="#041C2D" stroke-miterlimit="10" stroke-linecap="round" stroke-linejoin="round"/>
<path d="M101.631 118.107L183.08 168.969" stroke="#041C2D" stroke-miterlimit="10" stroke-linecap="round" stroke-linejoin="round"/>
<path d="M88.0469 137.437L124.477 118.189" stroke="#041C2D" stroke-miterlimit="10" stroke-linecap="round" stroke-linejoin="round"/>
<path d="M110.492 137.437L134.651 124.66" stroke="#041C2D" stroke-miterlimit="10" stroke-linecap="round" stroke-linejoin="round"/>
<path d="M122.186 144.374L146.372 131.57" stroke="#041C2D" stroke-miterlimit="10" stroke-linecap="round" stroke-linejoin="round"/>
<path d="M133.721 151.394L157.689 138.726" stroke="#041C2D" stroke-miterlimit="10" stroke-linecap="round" stroke-linejoin="round"/>
<path d="M132.768 165.048L169.006 145.882" stroke="#041C2D" stroke-miterlimit="10" stroke-linecap="round" stroke-linejoin="round"/>
<path d="M168.898 160.113L181.496 153.45" stroke="#041C2D" stroke-miterlimit="10" stroke-linecap="round" stroke-linejoin="round"/>
<path d="M145.26 172.973L157.285 166.611" stroke="#041C2D" stroke-miterlimit="10" stroke-linecap="round" stroke-linejoin="round"/>
<path d="M145.04 101.904L146.076 61.5704C146.076 61.0495 146.649 60.7479 147.085 61.0221L199.194 92.0877C199.794 92.4441 200.148 93.1296 200.094 93.8425L197.149 134.011C197.094 134.724 196.304 135.135 195.704 134.752L146.376 104.399C145.504 103.878 145.013 102.918 145.04 101.904Z" fill="white" stroke="#041C2D" stroke-miterlimit="10"/>
<path d="M145.641 64.7234L199.522 97.1051" stroke="#041C2D" stroke-miterlimit="10"/>
<path d="M196.932 90.964L196.469 95.2688" stroke="#041C2D" stroke-miterlimit="10"/>
<path d="M156.137 82.2992C156.164 82.2717 158.127 81.2847 158.891 80.7363C159.845 80.0508 161.209 80.1331 162.599 80.9556C165.299 82.5185 167.48 86.3297 167.48 89.4555C167.48 90.9361 166.989 92.0603 166.089 92.6361C165.926 92.7458 165.626 92.9103 165.462 93.0199C167.507 95.5151 168.789 98.7505 168.789 101.465V107.47C168.789 107.497 168.762 107.552 168.734 107.579L165.817 109.225C165.817 109.225 165.19 99.765 164.699 98.6957C164.208 97.6263 162.19 94.5554 162.19 94.5554C162.19 94.5554 167.207 92.17 161.699 84.7394C158.127 79.8315 156.137 82.2992 156.137 82.2992Z" fill="#F6F5F5"/>
<path d="M165.844 109.389L168.762 107.744C168.789 107.717 168.816 107.689 168.816 107.634V101.63C168.816 98.9151 167.535 95.707 165.49 93.1845C165.653 93.1022 165.953 92.9103 166.117 92.8006C167.017 92.2248 167.507 91.1007 167.507 89.62C167.507 86.4943 165.326 82.683 162.627 81.1202C161.209 80.2976 159.872 80.2154 158.918 80.9008C158.155 81.4218 156.219 82.4363 156.164 82.4637" stroke="#138BE1" stroke-miterlimit="10" stroke-linecap="round" stroke-linejoin="round"/>
<path d="M156.163 82.4912C155.263 83.0121 154.772 84.1089 154.772 85.5621C154.772 87.3443 155.508 89.483 156.763 91.2652C156.79 91.2926 156.79 91.3475 156.763 91.3749C156.736 91.4023 156.708 91.4297 156.654 91.4297C155.699 91.3749 154.854 91.6765 154.227 92.2523C153.409 93.0475 152.945 94.3087 152.945 95.9264V101.959L165.679 109.362V103.494C165.679 100.697 164.343 97.3796 162.162 94.8297C162.135 94.8023 162.135 94.7474 162.135 94.72C162.135 94.6926 162.189 94.6652 162.216 94.6378C163.552 94.391 164.316 93.1297 164.316 91.2926C164.316 88.1943 162.135 84.4105 159.462 82.8476C158.699 82.4089 157.963 82.1896 157.308 82.1896C156.926 82.1621 156.517 82.2718 156.163 82.4912Z" fill="white" stroke="#138BE1" stroke-miterlimit="10" stroke-linecap="round" stroke-linejoin="round"/>
<path d="M162.789 94.7474L165.57 93.1571" stroke="#138BE1" stroke-miterlimit="10" stroke-linecap="round" stroke-linejoin="round"/>
<path d="M175.908 94.007C175.935 93.9796 177.899 92.9925 178.662 92.4442C179.617 91.7587 180.98 91.8409 182.371 92.6635C185.07 94.2264 187.252 98.0376 187.252 101.163C187.252 102.644 186.761 103.768 185.861 104.344C185.697 104.454 185.397 104.618 185.234 104.728C187.279 107.223 188.56 110.458 188.56 113.173V119.178C188.56 119.205 188.533 119.26 188.506 119.287L185.588 120.932C185.588 120.932 184.961 111.473 184.47 110.404C183.979 109.334 181.962 106.263 181.962 106.263C181.962 106.263 186.979 103.878 181.471 96.4473C177.899 91.5393 175.908 94.007 175.908 94.007Z" fill="#F6F5F5"/>
<path d="M185.616 120.905L188.533 119.26C188.561 119.233 188.588 119.205 188.588 119.15V113.146C188.588 110.431 187.306 107.223 185.261 104.7C185.425 104.618 185.725 104.426 185.888 104.317C186.788 103.741 187.279 102.617 187.279 101.136C187.279 98.0103 185.098 94.199 182.398 92.6362C180.98 91.8136 179.644 91.7313 178.69 92.4168C177.926 92.9378 175.99 93.9523 175.936 93.9797" stroke="#041C2D" stroke-miterlimit="10" stroke-linecap="round" stroke-linejoin="round"/>
<path d="M182.561 106.263L185.369 104.673" stroke="#041C2D" stroke-miterlimit="10" stroke-linecap="round" stroke-linejoin="round"/>
<path d="M175.934 94.007C175.035 94.528 174.544 95.6248 174.544 97.078C174.544 98.8602 175.28 100.999 176.534 102.781C176.562 102.809 176.562 102.863 176.534 102.891C176.507 102.918 176.48 102.946 176.425 102.946C175.471 102.891 174.626 103.192 173.998 103.768C173.18 104.563 172.717 105.825 172.717 107.442V113.474L185.451 120.878V115.01C185.451 112.213 184.115 108.896 181.933 106.346C181.906 106.318 181.906 106.263 181.906 106.236C181.906 106.208 181.961 106.181 181.988 106.154C183.324 105.907 184.087 104.646 184.087 102.809C184.087 99.7102 181.906 95.9264 179.234 94.3635C178.47 93.9248 177.734 93.7054 177.08 93.7054C176.725 93.678 176.316 93.7877 175.934 94.007Z" fill="white" stroke="#041C2D" stroke-miterlimit="10" stroke-linecap="round" stroke-linejoin="round"/>
<path d="M137.65 67.1909C137.65 70.865 136.587 73.5795 134.869 74.9779C134.569 75.2246 134.269 75.4166 133.942 75.5811L133.397 75.8279L129.552 77.1714C128.707 77.4182 127.78 77.4456 126.798 77.1988V81.8874L123.171 83.1761L117.909 72.4828L99.2847 61.762C94.1584 58.8007 90.0137 50.575 90.0137 43.3365C90.0137 39.7172 91.0498 37.0301 92.7132 35.6043C93.2313 35.1656 93.8312 34.8366 94.4583 34.6447L97.376 33.6302C97.6759 33.4931 98.0031 33.3834 98.3303 33.3011C99.6665 32.9995 101.221 33.2737 102.884 34.206L128.189 48.5735C133.424 51.5073 137.65 59.8701 137.65 67.1909Z" fill="white"/>
<path d="M97.3782 33.6026C97.6781 33.4655 98.0053 33.3558 98.3325 33.2735C99.6686 32.9719 101.223 33.2461 102.886 34.1784L128.191 48.5459C133.399 51.5071 137.653 59.8425 137.653 67.1633C137.653 70.8375 136.589 73.5519 134.871 74.9503C134.571 75.1971 134.271 75.389 133.944 75.5535L133.399 75.8003L129.554 77.1438C129.554 77.1438 133.317 76.2116 133.862 70.7278C134.408 65.244 132.963 58.1425 128.382 53.0974C123.801 48.0523 98.4416 35.0284 98.4416 35.0284L95.0059 34.4251L97.3782 33.6026Z" fill="#F6F5F5"/>
<path d="M123.17 83.1482L126.797 81.8595V77.1709C126.088 77.0064 125.351 76.7048 124.588 76.2661L123.17 75.6628V83.1482Z" fill="#F6F5F5"/>
<path d="M134.024 68.452C134.024 71.989 133.042 74.6212 131.461 76.0744C131.406 76.1293 131.324 76.1841 131.27 76.239C130.752 76.6502 130.179 76.9793 129.552 77.1438C128.707 77.3905 127.78 77.418 126.798 77.1712C126.089 77.0067 125.353 76.7051 124.589 76.2664L123.826 75.8277L123.171 75.4438V83.1211L117.909 72.4277L99.2847 61.7069C94.1584 58.7457 90.0137 50.52 90.0137 43.2814C90.0137 39.6621 91.0498 36.9751 92.7132 35.5493C93.2313 35.1106 93.8312 34.7816 94.4583 34.5896C95.0037 34.4251 95.5763 34.3703 96.1762 34.4251C96.667 34.4525 97.1578 34.5622 97.6759 34.7267C97.8123 34.7541 97.9213 34.809 98.0577 34.8638C98.1667 34.9186 98.3031 34.9735 98.4121 35.0283H98.4394C98.7121 35.138 98.9848 35.2751 99.2574 35.4396L124.562 49.8071C129.797 52.7958 134.024 61.1311 134.024 68.452Z" stroke="#041C2D" stroke-miterlimit="10" stroke-linecap="round" stroke-linejoin="round"/>
<path d="M126.797 77.1986V81.8872L123.17 83.1485" stroke="#041C2D" stroke-miterlimit="10" stroke-linecap="round" stroke-linejoin="round"/>
<path d="M97.377 33.6026C97.6769 33.4655 98.0041 33.3558 98.3313 33.2735C99.6674 32.9719 101.222 33.2461 102.885 34.1784L128.19 48.5459C133.398 51.5071 137.651 59.8425 137.651 67.1633C137.651 70.8375 136.588 73.5519 134.87 74.9503C134.57 75.1971 134.27 75.389 133.943 75.5535L133.398 75.8003L129.553 77.1438" stroke="#041C2D" stroke-miterlimit="10" stroke-linecap="round" stroke-linejoin="round"/>
<path d="M98.3271 33.2737L97.4 33.6027H97.3727L94.4551 34.6172" stroke="#041C2D" stroke-miterlimit="10" stroke-linecap="round" stroke-linejoin="round"/>
<path d="M119.217 58.8555C119.217 63.5441 115.645 65.6005 111.228 63.4619C106.81 61.3232 103.211 55.7846 103.211 51.0959C103.211 46.4073 106.81 44.3235 111.228 46.4896C115.618 48.6282 119.217 54.1668 119.217 58.8555Z" fill="white" stroke="#138BE1" stroke-miterlimit="10" stroke-linecap="round" stroke-linejoin="round"/>
<path d="M113.518 53.0151C113.518 54.3587 112.482 54.9619 111.228 54.3312C109.946 53.728 108.938 52.1377 108.938 50.7668C108.938 49.3958 109.974 48.82 111.228 49.4507C112.482 50.0813 113.518 51.6716 113.518 53.0151Z" fill="white" stroke="#138BE1" stroke-miterlimit="10" stroke-linecap="round" stroke-linejoin="round"/>
<path d="M116.136 60.3907C116.245 60.5826 116.191 60.8294 116.027 60.9665C114.855 61.8439 113.137 61.9261 111.201 60.9665C109.21 60.0068 107.438 58.1697 106.265 56.0859C106.156 55.894 106.211 55.6198 106.429 55.5101C107.629 54.7698 109.347 54.7698 111.228 55.6746C113.164 56.6068 114.937 58.3617 116.136 60.3907Z" fill="white" stroke="#138BE1" stroke-miterlimit="10" stroke-linecap="round" stroke-linejoin="round"/>
<path d="M55.053 41.6088L51.6445 40.4846L53.0079 37.1943L57.7798 34.9734L61.1882 36.0701L59.8249 39.3878L55.053 41.6088Z" fill="white" stroke="#041C2D" stroke-miterlimit="10" stroke-linecap="round" stroke-linejoin="round"/>
<path d="M59.7289 39.5293L55.1465 41.6501L79.3045 94.4288L83.8869 92.308L59.7289 39.5293Z" fill="#F6F5F5" stroke="#041C2D" stroke-miterlimit="10"/>
<path d="M83.9311 92.1143L85.2127 88.5773L61.1898 36.0701L59.9082 39.6071L83.9311 92.1143Z" fill="white" stroke="#041C2D" stroke-miterlimit="10" stroke-linecap="round" stroke-linejoin="round"/>
<path d="M79.2143 94.4446L75.6967 93.1285L51.6738 40.6487L55.1914 41.9648L79.2143 94.4446Z" fill="white" stroke="#041C2D" stroke-miterlimit="10" stroke-linecap="round" stroke-linejoin="round"/>
<path d="M56.6319 38.9922C57.4116 38.6313 57.8498 37.915 57.6105 37.3923C57.3713 36.8696 56.5452 36.7384 55.7654 37.0992C54.9856 37.4601 54.5475 38.1764 54.7867 38.6992C55.026 39.2219 55.8521 39.3531 56.6319 38.9922Z" fill="#041C2D"/>
<path d="M75.6934 93.1289L84.719 100.45L86.4096 99.6546L85.2098 88.5774L83.8737 92.3338L79.2109 94.445L75.6934 93.1289Z" fill="white" stroke="#041C2D" stroke-miterlimit="10" stroke-linecap="round" stroke-linejoin="round"/>
<path d="M84.8574 100.614C84.8574 100.614 87.2024 104.617 87.6387 104.343C87.9932 104.123 86.548 99.8186 86.548 99.8186L84.8574 100.614Z" fill="#041C2D"/>
<path d="M206.242 15.1741L207.769 11.2532L202.643 14.0773L205.724 15.4757L206.242 15.1741Z" fill="#F6F5F5"/>
<path d="M232.884 31.2141L230.839 24.0304L232.802 21.782L230.348 17.3127L227.185 17.724L221.895 12.0209L221.268 7.79836L217.723 5.79678L216.741 9.14189L211.56 8.62092L208.888 5.02905L206.352 5.96129L208.207 10.6773L205.943 15.5031L202.426 14.2692L202.453 18.245L205.889 21.0143L208.534 28.2803L206.161 30.6931L208.916 35.1899L211.67 34.7786L216.85 40.0704L217.914 45.0332L221.159 46.9252L222.059 43.3059L227.13 43.7171L230.212 47.638L232.611 46.3768L230.675 41.8526L232.938 37.0818L236.456 38.1785L236.483 34.477L232.884 31.2141ZM227.185 34.1479C226.83 34.8334 226.64 35.4366 225.767 35.6011C225.085 35.7382 224.376 35.5189 223.749 35.2173C221.159 33.9834 219.359 31.5706 217.668 29.24C217.314 28.7464 216.959 28.2529 216.687 27.7045C216.496 27.3481 216.36 26.9642 216.223 26.5803C215.651 25.0723 215.105 23.5094 214.86 21.9191C214.805 21.5352 214.751 21.1514 214.751 20.7675C214.778 20.4111 214.833 20.0272 214.914 19.6707C215.078 18.903 215.242 18.1353 215.405 17.3676C215.569 16.6273 215.814 15.7499 216.55 15.5031C217.041 15.3386 217.532 15.5305 218.023 15.7224C218.786 16.024 219.55 16.3256 220.313 16.6272C220.668 16.7643 222.413 18.0256 222.822 18.5466C223.749 19.7256 224.594 20.9869 225.385 22.2755C226.121 23.5368 227.921 30.748 228.03 31.7351C228.057 32.7496 227.594 33.3254 227.185 34.1479Z" fill="white"/>
<path d="M232.663 46.4318C232.69 46.4318 232.69 46.4318 232.663 46.4318C232.69 46.4044 232.69 46.4044 232.69 46.4044L236.753 44.0738C237.135 43.8545 237.217 43.3335 236.999 42.8125C235.608 39.6594 235.172 39.0013 235.226 38.8094C235.308 38.6997 235.39 38.5626 235.472 38.4255L235.635 38.4804C235.853 38.5626 236.153 38.5352 236.29 38.4529L240.38 36.0949C240.516 36.0127 240.734 35.8207 240.734 35.382L240.761 31.7079C240.761 31.2692 240.516 30.8031 240.162 30.5289L237.298 28.3079C237.189 28.2257 237.08 28.0612 237.053 27.8692C236.726 25.9499 236.126 23.9758 235.335 22.029C235.281 21.9193 235.281 21.8371 235.308 21.8097L236.999 20.1371C237.298 19.8355 237.298 19.3145 237.026 18.821L234.79 14.9001C234.572 14.4888 234.081 14.1324 233.645 14.242L231.3 14.8178C231.272 14.7904 231.19 14.7356 231.136 14.6533C230.1 13.2824 228.218 11.2808 227.019 10.2663C226.855 10.1292 226.746 9.93727 226.719 9.77276C226.637 9.08728 226.555 8.40181 226.473 7.79859C226.391 7.16796 226.337 6.61958 226.282 6.26314C226.228 5.82444 225.928 5.35831 225.573 5.16638L222.41 3.3019C222.029 3.08255 221.756 3.16479 221.592 3.27447C221.592 3.27447 218.347 5.13896 217.529 5.60508C217.366 5.76959 217.229 5.85185 217.175 6.15346L217.148 6.29055C216.984 6.29055 216.548 6.26314 216.439 6.12604L214.148 2.83577C213.985 2.64384 213.848 2.50675 213.712 2.42449C213.385 2.25998 213.112 2.25997 212.894 2.36965L209.922 3.98737L209.131 4.70026L211.939 8.75825L217.039 9.08728L218.102 5.96152L221.401 8.01794L222.029 12.1308L227.155 17.5871L230.4 17.2855L232.745 21.3984L230.891 23.9757L232.936 31.1595L236.317 33.9288L236.371 37.7675L233.317 37.1643L230.945 41.3319L232.39 45.6093L232.663 46.4318ZM220.911 46.7883C221.156 46.9254 221.429 46.9528 221.647 46.8431C221.647 46.8431 224.319 45.3077 225.791 44.4577C225.982 44.348 226.119 44.1561 226.146 43.9093L226.173 43.7722" fill="#F6F5F5"/>
<path d="M225.601 43.6626L221.892 43.553L221.129 47.1723L227.046 43.9368L225.601 43.6626Z" fill="#F6F5F5"/>
<path d="M207.77 11.6098L207.634 11.555C207.416 11.4453 207.143 11.4727 206.952 11.5824C206.789 11.6921 202.971 13.8582 202.78 13.9678C202.562 14.1049 202.453 14.3517 202.453 14.6533M230.43 47.6931L232.693 46.4318C232.693 46.4318 232.693 46.4318 232.72 46.4044C232.72 46.4044 232.72 46.4044 232.748 46.4044L236.81 44.0738C237.192 43.8545 237.274 43.3335 237.056 42.8125C235.665 39.6594 235.229 39.0013 235.284 38.8094C235.365 38.6997 235.447 38.5626 235.529 38.4255L235.693 38.4804C235.911 38.5626 236.211 38.5352 236.347 38.4529L240.437 36.0949C240.573 36.0127 240.792 35.8207 240.792 35.382L240.819 31.7079C240.819 31.2692 240.573 30.8031 240.219 30.5289L237.356 28.3079C237.247 28.2257 237.138 28.0612 237.11 27.8692C236.783 25.9499 236.183 23.9758 235.393 22.029C235.338 21.9193 235.338 21.8371 235.365 21.8097L237.056 20.1371C237.356 19.8355 237.356 19.3145 237.083 18.821L234.847 14.9001C234.629 14.4888 234.138 14.1324 233.702 14.242L231.357 14.8178C231.33 14.7904 231.248 14.7356 231.193 14.6533C230.157 13.2824 228.276 11.2808 227.076 10.2663C226.912 10.1292 226.803 9.93727 226.776 9.77276C226.694 9.08728 226.612 8.40181 226.531 7.79859C226.449 7.16796 226.394 6.61958 226.34 6.26314C226.285 5.82444 225.985 5.35831 225.631 5.16638L222.468 3.3019C222.086 3.08255 221.813 3.16479 221.65 3.27447C221.65 3.27447 218.405 5.13896 217.587 5.60508C217.423 5.76959 217.287 5.85185 217.232 6.15346L217.205 6.29055C217.041 6.29055 216.605 6.26314 216.496 6.12604L214.206 2.83577C214.042 2.64384 213.906 2.50675 213.769 2.42449C213.442 2.25998 213.169 2.25997 212.951 2.36965L209.979 3.98737L206.571 5.96152M220.913 46.7883C221.159 46.9254 221.431 46.9528 221.65 46.8431C221.65 46.8431 224.322 45.3077 225.794 44.4577C225.985 44.348 226.122 44.1561 226.149 43.9093L226.176 43.7722" stroke="#041C2D" stroke-miterlimit="10"/>
<path d="M225.847 35.903C225.056 35.7385 224.238 35.4094 223.393 34.9159C218.621 32.1192 214.776 25.4015 214.831 19.9452C214.831 18.1629 215.267 16.7097 216.085 15.6952M236.263 33.9836C236.072 33.8465 233.236 31.653 233.236 31.653C233.045 31.4885 232.745 31.0772 232.664 30.6385C232.336 28.7466 231.764 26.7176 230.919 24.7161C230.837 24.4967 230.782 23.8112 231.028 23.537L232.8 21.7822C232.8 21.7274 232.8 21.6177 232.718 21.4532C232.636 21.2613 230.51 17.5597 230.373 17.3404C230.319 17.2307 230.237 17.1484 230.182 17.0936C229.991 17.1484 227.456 17.7517 227.646 17.6968C227.21 17.7791 226.883 17.5323 226.61 17.2033C225.52 15.7775 223.993 14.0775 222.438 12.7614C222.247 12.6243 221.866 12.0485 221.784 11.6372C221.757 11.2534 221.402 8.45664 221.348 8.07277C221.266 7.88084 221.32 7.63407 221.02 7.46955L217.775 5.57766L217.285 8.59374C217.257 8.84051 217.148 9.03244 216.985 9.14212C216.794 9.27921 216.576 9.30662 216.276 9.25178C214.831 8.78566 213.44 8.64857 212.186 8.81309C211.886 8.86792 211.449 8.70341 211.122 8.26471C211.013 8.10019 208.886 5.0567 208.777 4.89218C208.723 4.80993 208.668 4.7825 208.614 4.72766L206.35 5.98894C206.35 6.04378 206.35 6.12603 206.405 6.20829L208.095 9.96468C208.286 10.4034 208.286 10.8421 208.041 11.1437C207.25 12.1034 206.678 13.3646 206.323 14.8727C206.214 15.3388 205.778 15.613 205.287 15.421C205.096 15.3662 202.615 14.3517 202.424 14.2695L202.396 17.9984C202.396 18.1629 202.506 18.4097 202.669 18.5194L205.696 20.85C205.996 21.0693 206.214 21.4532 206.296 21.8645C206.623 23.7838 207.196 25.7854 208.041 27.8144C208.232 28.2805 208.177 28.7192 207.932 28.9934L206.159 30.7208C206.159 30.7482 206.159 30.8853 206.241 31.0772L208.586 35.1901C208.641 35.2998 208.75 35.382 208.777 35.4643L211.313 34.8336C211.722 34.7514 212.077 35.0256 212.349 35.3546C213.658 37.0546 215.049 38.5626 216.548 39.8239C216.876 40.0981 217.121 40.5368 217.176 40.9206C217.257 41.6061 217.421 42.8948 217.612 44.6222C217.639 44.7867 217.775 45.0335 217.912 45.1157L221.157 47.0076L221.648 43.9641C221.729 43.498 222.111 43.1964 222.656 43.3335C224.102 43.7996 225.492 43.9367 226.719 43.7722C227.128 43.6625 227.537 43.9641 227.783 44.3206L230.21 47.7205C230.264 47.8028 232.609 46.4592 232.609 46.4592C232.609 46.2947 230.809 42.5658 230.809 42.5932C230.755 42.4013 230.51 41.8255 230.864 41.4416C231.682 40.4271 232.255 39.1658 232.582 37.6578C232.691 37.2191 233.127 36.9449 233.645 37.1368L236.481 38.2884C236.481 38.1239 236.508 34.8336 236.508 34.5869C236.536 34.3675 236.427 34.1207 236.263 33.9836Z" stroke="#041C2D" stroke-miterlimit="10" stroke-linecap="round" stroke-linejoin="round"/>
<path d="M219.684 16.6825C215.048 13.9954 211.122 16.2164 211.067 21.563C211.012 26.7452 214.666 33.1338 219.193 35.7935C224.237 38.7273 227.782 35.8483 227.809 30.9129C227.864 25.7033 224.21 19.3421 219.684 16.6825Z" stroke="#041C2D" stroke-miterlimit="10"/>
<path d="M232.883 31.4341L237.982 28.4729" stroke="#041C2D" stroke-miterlimit="10"/>
<path d="M231.109 40.8928L235.472 38.3977" stroke="#041C2D" stroke-miterlimit="10"/>
<path d="M231.109 24.0307L235.854 21.2888" stroke="#041C2D" stroke-miterlimit="10"/>
<path d="M226.771 17.7516L232.061 14.6807" stroke="#041C2D" stroke-miterlimit="10"/>
<path d="M221.975 11.7196L226.419 9.16968" stroke="#041C2D" stroke-miterlimit="10"/>
<path d="M236.241 63.8451L237.421 60.8148L233.459 62.9975L235.84 64.0782L236.241 63.8451Z" fill="#F6F5F5"/>
<path d="M256.831 76.242L255.25 70.69L256.768 68.9524L254.871 65.4983L252.426 65.8161L248.338 61.4084L247.853 58.145L245.114 56.5981L244.355 59.1834L240.351 58.7808L238.286 56.0048L236.326 56.7252L237.759 60.3701L236.01 64.0997L233.291 63.1461L233.312 66.2188L235.967 68.359L238.012 73.9746L236.178 75.8394L238.307 79.3147L240.435 78.9969L244.439 83.0867L245.261 86.9222L247.769 88.3844L248.464 85.5872L252.384 85.9051L254.765 88.9354L256.62 87.9606L255.124 84.4641L256.873 80.7769L259.591 81.6245L259.612 78.7637L256.831 76.242ZM252.426 78.5095C252.152 79.0392 252.005 79.5054 251.33 79.6326C250.804 79.7385 250.256 79.569 249.771 79.3359C247.769 78.3823 246.378 76.5175 245.071 74.7163C244.797 74.3349 244.523 73.9534 244.313 73.5296C244.165 73.2541 244.06 72.9575 243.954 72.6608C243.512 71.4953 243.09 70.2874 242.901 69.0583C242.859 68.7617 242.816 68.465 242.816 68.1683C242.838 67.8928 242.88 67.5962 242.943 67.3207C243.069 66.7273 243.196 66.134 243.322 65.5407C243.449 64.9685 243.638 64.2904 244.207 64.0997C244.587 63.9725 244.966 64.1209 245.345 64.2692C245.935 64.5023 246.526 64.7354 247.116 64.9685C247.39 65.0745 248.738 66.0492 249.054 66.4519C249.771 67.3631 250.424 68.3378 251.035 69.3338C251.604 70.3086 252.995 75.8818 253.08 76.6447C253.101 77.4287 252.742 77.8737 252.426 78.5095Z" fill="white"/>
<path d="M256.66 88.0028C256.681 88.0028 256.681 88.0028 256.66 88.0028C256.681 87.9816 256.681 87.9816 256.681 87.9816L259.821 86.1804C260.116 86.0109 260.179 85.6083 260.01 85.2056C258.936 82.7687 258.598 82.2601 258.641 82.1118C258.704 82.027 258.767 81.921 258.83 81.8151L258.957 81.8575C259.125 81.921 259.357 81.8998 259.462 81.8363L262.624 80.0139C262.729 79.9503 262.897 79.802 262.897 79.4629L262.919 76.6233C262.919 76.2843 262.729 75.924 262.455 75.7121L260.242 73.9956C260.158 73.9321 260.074 73.8049 260.052 73.6566C259.8 72.1732 259.336 70.6475 258.725 69.1429C258.683 69.0582 258.683 68.9946 258.704 68.9734L260.01 67.6808C260.242 67.4477 260.242 67.045 260.031 66.6636L258.303 63.6333C258.135 63.3155 257.755 63.04 257.418 63.1247L255.606 63.5697C255.585 63.5486 255.522 63.5062 255.479 63.4426C254.679 62.3831 253.224 60.8361 252.297 60.0521C252.171 59.9461 252.086 59.7978 252.065 59.6706C252.002 59.1409 251.939 58.6111 251.876 58.1449C251.813 57.6575 251.77 57.2337 251.728 56.9582C251.686 56.6191 251.454 56.2589 251.18 56.1106L248.736 54.6696C248.441 54.5001 248.23 54.5636 248.103 54.6484C248.103 54.6484 245.596 56.0894 244.963 56.4496C244.837 56.5768 244.732 56.6403 244.689 56.8734L244.668 56.9794C244.542 56.9794 244.205 56.9582 244.121 56.8522L242.35 54.3093C242.224 54.161 242.118 54.055 242.013 53.9915C241.76 53.8643 241.549 53.8643 241.381 53.9491L239.084 55.1994L238.473 55.7503L240.643 58.8866L244.584 59.1409L245.406 56.7251L247.956 58.3144L248.441 61.493L252.403 65.71L254.91 65.4769L256.723 68.6556L255.29 70.6475L256.87 76.1995L259.483 78.3398L259.526 81.3065L257.165 80.8403L255.332 84.0613L256.449 87.3671L256.66 88.0028ZM247.577 88.2783C247.766 88.3843 247.977 88.4054 248.146 88.3207C248.146 88.3207 250.211 87.134 251.349 86.4771C251.496 86.3923 251.602 86.244 251.623 86.0533L251.644 85.9473" fill="#F6F5F5"/>
<path d="M251.204 85.8625L248.338 85.7777L247.748 88.5749L252.321 86.0744L251.204 85.8625Z" fill="#F6F5F5"/>
<path d="M237.422 61.0904L237.317 61.048C237.148 60.9633 236.937 60.9845 236.79 61.0692C236.663 61.154 233.713 62.8281 233.565 62.9128C233.397 63.0188 233.312 63.2095 233.312 63.4426M254.934 88.9776L256.684 88.0028C256.684 88.0028 256.684 88.0028 256.705 87.9816C256.705 87.9816 256.705 87.9816 256.726 87.9816L259.866 86.1804C260.161 86.0109 260.224 85.6082 260.055 85.2056C258.981 82.7687 258.644 82.2601 258.686 82.1118C258.749 82.027 258.812 81.921 258.875 81.8151L259.002 81.8575C259.17 81.921 259.402 81.8998 259.508 81.8363L262.669 80.0139C262.774 79.9503 262.943 79.802 262.943 79.4629L262.964 76.6233C262.964 76.2843 262.774 75.924 262.5 75.7121L260.287 73.9956C260.203 73.9321 260.119 73.8049 260.098 73.6566C259.845 72.1732 259.381 70.6475 258.77 69.1429C258.728 69.0582 258.728 68.9946 258.749 68.9734L260.055 67.6808C260.287 67.4477 260.287 67.045 260.077 66.6636L258.348 63.6333C258.18 63.3155 257.801 63.04 257.463 63.1247L255.651 63.5697C255.63 63.5486 255.567 63.5062 255.525 63.4426C254.724 62.3831 253.27 60.8361 252.342 60.0521C252.216 59.9461 252.132 59.7978 252.111 59.6706C252.047 59.1409 251.984 58.6111 251.921 58.1449C251.858 57.6575 251.816 57.2337 251.773 56.9582C251.731 56.6191 251.499 56.2589 251.225 56.1106L248.781 54.6696C248.486 54.5001 248.275 54.5636 248.149 54.6484C248.149 54.6484 245.641 56.0894 245.009 56.4496C244.882 56.5768 244.777 56.6403 244.735 56.8734L244.714 56.9794C244.587 56.9794 244.25 56.9582 244.166 56.8522L242.395 54.3093C242.269 54.161 242.164 54.055 242.058 53.9915C241.805 53.8643 241.595 53.8643 241.426 53.9491L239.129 55.1994L236.495 56.7251M247.58 88.2783C247.769 88.3843 247.98 88.4054 248.149 88.3207C248.149 88.3207 250.214 87.134 251.352 86.4771C251.499 86.3923 251.605 86.244 251.626 86.0533L251.647 85.9473" stroke="#041C2D" stroke-miterlimit="10"/>
<path d="M251.393 79.8654C250.782 79.7382 250.15 79.484 249.497 79.1025C245.809 76.941 242.837 71.7493 242.879 67.5323C242.879 66.1549 243.216 65.0318 243.849 64.2477M259.443 78.382C259.296 78.2761 257.104 76.5808 257.104 76.5808C256.957 76.4537 256.725 76.1358 256.662 75.7967C256.409 74.3346 255.966 72.7664 255.313 71.2195C255.25 71.05 255.208 70.5202 255.397 70.3083L256.767 68.9521C256.767 68.9097 256.767 68.8249 256.704 68.6978C256.641 68.5495 254.997 65.6887 254.891 65.5192C254.849 65.4344 254.786 65.3708 254.744 65.3285C254.596 65.3708 252.637 65.837 252.784 65.7947C252.447 65.8582 252.194 65.6675 251.983 65.4132C251.14 64.3113 249.96 62.9975 248.759 61.9803C248.611 61.8743 248.316 61.4293 248.253 61.1115C248.232 60.8148 247.958 58.6533 247.916 58.3567C247.853 58.2083 247.895 58.0176 247.663 57.8904L245.155 56.4283L244.776 58.7593C244.755 58.95 244.671 59.0983 244.544 59.1831C244.397 59.2891 244.228 59.3102 243.996 59.2679C242.879 58.9076 241.805 58.8017 240.835 58.9288C240.603 58.9712 240.266 58.844 240.013 58.505C239.929 58.3778 238.285 56.0257 238.201 55.8985C238.159 55.8349 238.117 55.8137 238.074 55.7714L236.325 56.7462C236.325 56.7885 236.325 56.8521 236.367 56.9157L237.674 59.8188C237.822 60.1579 237.822 60.4969 237.632 60.73C237.021 61.4717 236.578 62.4465 236.304 63.612C236.22 63.9722 235.883 64.1841 235.503 64.0358C235.356 63.9934 233.438 63.2094 233.291 63.1458L233.27 66.0277C233.27 66.1549 233.354 66.3456 233.48 66.4304L235.819 68.2316C236.051 68.4011 236.22 68.6978 236.283 69.0157C236.536 70.499 236.979 72.046 237.632 73.6141C237.779 73.9743 237.737 74.3134 237.548 74.5253L236.178 75.8603C236.178 75.8815 236.178 75.9875 236.241 76.1358L238.053 79.3144C238.095 79.3992 238.18 79.4628 238.201 79.5263L240.161 79.0389C240.477 78.9754 240.751 79.1873 240.962 79.4416C241.973 80.7554 243.048 81.9209 244.207 82.8957C244.46 83.1076 244.65 83.4466 244.692 83.7433C244.755 84.2731 244.881 85.2691 245.029 86.6041C245.05 86.7312 245.155 86.9219 245.261 86.9855L247.768 88.4477L248.148 86.0955C248.211 85.7353 248.506 85.5022 248.928 85.6081C250.044 85.9684 251.119 86.0743 252.068 85.9472C252.384 85.8624 252.7 86.0955 252.889 86.371L254.765 88.9987C254.807 89.0622 256.62 88.0239 256.62 88.0239C256.62 87.8967 255.229 85.0148 255.229 85.036C255.187 84.8876 254.997 84.4426 255.271 84.1459C255.903 83.3619 256.346 82.3871 256.598 81.2216C256.683 80.8825 257.02 80.6706 257.42 80.819L259.612 81.709C259.612 81.5818 259.633 79.0389 259.633 78.8482C259.654 78.6787 259.57 78.488 259.443 78.382Z" stroke="#041C2D" stroke-miterlimit="10" stroke-linecap="round" stroke-linejoin="round"/>
<path d="M246.629 65.0111C243.046 62.9344 240.011 64.6509 239.969 68.7831C239.927 72.7882 242.751 77.7257 246.249 79.7812C250.148 82.0486 252.888 79.8235 252.909 76.0092C252.951 71.9829 250.127 67.0666 246.629 65.0111Z" stroke="#041C2D" stroke-miterlimit="10"/>
<path d="M256.83 76.412L260.771 74.1234" stroke="#041C2D" stroke-miterlimit="10"/>
<path d="M255.461 83.7227L258.833 81.7943" stroke="#041C2D" stroke-miterlimit="10"/>
<path d="M255.461 70.6898L259.128 68.5707" stroke="#041C2D" stroke-miterlimit="10"/>
<path d="M252.107 65.8371L256.196 63.4637" stroke="#041C2D" stroke-miterlimit="10"/>
<path d="M248.4 61.1756L251.835 59.2048" stroke="#041C2D" stroke-miterlimit="10"/>
</g>
<defs>
<clipPath id="clip0_3437_35473">
<rect width="263" height="219" fill="white"/>
</clipPath>
</defs>
</svg>
