<svg width="363" height="389" viewBox="0 0 363 389" fill="none" xmlns="http://www.w3.org/2000/svg">
<path d="M180.719 250.54L177.762 248.812C175.565 247.526 172.888 247.526 170.691 248.812L144.122 264.282C140.527 266.372 140.527 271.596 144.122 273.725L195.461 303.621C198.138 305.148 199.736 307.921 199.736 311.015C199.736 314.109 198.138 316.882 195.461 318.409L193.264 319.614L178.362 327.731" stroke="#041C2D" stroke-miterlimit="10"/>
<path d="M229.261 367.512L234.655 364.177C235.814 363.494 236.373 362.65 236.373 361.766L236.173 351.761C236.173 352.645 234.615 353.85 233.457 354.533L201.255 373.017C198.977 374.343 195.302 374.343 193.025 373.017L104.65 321.583C103.531 320.94 102.972 320.056 102.972 319.213L102.492 320.498L102.612 329.901C102.612 330.745 103.171 331.629 104.29 332.272L192.465 383.786C194.743 385.112 198.418 385.112 200.695 383.786L221.71 371.852L229.261 367.512Z" fill="#F6F5F5"/>
<path d="M104.927 317.323C102.69 318.649 103.01 320.457 105.247 321.784L193.223 373.177C195.46 374.503 199.096 374.503 201.373 373.177L234.254 354.091C236.491 352.765 236.771 351.197 234.533 349.871L146.558 298.437C144.321 297.111 140.525 296.83 138.248 298.156L104.927 317.323Z" fill="white"/>
<path d="M221.431 372.053L201.255 383.787C198.778 385.233 194.862 385.233 192.385 383.787L104.61 332.473C103.291 331.71 102.612 330.665 102.612 329.54L102.572 320.7C102.572 319.534 103.291 318.49 104.61 317.726L137.73 298.519C140.207 297.072 144.123 297.072 146.6 298.519L234.335 349.752C235.614 350.515 236.333 351.56 236.333 352.685C236.333 352.685 236.333 352.685 236.333 352.725L236.373 361.566C236.373 362.731 235.654 363.776 234.335 364.539L229.261 367.472" stroke="#041C2D" stroke-miterlimit="10" stroke-linecap="round" stroke-linejoin="round"/>
<path d="M104.609 317.646C102.771 318.73 102.771 320.217 104.569 321.302L156.227 351.52L193.503 373.299C195.501 374.464 199.016 374.504 201.134 373.299L234.654 353.81C236.492 352.765 236.332 350.957 234.494 349.872" stroke="#041C2D" stroke-miterlimit="10"/>
<path d="M146.958 312.221C147.198 312.382 147.318 312.583 147.118 312.824L143.682 316.762C143.522 316.963 143.562 317.204 143.842 317.365L149.235 320.499C149.835 320.86 149.315 321.423 148.476 321.343L140.965 320.66C140.606 320.619 140.246 320.74 140.046 320.941L136.61 324.879C136.331 325.2 135.611 325.24 135.212 324.999C135.092 324.919 135.012 324.839 134.972 324.718L133.774 320.338C133.734 320.218 133.654 320.137 133.534 320.057C133.414 319.976 133.254 319.936 133.054 319.896L125.543 319.213C125.344 319.213 125.184 319.133 125.064 319.092C124.664 318.851 124.704 318.449 125.264 318.289L132.016 316.28C132.335 316.199 132.535 315.958 132.455 315.757L131.257 311.377C131.137 310.895 132.136 310.614 132.735 310.935L138.128 314.07C138.408 314.23 138.808 314.27 139.127 314.15L145.879 312.141C146.319 312.02 146.718 312.06 146.958 312.221Z" fill="white" stroke="#041C2D" stroke-miterlimit="10" stroke-linecap="round" stroke-linejoin="round"/>
<path d="M211.522 349.711C211.762 349.872 211.882 350.073 211.682 350.314L208.246 354.252C208.086 354.453 208.126 354.694 208.406 354.855L213.8 357.989C214.399 358.351 213.88 358.913 213.041 358.833L205.53 358.15C205.17 358.109 204.81 358.23 204.611 358.431L201.175 362.369C200.895 362.69 200.176 362.73 199.776 362.489C199.657 362.409 199.577 362.329 199.537 362.208L198.338 357.828C198.298 357.708 198.218 357.627 198.098 357.547C197.979 357.467 197.819 357.426 197.619 357.426L190.108 356.743C189.908 356.743 189.748 356.663 189.628 356.623C189.229 356.382 189.269 355.98 189.828 355.819L196.58 353.81C196.9 353.73 197.1 353.488 197.02 353.288L195.821 348.908C195.701 348.425 196.7 348.144 197.299 348.466L202.693 351.6C202.973 351.761 203.372 351.801 203.692 351.68L210.444 349.671C210.883 349.51 211.243 349.551 211.522 349.711Z" fill="white" stroke="#041C2D" stroke-miterlimit="10" stroke-linecap="round" stroke-linejoin="round"/>
<path d="M189.987 337.214C190.227 337.375 190.347 337.576 190.147 337.817L186.711 341.755C186.551 341.956 186.591 342.197 186.871 342.318L192.265 345.452C192.864 345.813 192.344 346.376 191.505 346.296L183.994 345.613C183.635 345.572 183.275 345.693 183.075 345.894L179.64 349.832C179.36 350.153 178.641 350.193 178.241 349.952C178.121 349.872 178.041 349.792 178.002 349.671L176.803 345.291C176.763 345.171 176.683 345.09 176.563 345.01C176.443 344.929 176.284 344.889 176.084 344.889L168.573 344.206C168.373 344.206 168.213 344.126 168.093 344.086C167.694 343.844 167.734 343.443 168.293 343.282L175.045 341.273C175.365 341.192 175.564 340.951 175.484 340.75L174.286 336.37C174.166 335.888 175.165 335.607 175.764 335.928L181.158 339.063C181.437 339.223 181.837 339.264 182.157 339.143L188.909 337.134C189.348 337.013 189.748 337.054 189.987 337.214Z" fill="white" stroke="#041C2D" stroke-miterlimit="10" stroke-linecap="round" stroke-linejoin="round"/>
<path d="M168.493 324.717C168.733 324.878 168.853 325.079 168.653 325.32L165.217 329.258C165.057 329.459 165.097 329.7 165.377 329.861L170.77 332.995C171.37 333.357 170.85 333.919 170.011 333.839L162.5 333.156C162.141 333.115 161.781 333.236 161.581 333.437L158.145 337.375C157.866 337.696 157.147 337.736 156.747 337.495C156.627 337.415 156.547 337.335 156.507 337.214L155.309 332.834C155.269 332.714 155.189 332.633 155.069 332.553C154.949 332.473 154.789 332.432 154.59 332.392L147.079 331.709C146.879 331.709 146.719 331.629 146.599 331.589C146.2 331.347 146.24 330.946 146.799 330.785L153.551 328.776C153.87 328.695 154.07 328.454 153.99 328.253L152.792 323.873C152.672 323.391 153.671 323.11 154.27 323.431L159.664 326.566C159.943 326.726 160.343 326.767 160.662 326.646L167.414 324.637C167.854 324.516 168.213 324.556 168.493 324.717Z" fill="white" stroke="#041C2D" stroke-miterlimit="10" stroke-linecap="round" stroke-linejoin="round"/>
<path d="M90.4294 64.5344C84.8361 61.2796 82.2791 63.8914 82.2392 70.3609V86.9564L254.834 187.494L254.794 173.47C254.794 167.001 249.92 157.879 244.326 154.624L90.4294 64.5344Z" fill="white"/>
<path d="M83.7551 63.9709C85.5929 62.9262 89.6681 64.1317 92.4648 65.739L248.359 158.079C257.269 165.232 254.272 184.238 254.272 184.238V186.609L254.512 186.448L254.113 309.046C254.113 312.261 252.994 314.471 251.156 315.556L268.935 305.068C270.773 304.023 271.852 301.773 271.891 298.559L272.091 242.222L272.171 219.358L272.291 170.817L272.051 170.978L272.091 156.15C272.091 149.681 267.577 141.845 262.023 138.631L149.277 73.1326L134.695 64.654L112.561 51.7955C109.764 50.148 107.207 49.9873 105.369 51.0722L83.7551 63.9709Z" fill="#F6F5F5"/>
<path d="M254.713 186.972L254.353 309.047C254.353 309.931 254.273 310.775 254.114 311.539C254.114 311.539 253.514 315.637 248.36 317.566C248.36 317.566 245.004 317.686 236.415 312.704C227.825 307.721 93.904 231.936 89.8289 227.154C85.7537 222.373 71.2509 207.344 81.7585 207.425C81.9982 207.425 82.6374 86.5144 82.4377 86.5144L254.713 186.972Z" fill="white"/>
<path d="M272.332 242.263L272.132 298.6C272.132 302.216 270.814 304.948 268.497 306.275L250.758 316.722C250.758 316.722 250.718 316.722 250.718 316.762C248.041 318.329 244.845 317.606 242.168 316.039L92.7455 229.284C86.6727 225.748 81.9583 217.551 81.9983 210.559L82.1581 134.975" stroke="#041C2D" stroke-miterlimit="10" stroke-linecap="round"/>
<path d="M254.713 188.7L254.353 309.047C254.353 309.931 254.273 310.775 254.114 311.539C254.114 311.539 253.514 315.637 248.36 317.566" stroke="#041C2D" stroke-miterlimit="10" stroke-linecap="round"/>
<path d="M149.079 73.2542L261.785 138.712C267.858 142.248 272.572 150.446 272.572 157.437C272.572 160.009 272.412 216.787 272.412 219.359" stroke="#041C2D" stroke-miterlimit="10" stroke-linecap="round"/>
<path d="M82.3979 69.6769L82.8773 65.9801C83.7563 63.328 86.1135 62.7655 88.5905 64.1719L90.8279 65.4577L243.766 154.302C249.959 157.878 254.793 166.317 254.793 173.469L254.753 191.471" stroke="#041C2D" stroke-miterlimit="10" stroke-linecap="round"/>
<path d="M82.2382 119.987C82.2782 110.383 82.398 66.4631 82.398 69.4366C82.398 65.8201 83.6765 63.0877 85.9937 61.7215L103.773 51.2338C106.13 49.8675 109.166 50.1086 112.362 51.957L134.496 64.8156" stroke="#041C2D" stroke-miterlimit="10" stroke-linecap="round"/>
<path d="M82.2383 86.9162L254.713 186.972L272.492 181.426" stroke="#041C2D" stroke-miterlimit="10" stroke-linecap="round"/>
<path d="M234.258 155.427C237.294 157.196 239.611 161.254 239.611 164.75C239.611 168.728 236.455 170.416 233.059 168.407C230.103 166.679 227.785 162.66 227.785 159.205C227.785 155.347 230.822 153.418 234.258 155.427Z" stroke="#041C2D" stroke-miterlimit="10"/>
<path d="M215.961 144.82C218.957 146.548 221.314 150.646 221.314 154.142C221.314 158.12 218.158 159.808 214.762 157.839C211.806 156.111 209.489 152.093 209.489 148.637C209.489 144.619 212.565 142.851 215.961 144.82Z" stroke="#041C2D" stroke-miterlimit="10"/>
<path d="M197.621 134.171C200.617 135.899 202.975 139.998 202.975 143.493C202.975 147.512 199.738 149.119 196.422 147.19C193.466 145.462 191.149 141.444 191.149 137.988C191.149 134.01 194.225 132.202 197.621 134.171Z" stroke="#041C2D" stroke-miterlimit="10"/>
<path d="M105.889 245.839L90.7074 254.639V264.966L107.248 274.65V264.323L122.43 255.523L105.889 245.839Z" fill="white"/>
<path d="M0.774521 199.388C1.57357 213.171 8.00593 228.36 17.4347 240.816C19.8319 244.312 22.7484 247.246 25.7448 250.34C30.7789 255.282 36.3322 259.421 42.0455 262.314C53.0723 267.859 62.7808 267.739 69.333 262.997L76.5245 258.216C83.0367 253.876 86.6724 245.236 86.0332 233.383C84.6748 209.353 66.1768 181.225 44.7223 170.416C33.9751 164.991 24.4664 165.031 17.8742 169.411L10.2832 174.515C13.3196 172.505 16.9153 171.421 21.0304 171.34C18.6732 171.38 16.4759 171.782 14.4782 172.465C5.409 175.559 -0.0644836 185.123 0.774521 199.388Z" fill="white"/>
<path d="M115.878 233.102L115.598 225.266C115.478 223.177 113.88 220.726 112.002 219.761C110.124 218.837 108.726 219.761 108.846 221.851L109.126 229.687C109.246 231.776 110.844 234.227 112.721 235.192C114.599 236.116 115.997 235.192 115.878 233.102Z" fill="white"/>
<path d="M107.247 274.651L132.537 259.984C132.537 259.984 129.98 234.187 129.94 225.347C129.94 216.466 131.498 194.366 131.498 194.366L121.191 201.358C121.191 201.358 121.071 227.717 120.991 229.365C120.911 231.012 122.429 255.564 122.429 255.564L106.568 264.686L107.247 274.651Z" fill="#F6F5F5"/>
<path d="M121.871 200.915C121.352 208.389 121.072 215.662 121.032 222.694C121.032 224.261 121.032 225.828 121.032 227.355C121.072 234.467 121.352 241.419 121.831 248.21C122.031 250.661 122.231 253.112 122.471 255.523L105.93 245.839C104.892 235.271 104.372 223.899 104.492 212.326L121.871 200.915Z" fill="#F6F5F5"/>
<path d="M90.7074 254.639L107.248 264.323L122.43 255.523L105.889 245.839L90.7074 254.639Z" stroke="#041C2D" stroke-miterlimit="10" stroke-linecap="round" stroke-linejoin="round"/>
<path d="M90.7077 254.639V264.966L107.248 274.65V264.323L90.7077 254.639Z" stroke="#041C2D" stroke-miterlimit="10" stroke-linecap="round" stroke-linejoin="round"/>
<path d="M121.871 200.915C121.352 208.389 121.072 215.662 121.032 222.694C121.032 224.261 121.032 225.828 121.032 227.355C121.072 234.467 121.352 241.419 121.831 248.21C122.031 250.661 122.231 253.112 122.471 255.523L105.93 245.839C104.892 235.271 104.372 223.899 104.492 212.326" stroke="#041C2D" stroke-miterlimit="10" stroke-linecap="round" stroke-linejoin="round"/>
<path d="M117.397 268.744L107.249 274.651L107.209 264.324L122.391 255.524C122.151 253.113 121.951 250.702 121.751 248.21C121.272 241.46 120.992 234.508 120.952 227.355C120.952 225.828 120.952 224.261 120.952 222.694C120.992 215.743 121.272 208.59 121.751 201.317" stroke="#041C2D" stroke-miterlimit="10" stroke-linecap="round" stroke-linejoin="round"/>
<path d="M126.345 263.56L132.498 259.984L131.859 254.559C129.661 236.316 129.302 216.385 130.82 195.088" stroke="#041C2D" stroke-miterlimit="10" stroke-linecap="round" stroke-linejoin="round"/>
<path d="M108.846 221.85L109.126 229.685C109.246 231.775 110.844 234.226 112.721 235.19C114.599 236.155 115.997 235.19 115.878 233.101L115.598 225.265C115.478 223.176 113.88 220.724 112.002 219.76C110.124 218.796 108.726 219.76 108.846 221.85Z" stroke="#041C2D" stroke-miterlimit="10" stroke-linecap="round"/>
<path d="M54.8686 176.926L71.7685 166.237C71.7685 166.237 71.2491 164.509 73.4066 163.103C75.564 161.696 103.131 142.489 107.246 141.605C111.361 140.681 126.583 147.793 131.737 156.794C136.891 165.795 142.205 179.658 138.969 186.65C135.732 193.601 104.849 213.01 102.971 213.01C101.094 213.01 83.8741 223.578 83.8741 223.578C83.8741 223.578 78.5605 204.732 73.087 197.218C67.6135 189.664 54.8686 176.926 54.8686 176.926Z" fill="white"/>
<path d="M106.809 203.205C108.048 199.147 109.646 195.731 99.4581 178.131C89.2702 160.531 70.6524 166.679 70.6524 166.679C71.6112 164.75 72.9696 163.223 74.6077 162.219C74.9273 162.018 75.2469 161.857 75.5665 161.696C75.6464 161.656 75.7663 161.616 75.8462 161.576C75.8862 161.576 75.8861 161.536 75.9261 161.536C76.046 161.496 76.1259 161.455 76.2457 161.415C76.3656 161.375 76.4854 161.335 76.5654 161.295C76.7651 161.214 76.9649 161.174 77.1646 161.094C77.2445 161.054 77.3244 161.054 77.4043 161.013C77.4443 161.013 77.4842 160.973 77.5242 160.973C77.6041 160.933 77.684 160.933 77.7639 160.893C78.0436 160.812 78.3632 160.772 78.6429 160.732C79.6417 160.571 80.7204 160.571 81.8391 160.692C82.1587 160.732 82.5183 160.772 82.8379 160.853C82.9977 160.893 83.1975 160.893 83.3573 160.933C83.7169 161.013 84.0764 161.094 84.396 161.174C84.7556 161.254 85.1152 161.375 85.4748 161.496C85.6745 161.536 85.8343 161.616 86.0341 161.696C86.5934 161.897 87.1528 162.138 87.7121 162.38C88.1116 162.54 88.4712 162.741 88.8707 162.942C89.2303 163.143 89.5899 163.344 89.9894 163.545C90.349 163.746 90.7085 163.947 91.0681 164.188C91.3078 164.349 91.5875 164.509 91.8272 164.67C92.1069 164.871 92.3865 165.072 92.7062 165.233C92.9459 165.393 93.2255 165.594 93.4653 165.755C93.7449 165.956 94.0246 166.157 94.3043 166.398C94.6638 166.679 94.9835 166.96 95.343 167.242C95.7026 167.523 96.0222 167.804 96.3418 168.126C96.5017 168.286 96.6615 168.447 96.8612 168.568C97.1808 168.889 97.5005 169.17 97.86 169.492C98.0198 169.653 98.1797 169.813 98.3395 169.974C98.6591 170.296 98.9787 170.617 99.2983 170.979C99.6179 171.3 99.8976 171.662 100.217 171.983C102.654 174.756 104.812 177.89 106.61 181.145C106.929 181.748 107.249 182.391 107.568 182.993C107.888 183.636 108.168 184.239 108.447 184.882C108.647 185.284 108.807 185.726 108.967 186.128C109.127 186.57 109.286 186.971 109.446 187.413C109.606 187.856 109.766 188.257 109.886 188.699C110.046 189.101 110.165 189.543 110.285 189.985C111.044 192.557 111.524 195.088 111.644 197.58C111.684 198.062 111.684 198.584 111.684 199.026C111.684 199.067 111.684 199.107 111.684 199.147C111.684 199.348 111.684 199.509 111.684 199.709C111.684 199.83 111.684 199.91 111.684 200.031C111.684 200.192 111.684 200.352 111.644 200.513C111.644 200.674 111.604 200.835 111.604 200.995C111.604 201.317 111.564 201.638 111.524 201.92C111.524 202.08 111.484 202.241 111.444 202.362C111.244 203.848 110.845 205.215 110.325 206.42C110.125 206.902 109.886 207.344 109.646 207.786C109.486 208.108 109.286 208.389 109.087 208.67C109.007 208.791 108.927 208.911 108.807 209.032C108.767 209.072 108.727 209.112 108.727 209.152C108.607 209.273 108.527 209.394 108.408 209.514C107.289 210.8 105.93 211.724 104.332 212.327C103.294 212.689 102.175 212.93 100.976 213.01C101.096 213.01 105.571 207.264 106.809 203.205Z" fill="#F6F5F5"/>
<path d="M94.9426 148.436L102.574 143.252C106.169 140.841 111.363 140.841 117.316 143.815C129.142 149.762 139.29 165.232 140.049 178.412C140.409 184.962 138.371 189.704 134.815 192.115L107.208 210.8C107.687 210.438 108.127 209.996 108.526 209.554C108.646 209.433 108.726 209.313 108.846 209.192C108.886 209.152 108.926 209.112 108.926 209.072C109.006 208.951 109.086 208.831 109.206 208.71C109.405 208.429 109.605 208.148 109.765 207.826C110.005 207.384 110.244 206.942 110.444 206.46C110.964 205.254 111.363 203.888 111.563 202.401C111.603 202.241 111.603 202.08 111.643 201.959C111.683 201.638 111.723 201.357 111.723 201.035C111.723 200.874 111.763 200.714 111.763 200.553C111.763 200.392 111.763 200.232 111.803 200.071C111.803 199.95 111.803 199.83 111.803 199.749C111.803 199.548 111.803 199.388 111.803 199.187C111.803 199.147 111.803 199.106 111.803 199.066C111.803 198.584 111.803 198.102 111.763 197.579C111.643 195.128 111.163 192.557 110.404 190.025C110.284 189.583 110.165 189.181 110.005 188.739C109.885 188.297 109.725 187.895 109.565 187.453C109.405 187.011 109.246 186.61 109.086 186.168C108.926 185.726 108.726 185.324 108.566 184.922C108.287 184.279 108.007 183.676 107.687 183.033C107.368 182.39 107.048 181.788 106.729 181.185C104.931 177.93 102.773 174.796 100.336 172.023C100.017 171.662 99.7369 171.34 99.4173 171.019C99.0977 170.697 98.7781 170.376 98.4585 170.014C98.2986 169.853 98.1388 169.693 97.979 169.532C97.6594 169.21 97.3398 168.889 96.9802 168.608C96.8204 168.447 96.6606 168.286 96.4608 168.166C96.1412 167.844 95.7816 167.563 95.462 167.282C95.1024 167 94.7828 166.719 94.4233 166.438C94.1436 166.237 93.8639 165.996 93.5842 165.795C93.3445 165.594 93.1048 165.433 92.8252 165.272C92.5455 165.072 92.2658 164.871 91.9462 164.71C91.7065 164.549 91.4268 164.388 91.1871 164.228C90.8275 164.027 90.4679 163.786 90.1084 163.585C89.7488 163.384 89.3892 163.183 88.9897 162.982C88.5902 162.781 88.2306 162.62 87.8311 162.419C87.2718 162.178 86.6725 161.937 86.1531 161.736C85.9533 161.656 85.7935 161.616 85.5937 161.535C85.2342 161.415 84.8746 161.294 84.515 161.214C84.1554 161.134 83.7959 161.053 83.4763 160.973C83.2765 160.933 83.1167 160.892 82.9569 160.892C82.5973 160.852 82.2777 160.772 81.9581 160.732C80.8394 160.611 79.7607 160.651 78.7619 160.772C78.4422 160.812 78.1626 160.852 77.8829 160.933C77.803 160.973 77.7231 160.973 77.6432 161.013C77.6032 161.013 77.5633 161.013 77.5233 161.053C77.4434 161.053 77.3635 161.093 77.2836 161.134C77.0839 161.174 76.8841 161.254 76.6843 161.335C76.5645 161.375 76.4446 161.415 76.3647 161.455C76.2449 161.495 76.165 161.535 76.0451 161.576C76.0051 161.576 76.0051 161.616 75.9652 161.616C75.8853 161.656 75.7654 161.696 75.6855 161.736C75.3659 161.897 75.0463 162.058 74.7266 162.259C74.6467 162.299 74.5269 162.379 74.447 162.46L85.5538 154.945" stroke="#041C2D" stroke-miterlimit="10" stroke-linecap="round"/>
<path d="M70.6524 166.679C71.6112 164.75 72.9696 163.223 74.6077 162.219C74.9273 162.018 75.2469 161.857 75.5665 161.696C75.6464 161.656 75.7663 161.616 75.8462 161.576C75.8862 161.576 75.8861 161.536 75.9261 161.536C76.046 161.496 76.1259 161.455 76.2457 161.415C76.3656 161.375 76.4854 161.335 76.5654 161.295C76.7651 161.214 76.9649 161.174 77.1646 161.094C77.2445 161.054 77.3244 161.054 77.4043 161.013C77.4443 161.013 77.4842 160.973 77.5242 160.973C77.6041 160.933 77.684 160.933 77.7639 160.893C78.0436 160.812 78.3632 160.772 78.6429 160.732C79.6417 160.571 80.7204 160.571 81.8391 160.692C82.1587 160.732 82.5183 160.772 82.8379 160.853C82.9977 160.893 83.1975 160.893 83.3573 160.933C83.7169 161.013 84.0764 161.094 84.396 161.174C84.7556 161.254 85.1152 161.375 85.4748 161.496C85.6745 161.536 85.8343 161.616 86.0341 161.696C86.5934 161.897 87.1528 162.138 87.7121 162.38C88.1116 162.54 88.4712 162.741 88.8707 162.942C89.2303 163.143 89.5899 163.344 89.9894 163.545C90.349 163.746 90.7085 163.947 91.0681 164.188C91.3078 164.349 91.5875 164.509 91.8272 164.67C92.1069 164.871 92.3865 165.072 92.7062 165.233C92.9459 165.393 93.2255 165.594 93.4653 165.755C93.7449 165.956 94.0246 166.157 94.3043 166.398C94.6638 166.679 94.9835 166.96 95.343 167.242C95.7026 167.523 96.0222 167.804 96.3418 168.126C96.5017 168.286 96.6615 168.447 96.8612 168.568C97.1808 168.889 97.5005 169.17 97.86 169.492C98.0198 169.653 98.1797 169.813 98.3395 169.974C98.6591 170.296 98.9787 170.617 99.2983 170.979C99.6179 171.3 99.8976 171.662 100.217 171.983C102.654 174.756 104.812 177.89 106.61 181.145C106.929 181.748 107.249 182.391 107.568 182.993C107.888 183.636 108.168 184.239 108.447 184.882C108.647 185.284 108.807 185.726 108.967 186.128C109.127 186.57 109.286 186.971 109.446 187.413C109.606 187.856 109.766 188.257 109.886 188.699C110.046 189.101 110.165 189.543 110.285 189.985C111.044 192.557 111.524 195.088 111.644 197.58C111.684 198.062 111.684 198.584 111.684 199.026C111.684 199.067 111.684 199.107 111.684 199.147C111.684 199.348 111.684 199.509 111.684 199.709C111.684 199.83 111.684 199.91 111.684 200.031C111.684 200.192 111.684 200.352 111.644 200.513C111.644 200.674 111.604 200.835 111.604 200.995C111.604 201.317 111.564 201.638 111.524 201.92C111.524 202.08 111.484 202.241 111.444 202.362C111.244 203.848 110.845 205.215 110.325 206.42C110.125 206.902 109.886 207.344 109.646 207.786C109.486 208.108 109.286 208.389 109.087 208.67C109.007 208.791 108.927 208.911 108.807 209.032C108.767 209.072 108.727 209.112 108.727 209.152C108.607 209.273 108.527 209.394 108.408 209.514C107.289 210.8 105.93 211.724 104.332 212.327C103.294 212.689 102.175 212.93 100.976 213.01" stroke="#041C2D" stroke-miterlimit="10" stroke-linecap="round"/>
<path d="M55.4698 177.126C59.8246 174.715 64.0196 171.822 68.0947 168.406C73.6481 164.709 79.681 163.785 86.8325 167.361C98.139 173.067 106.329 185.685 107.048 198.342C107.488 206.098 104.412 211.241 98.6584 214.335C93.7842 216.907 89.2296 220.001 84.9946 223.577" stroke="#041C2D" stroke-miterlimit="10" stroke-linecap="round"/>
<path d="M10.2843 174.515C13.3207 172.505 16.9164 171.421 21.0315 171.34C21.471 171.34 21.9504 171.34 22.3899 171.34C22.8693 171.34 23.3887 171.38 23.9081 171.421C24.028 171.421 24.1079 171.421 24.2277 171.461C24.9868 171.541 25.7459 171.662 26.505 171.782C27.1443 171.903 27.7835 172.023 28.4227 172.184C29.3017 172.385 30.1806 172.626 31.0596 172.947C33.0173 173.59 35.0548 174.434 37.1324 175.479C55.2309 184.601 71.2119 206.058 76.5655 226.953C76.8452 228.119 77.1248 229.284 77.3646 230.409C77.4045 230.65 77.4445 230.891 77.4844 231.132C77.6043 231.655 77.6842 232.177 77.7641 232.74C78.0837 234.668 78.2835 236.557 78.4033 238.446C78.5232 240.455 78.5232 242.343 78.4033 244.152C78.4033 244.352 78.3634 244.594 78.3634 244.794C77.804 251.746 75.4468 257.211 71.8111 260.908C71.6513 261.109 71.4516 261.269 71.2518 261.47C71.1719 261.551 71.0521 261.671 70.9722 261.752C70.9322 261.792 70.8923 261.832 70.8523 261.872C70.7724 261.953 70.6925 262.033 70.5726 262.113C70.0532 262.555 69.4939 262.957 68.9346 263.319L69.3741 262.997L76.5655 258.216C83.0778 253.876 86.7134 245.236 86.0742 233.383C84.6759 209.353 66.1779 181.225 44.7234 170.416C33.9761 164.991 24.4674 165.031 17.8753 169.411L10.2843 174.515Z" stroke="#041C2D" stroke-miterlimit="10" stroke-linecap="round"/>
<path d="M0.773502 199.388C1.57255 213.171 8.00491 228.36 17.4337 240.817C19.8309 244.313 22.7474 247.246 25.7438 250.34C30.7778 255.282 36.3312 259.421 42.0444 262.314C53.0713 267.86 62.7798 267.739 69.332 262.998C69.7315 262.716 70.0911 262.395 70.4906 262.114C70.5705 262.033 70.6504 261.953 70.7703 261.872C70.8103 261.832 70.8502 261.792 70.8902 261.752C70.9701 261.672 71.0899 261.591 71.1698 261.471C71.3696 261.27 71.5693 261.109 71.7291 260.908C74.1663 258.417 76.0041 255.162 77.1227 251.184C77.722 249.215 78.1215 247.085 78.3213 244.795C78.3613 244.594 78.3613 244.353 78.3613 244.152C78.4811 242.344 78.4811 240.455 78.3613 238.446C78.2414 236.557 78.0416 234.669 77.722 232.78C77.6421 232.258 77.5622 231.735 77.4424 231.173C77.4024 230.932 77.3625 230.691 77.3225 230.449C77.0828 229.284 76.8431 228.119 76.5234 226.994C71.1698 206.099 55.1888 184.681 37.0903 175.56C35.0128 174.515 32.9752 173.671 30.9776 173.028C30.0986 172.747 29.2197 172.466 28.3407 172.265C27.7015 172.104 27.0623 171.943 26.423 171.863C25.6639 171.702 24.8649 171.622 24.1457 171.541C24.0259 171.541 23.946 171.501 23.8261 171.501C23.3067 171.461 22.8273 171.421 22.3079 171.421C21.8285 171.421 21.389 171.421 20.9495 171.421C18.5923 171.461 16.3949 171.863 14.3973 172.546C5.40798 175.56 -0.065501 185.123 0.773502 199.388Z" stroke="#041C2D" stroke-miterlimit="10" stroke-linecap="round"/>
<path d="M7.48578 198.986C8.16497 211 13.7583 224.743 22.7476 236.677C24.945 239.852 27.502 242.464 30.2587 245.236L30.5384 245.517C35.1329 250.058 40.087 253.715 45.0411 256.206C49.9953 258.697 54.7896 259.903 58.7848 259.662C66.2959 259.22 69.4122 253.795 70.6507 249.295C71.5696 246.241 71.9292 242.785 71.6895 238.807C71.3699 232.579 69.6519 225.948 66.9351 219.399C62.7801 209.433 56.2279 199.709 48.5969 192.195C44.0823 187.734 39.1681 184.038 34.1341 181.506C29.18 179.015 24.4256 177.849 20.4703 178.091C19.112 178.171 17.8734 178.412 16.7148 178.774C10.2026 181.104 6.84654 188.377 7.48578 198.986Z" fill="#F6F5F5" stroke="#041C2D" stroke-miterlimit="10" stroke-linecap="round"/>
<path d="M25.1452 213.894C26.5835 212.889 28.6611 212.889 31.0183 214.055C35.6527 216.385 39.608 222.413 39.8877 227.556C40.0475 230.168 39.2085 232.016 37.7702 232.94L66.9355 219.479C62.7805 209.514 56.2283 199.79 48.5974 192.275L25.1452 213.894Z" fill="white" stroke="#041C2D" stroke-miterlimit="10" stroke-linecap="round"/>
<path d="M23.1884 219.158C23.4681 224.301 27.4633 230.369 32.0579 232.659C34.3352 233.825 36.3727 233.825 37.7711 232.941C39.2094 232.017 40.0084 230.168 39.8886 227.556C39.6089 222.413 35.6536 216.385 31.0191 214.055C28.6619 212.849 26.5844 212.889 25.1461 213.894C23.7877 214.858 23.0286 216.667 23.1884 219.158Z" stroke="#041C2D" stroke-miterlimit="10" stroke-linecap="round"/>
<path d="M55.5487 92.3405C58.3453 90.7332 61.1021 90.3314 63.2595 91.577C67.5344 93.988 67.5344 101.984 63.2995 109.378L46.9589 137.787L30.5384 128.385C26.2635 125.933 26.2635 117.977 30.4985 110.584C32.6159 106.887 35.4126 104.034 38.2093 102.386C41.006 100.779 43.7627 100.377 45.8802 101.583C46.2397 101.783 46.5593 102.025 46.839 102.306C47.1187 101.663 47.4383 101.06 47.7979 100.498C49.9553 96.8008 52.752 93.9478 55.5487 92.3405Z" fill="#F6F5F5" stroke="#138BE1" stroke-miterlimit="10"/>
<path d="M224.227 280.878L304.532 327.329L314 320.9L314.48 246.481C314.52 242.543 313.001 238.123 309.605 236.154L234.055 192.998L224.906 198.101L224.227 280.878Z" fill="#F6F5F5"/>
<path d="M228.422 199.306C226.225 198.02 224.387 199.064 224.387 201.636L224.267 276.738C224.267 279.31 226.065 282.404 228.303 283.69L301.176 326.042C303.373 327.328 305.171 326.324 305.171 323.752L305.291 248.65C305.291 246.078 303.533 242.944 301.296 241.658L228.422 199.306Z" fill="white"/>
<path d="M223.548 202.038C223.548 200.431 224.187 199.145 225.266 198.542C228.981 196.373 233.696 193.64 233.216 193.921C233.975 193.439 235.294 193.078 237.172 194.122L309.646 236.154C312.163 237.64 314.16 241.096 314.16 244.03L314.04 318.649C314.04 320.297 313.401 321.582 312.282 322.185C311.603 322.587 304.771 326.605 304.292 326.846C302.894 327.61 301.535 327.208 300.377 326.525L227.983 284.494C225.426 283.007 223.428 279.551 223.428 276.618L223.548 202.038Z" stroke="#041C2D" stroke-miterlimit="10"/>
<path d="M223.787 200.431C224.546 198.864 226.464 198.261 227.982 199.145L300.896 241.216C303.413 242.703 305.41 246.159 305.41 249.092L305.29 326.123" stroke="#041C2D" stroke-miterlimit="10"/>
<path d="M257.669 266.051L242.287 272.962L283.398 296.831L268.656 273.163L263.462 275.494L262.863 275.172L257.669 266.051Z" fill="#F6F5F5"/>
<path d="M284.316 276.177L284.276 296.067V296.108C284.276 296.188 284.237 296.268 284.197 296.349C284.157 296.429 283.997 296.751 283.677 296.871C283.597 296.911 283.517 296.911 283.437 296.911C283.278 296.911 283.158 296.871 283.038 296.791C264.021 285.74 242.566 273.244 242.966 273.525C242.726 273.364 242.606 273.123 242.606 272.842L242.686 241.981V241.941C242.686 241.861 242.726 241.78 242.766 241.7C242.806 241.62 242.806 241.539 242.886 241.459C242.886 241.459 242.886 241.419 242.926 241.419C242.966 241.379 243.205 241.218 243.285 241.218H243.325C243.405 241.218 243.485 241.218 243.565 241.218C243.645 241.218 243.725 241.218 243.805 241.258C243.805 241.258 243.845 241.258 243.884 241.258L275.767 259.782C275.527 260.264 275.367 260.827 275.287 261.39" stroke="#041C2D" stroke-miterlimit="10"/>
<path d="M283.637 296.791L280.68 292.009L269.014 273.123L280.401 268.02C280.001 267.377 279.761 266.613 279.602 265.77" stroke="#041C2D" stroke-miterlimit="10"/>
<path d="M257.188 266.532L242.725 273.042" stroke="#041C2D" stroke-miterlimit="10"/>
<path d="M269.016 273.163L263.942 275.454C263.542 275.615 262.983 275.454 262.783 275.092L242.927 241.419" stroke="#041C2D" stroke-miterlimit="10"/>
<path d="M283.078 257.291C278.643 254.719 275.087 256.889 275.087 261.992C275.087 267.135 278.563 273.243 283.038 275.815C287.472 278.387 291.148 276.458 291.148 271.314C291.188 266.211 287.512 259.902 283.078 257.291Z" fill="#F6F5F5"/>
<path d="M283.477 257.331C287.832 259.863 291.348 265.971 291.348 270.993C291.348 276.298 287.352 278.548 282.678 275.815C278.323 273.284 274.927 267.377 274.927 262.354C274.967 257.01 278.843 254.639 283.477 257.331Z" stroke="#138BE1" stroke-miterlimit="10"/>
<path d="M313.52 254.719L305.329 258.214L223.786 211.241" stroke="#041C2D" stroke-miterlimit="10"/>
<path d="M297.82 243.627C299.258 244.471 300.377 246.4 300.377 248.047C300.377 249.936 298.859 250.74 297.261 249.775C295.862 248.972 294.744 247.043 294.744 245.395C294.744 243.587 296.182 242.663 297.82 243.627Z" fill="#041C2D"/>
<path d="M290.228 238.967C291.666 239.811 292.785 241.74 292.785 243.387C292.785 245.276 291.267 246.08 289.669 245.115C288.271 244.312 287.152 242.383 287.152 240.735C287.152 238.927 288.59 238.003 290.228 238.967Z" fill="#041C2D"/>
<path d="M282.918 234.587C284.356 235.431 285.475 237.36 285.475 239.007C285.475 240.896 283.956 241.7 282.358 240.735C280.96 239.932 279.841 238.003 279.841 236.355C279.841 234.547 281.28 233.623 282.918 234.587Z" fill="#041C2D"/>
<path d="M103.371 80.7676L94.1421 85.2681" stroke="#041C2D" stroke-miterlimit="10" stroke-linecap="round"/>
<path d="M95.7004 76.5889L102.133 89.4474" stroke="#041C2D" stroke-miterlimit="10" stroke-linecap="round"/>
<path d="M248.518 11.1307L236.812 4.33979C229.661 0.200956 223.228 -0.200873 218.554 2.53156L208.406 8.47863C213.04 5.74619 219.513 6.10784 226.624 10.2869L270.572 35.7226C277.644 39.8615 284.036 46.8533 288.67 54.8898C293.305 62.9264 296.142 72.0078 296.102 80.2051C296.102 88.322 293.225 94.028 288.631 96.7202L298.778 90.7731C303.373 88.0809 306.25 82.4151 306.25 74.258C306.29 66.1009 303.453 57.0195 298.818 48.9428C294.184 40.9062 287.792 33.8742 280.72 29.7755L264.739 20.4933" fill="#F6F5F5"/>
<path d="M248.518 11.1307L236.812 4.33979C229.661 0.200955 223.228 -0.200873 218.554 2.53156L208.406 8.47863C213.04 5.74619 219.513 6.10784 226.624 10.2869L270.572 35.7226C277.644 39.8615 284.036 46.8533 288.67 54.8898C293.305 62.9264 296.142 72.0078 296.102 80.2051C296.102 88.322 293.225 94.028 288.631 96.7202L298.778 90.7731C303.373 88.0809 306.25 82.4151 306.25 74.258C306.29 66.1009 303.453 57.0195 298.818 48.9428C294.184 40.9062 287.792 33.8742 280.72 29.7755L264.739 20.4933" stroke="#041C2D" stroke-miterlimit="10" stroke-linecap="round"/>
<path d="M226.664 10.2861C212.521 2.08884 201.014 8.67883 200.974 24.9931C200.934 41.3475 212.361 61.238 226.504 69.4353L218.234 90.9332L242.405 78.6372L270.412 94.8711C284.555 103.068 296.061 96.5186 296.101 80.1642C296.141 72.007 293.265 62.9257 288.67 54.8891C284.035 46.8526 277.643 39.8607 270.571 35.7621L226.664 10.2861Z" fill="white" stroke="#041C2D" stroke-miterlimit="10" stroke-linecap="round" stroke-linejoin="round"/>
<path d="M221.551 18.3237L261.264 41.1878" stroke="#041C2D" stroke-miterlimit="10" stroke-linecap="round"/>
<path d="M225.186 29.494L211.921 21.8994" stroke="#041C2D" stroke-miterlimit="10" stroke-linecap="round"/>
<path d="M278.721 60.154L236.491 35.964" stroke="#041C2D" stroke-miterlimit="10" stroke-linecap="round"/>
<path d="M278.721 69.0747L217.034 33.4727" stroke="#041C2D" stroke-miterlimit="10" stroke-linecap="round"/>
<path d="M278.721 77.9551L211.92 39.701" stroke="#041C2D" stroke-miterlimit="10" stroke-linecap="round"/>
<path d="M278.721 86.8358L217.034 51.274" stroke="#041C2D" stroke-miterlimit="10" stroke-linecap="round"/>
<path d="M235.336 81.2899L235.775 82.9776C239.371 96.6397 248.919 110.463 260.146 116.972L285.396 131.639L293.187 164.227C293.267 164.549 293.546 164.79 293.826 164.83C294.026 164.87 294.226 164.83 294.425 164.75L304.573 158.803C304.733 158.682 304.893 158.521 304.933 158.32L309.487 144.94C314.561 146.667 319.276 146.467 323.071 144.256C323.111 144.256 323.111 144.216 323.151 144.216L324.829 143.252L333.259 138.309C338.373 135.336 341.17 129.228 341.17 121.071C341.21 104.716 329.903 84.384 315.201 75.9054L291.109 61.9217L271.333 50.4294C264.141 46.2906 257.389 45.6477 252.236 48.6614L242.567 54.3272L242.247 54.5281C242.207 54.5281 242.168 54.5683 242.128 54.5683C233.658 59.4304 233.138 71.646 235.336 81.2899Z" fill="white"/>
<path d="M257.588 47.0537C264.82 45.8884 280.681 54.2464 296.942 65.2967C313.202 76.347 313.402 71.1634 328.824 88.201C348.281 109.739 339.571 130.514 337.853 133.929C336.095 137.345 324.868 143.251 324.868 143.251L325.268 142.769C328.904 138.349 330.981 132.844 331.021 127.138C331.021 127.098 331.021 127.058 331.021 127.018C331.061 110.824 319.914 90.4512 305.052 81.8119L288.472 72.2082L261.144 56.3359C257.029 53.9651 252.994 52.84 249.877 52.6793C249.158 52.6391 248.439 52.7195 247.72 52.7998L246.881 52.9204C246.122 53.0409 245.403 53.2017 244.724 53.483L242.566 54.2464H242.526C242.566 54.2866 250.397 48.219 257.588 47.0537Z" fill="#F6F5F5"/>
<path d="M274.289 76.468C271.612 74.9009 268.895 74.5393 266.857 75.7046C262.742 78.0352 262.702 85.7503 266.817 92.9028L282.559 120.308L298.38 111.226C302.495 108.855 302.535 101.181 298.42 94.028C296.382 90.4517 293.666 87.6791 290.949 86.1119C288.272 84.5448 285.595 84.1832 283.518 85.3485C283.158 85.5494 282.878 85.7905 282.599 86.0717C282.319 85.469 282.039 84.8663 281.68 84.3037C279.682 80.7676 276.965 78.0352 274.289 76.468Z" fill="#F6F5F5" stroke="#041C2D" stroke-miterlimit="10"/>
<path d="M324.869 143.252L325.268 142.77C328.904 138.35 330.981 132.845 331.021 127.139C331.021 127.099 331.021 127.059 331.021 127.018C331.061 110.825 319.915 90.452 305.052 81.8127L288.472 72.209L261.144 56.3368C257.029 53.966 252.994 52.8409 249.878 52.6801C249.159 52.6399 248.44 52.7203 247.72 52.8007L246.881 52.9212C246.122 53.0418 245.403 53.2025 244.724 53.4838L242.567 54.2473H242.527" stroke="#041C2D" stroke-miterlimit="10"/>
<path d="M294.863 162.258L302.934 142.327L309.686 145.662L304.212 159.646L294.863 164.227V162.258Z" fill="#F6F5F5"/>
<path d="M293.825 164.831L303.174 141.766L304.932 142.77C306.411 143.614 307.849 144.297 309.287 144.9" stroke="#041C2D" stroke-miterlimit="10"/>
<path d="M242.167 54.5282C242.207 54.5282 242.247 54.488 242.287 54.488L242.607 54.2871L252.275 48.6213C257.389 45.6076 264.181 46.2506 271.373 50.3894L291.109 61.8817L315.201 75.9055C329.903 84.3841 341.21 104.717 341.17 121.071C341.17 129.228 338.373 135.336 333.299 138.31L324.869 143.252L323.191 144.216C323.151 144.216 323.151 144.257 323.111 144.257C319.316 146.467 314.601 146.668 309.527 144.94L304.973 158.321C304.893 158.522 304.773 158.682 304.613 158.803L294.425 164.75C294.226 164.87 294.026 164.87 293.826 164.83C293.506 164.79 293.267 164.549 293.187 164.227L285.396 131.639L260.146 116.972C248.919 110.463 239.371 96.6399 235.775 82.9777L235.336 81.29C233.138 71.6461 233.658 59.4305 242.167 54.5282Z" stroke="#041C2D" stroke-miterlimit="10"/>
</svg>
