<svg width="16" height="16" viewBox="0 0 16 16" fill="none" xmlns="http://www.w3.org/2000/svg">
<path fill-rule="evenodd" clip-rule="evenodd" d="M7.63268 3C5.07304 3 2.99805 5.07501 2.99805 7.63464C2.99805 10.1943 5.07304 12.2693 7.63268 12.2693C10.1923 12.2693 12.2673 10.1943 12.2673 7.63464C12.2673 5.07501 10.1923 3 7.63268 3ZM1.99805 7.63464C1.99805 4.52273 4.52075 2 7.63268 2C10.7446 2 13.2673 4.52272 13.2673 7.63464C13.2673 9.01293 12.7724 10.2756 11.9507 11.2548C11.9751 11.2717 11.9983 11.2909 12.02 11.3126L13.8538 13.1464C14.049 13.3417 14.049 13.6583 13.8538 13.8536C13.6585 14.0488 13.3419 14.0488 13.1466 13.8536L11.3128 12.0198C11.2912 11.9981 11.272 11.975 11.2551 11.9507C10.2757 12.7736 9.01206 13.2693 7.63268 13.2693C4.52075 13.2693 1.99805 10.7466 1.99805 7.63464Z" fill="white"/>
</svg>
