<svg width="92" height="126" viewBox="0 0 92 126" fill="none" xmlns="http://www.w3.org/2000/svg">
<path d="M68.4415 22.9298C68.4415 24.606 67.6034 26.1424 66.067 27.1202L48.188 37.8755C47.35 38.2945 46.5119 38.5739 45.6738 38.5739V36.4787L68.4415 22.9298Z" fill="white" stroke="#041C2D" stroke-miterlimit="10" stroke-linejoin="round"/>
<path d="M68.4417 22.9298V91.7916C68.4417 94.3058 67.1846 96.5407 64.9497 97.7978L49.166 107.156C46.9311 108.413 44.1375 108.413 42.0423 107.156L26.1189 97.7978C24.0237 96.5407 22.627 94.1661 22.627 91.7916V22.9298C22.627 24.4663 23.465 26.1424 25.0015 26.9805L43.1598 37.8755C43.8582 38.2945 44.6962 38.5739 45.674 38.5739C46.6517 38.5739 47.3501 38.2945 48.1882 37.8755L66.0671 27.1202C67.6036 26.1424 68.4417 24.606 68.4417 22.9298Z" fill="white" stroke="#041C2D" stroke-miterlimit="10" stroke-linejoin="round"/>
<path d="M45.674 36.4787V38.4342C44.8359 38.4342 43.9978 38.1548 43.1598 37.7358L25.0015 26.9805C23.465 26.0027 22.627 24.4663 22.627 22.9298L45.674 36.4787Z" fill="#F6F5F5" stroke="#041C2D" stroke-miterlimit="10" stroke-linejoin="round"/>
<path d="M68.4417 22.9298C68.4417 24.6059 67.6036 26.1424 66.0671 27.1201L48.1882 37.8754C47.3501 38.2945 46.5121 38.5738 45.674 38.5738C44.8359 38.5738 43.9978 38.2945 43.1598 37.8754L25.0015 27.1201C23.465 26.1424 22.627 24.6059 22.627 23.0694C22.627 21.3933 23.465 19.8568 25.0015 18.8791L42.8804 8.26347C44.4169 7.28571 46.2327 7.28571 47.7692 8.26347L65.9275 19.0188C67.6036 19.7171 68.4417 21.3933 68.4417 22.9298Z" fill="white" stroke="#041C2D" stroke-miterlimit="10" stroke-linejoin="round"/>
<path d="M45.6798 47.0942C44.8418 47.0942 44.0037 46.8149 43.1656 46.3958L25.0074 35.6405C23.4709 34.6628 22.6328 33.1263 22.6328 31.5898" stroke="#041C2D" stroke-miterlimit="10" stroke-linejoin="round"/>
<path d="M45.6798 56.0338C44.8418 56.0338 44.0037 55.7544 43.1656 55.3354L25.0074 44.5801C23.4709 43.6024 22.6328 42.0659 22.6328 40.5294" fill="white"/>
<path d="M45.6798 56.0338C44.8418 56.0338 44.0037 55.7544 43.1656 55.3354L25.0074 44.5801C23.4709 43.6024 22.6328 42.0659 22.6328 40.5294" stroke="#041C2D" stroke-miterlimit="10"/>
<path d="M45.6798 65.1128C44.8418 65.1128 44.0037 64.8334 43.1656 64.4144L25.0074 53.6591C23.4709 52.6813 22.6328 51.1449 22.6328 49.6084" fill="white"/>
<path d="M45.6798 65.1128C44.8418 65.1128 44.0037 64.8334 43.1656 64.4144L25.0074 53.6591C23.4709 52.6813 22.6328 51.1449 22.6328 49.6084" stroke="#041C2D" stroke-miterlimit="10"/>
<path d="M45.6798 74.0523C44.8418 74.0523 44.0037 73.773 43.1656 73.3539L25.0074 62.5987C23.4709 61.6209 22.6328 60.0844 22.6328 58.548" fill="white"/>
<path d="M45.6798 74.0523C44.8418 74.0523 44.0037 73.773 43.1656 73.3539L25.0074 62.5987C23.4709 61.6209 22.6328 60.0844 22.6328 58.548" stroke="#041C2D" stroke-miterlimit="10"/>
<path d="M45.6798 83.1313C44.8418 83.1313 44.0037 82.852 43.1656 82.4329L25.0074 71.6776C23.4709 70.6999 22.6328 69.1634 22.6328 67.627" fill="white"/>
<path d="M45.6798 83.1313C44.8418 83.1313 44.0037 82.852 43.1656 82.4329L25.0074 71.6776C23.4709 70.6999 22.6328 69.1634 22.6328 67.627" stroke="#041C2D" stroke-miterlimit="10"/>
<path d="M45.6798 92.2105C44.8418 92.2105 44.0037 91.9312 43.1656 91.5122L25.0074 80.7569C23.4709 79.7791 22.6328 78.2426 22.6328 76.7062" fill="white"/>
<path d="M45.6798 92.2105C44.8418 92.2105 44.0037 91.9312 43.1656 91.5122L25.0074 80.7569C23.4709 79.7791 22.6328 78.2426 22.6328 76.7062" stroke="#041C2D" stroke-miterlimit="10"/>
<path d="M45.6798 101.15C44.8418 101.15 44.0037 100.871 43.1656 100.451L25.0074 89.6962C23.4709 88.7184 22.6328 87.182 22.6328 85.6455" fill="white"/>
<path d="M45.6798 101.15C44.8418 101.15 44.0037 100.871 43.1656 100.451L25.0074 89.6962C23.4709 88.7184 22.6328 87.182 22.6328 85.6455" stroke="#041C2D" stroke-miterlimit="10"/>
<path d="M56.0192 11.1969V21.3935C56.0192 22.2315 55.6002 22.9299 54.9018 23.349L46.8004 28.0981C46.102 28.5171 45.1242 28.5171 44.4258 28.0981L36.3245 23.349C35.6261 22.9299 35.207 22.2315 35.207 21.3935V11.1969C35.207 9.38107 37.1625 8.40332 38.699 9.24139L44.5655 12.7334C45.2639 13.1524 46.2417 13.1524 46.9401 12.7334L52.6669 9.38107C54.0637 8.40331 56.0192 9.52075 56.0192 11.1969Z" fill="white" stroke="#138BE1" stroke-linecap="round" stroke-linejoin="round"/>
<path d="M54.4639 11.1968L47.3403 15.5269C46.3625 16.0856 45.1054 16.0856 44.1277 15.5269L36.8644 11.1968C34.7692 9.9397 34.7692 7.00644 36.8644 5.74933L43.988 1.41928C44.9657 0.860565 46.2229 0.860565 47.2006 1.41928L54.4639 5.74933C56.5591 7.00644 56.5591 10.0794 54.4639 11.1968Z" fill="white" stroke="#138BE1" stroke-linecap="round" stroke-linejoin="round"/>
<path d="M45.5391 15.946V28.5172" stroke="#138BE1" stroke-linecap="round" stroke-linejoin="round"/>
<path d="M45.6797 38.4343V108.274" stroke="#041C2D" stroke-miterlimit="10" stroke-linejoin="round"/>
<path d="M90.9378 90.3948V110.928C90.9378 113.162 89.6806 115.258 87.7251 116.375L76.8302 122.661C74.1763 124.197 70.9637 124.197 68.3098 122.661L57.2751 116.375C55.3196 115.258 54.0625 113.162 54.0625 110.928V90.5345L66.6336 97.7978C70.2653 99.893 74.735 99.893 78.3666 97.7978L90.9378 90.3948Z" fill="white" stroke="#041C2D" stroke-miterlimit="10" stroke-linejoin="round"/>
<path d="M88.8345 92.49L77.5205 99.0549C74.4476 100.871 70.6763 100.871 67.4636 99.0549L56.01 92.49C53.3561 90.9536 53.3561 87.0425 56.01 85.5061L70.2572 77.265C71.5143 76.5666 73.0508 76.5666 74.3079 77.265L88.6949 85.5061C91.6281 87.0425 91.6281 90.9536 88.8345 92.49Z" fill="white" stroke="#041C2D" stroke-linecap="round" stroke-linejoin="round"/>
<path d="M86.4563 64.4146L85.4785 85.6458C85.3389 87.6013 84.3611 89.4172 82.685 90.3949L76.8184 93.7472C74.1645 95.2837 70.9519 95.2837 68.298 94.0266L62.4315 91.0933C60.3363 89.9759 58.9395 87.8807 58.9395 85.5061L58.6602 63.5765L71.9297 70.4208L86.4563 64.4146Z" fill="white" stroke="#138BE1" stroke-linecap="round" stroke-linejoin="round"/>
<path d="M84.2217 67.4873L74.8632 72.9348C73.4664 73.7729 71.7902 73.7729 70.3934 72.9348L60.8953 67.3476C57.962 65.6715 57.962 61.3414 60.8953 59.6653L70.2538 54.2178C71.6505 53.3797 73.3267 53.3797 74.7235 54.2178L84.2217 59.8049C87.1549 61.6208 87.1549 65.8111 84.2217 67.4873Z" fill="white" stroke="#138BE1" stroke-linecap="round" stroke-linejoin="round"/>
<path d="M78.3618 64.9734L73.3334 67.9067C72.9143 68.186 72.3556 68.186 71.9366 67.9067L66.7685 64.9734C65.7907 64.4147 65.7907 63.0179 66.7685 62.4592L71.7969 59.5259C72.216 59.2466 72.7747 59.2466 73.1937 59.5259L78.3618 62.4592C79.3396 63.0179 79.3396 64.4147 78.3618 64.9734Z" fill="white" stroke="#138BE1" stroke-linecap="round" stroke-linejoin="round"/>
<path d="M72.498 63.9955V44.0214" stroke="#041C2D" stroke-miterlimit="10" stroke-linecap="round" stroke-linejoin="round"/>
<path d="M72.498 73.6332V94.8644" stroke="#138BE1" stroke-linecap="round" stroke-linejoin="round"/>
<path d="M72.498 101.15V122.521" stroke="#041C2D" stroke-linecap="round" stroke-linejoin="round"/>
<path d="M37.0577 92.0707V111.765C37.0577 114.14 35.8006 116.375 33.7054 117.492L22.531 124.057C20.4359 125.314 17.9216 125.314 15.8265 124.057L4.51246 117.492C2.41727 116.235 1.16016 114.14 1.16016 111.765V92.0707L19.1788 80.7567L37.0577 92.0707Z" fill="#F6F5F5" stroke="#041C2D" stroke-miterlimit="10" stroke-linejoin="round"/>
<path d="M37.0606 52.6812V92.769L23.9307 100.451C20.9975 102.128 17.5055 102.128 14.5722 100.451L1.30273 92.769V52.6812C1.58209 54.2176 2.55985 55.7541 4.09632 56.5922L16.3881 63.7158C17.3658 64.2745 18.3436 64.5539 19.3213 64.5539C20.2991 64.5539 21.4165 64.2745 22.2546 63.7158L34.4067 56.7318C35.8035 55.7541 36.7812 54.2176 37.0606 52.6812Z" fill="#F6F5F5" stroke="#041C2D" stroke-miterlimit="10" stroke-linejoin="round"/>
<path d="M37.0586 51.5638V52.8209C36.7792 54.3574 35.8015 55.8939 34.265 56.732L22.1129 63.7159C21.1352 64.2746 20.1574 64.554 19.1797 64.554V62.0398L37.0586 51.5638Z" fill="white" stroke="#041C2D" stroke-miterlimit="10" stroke-linejoin="round"/>
<path d="M19.167 61.9001V64.4143C18.1893 64.4143 17.2115 64.135 16.2338 63.5763L3.94202 56.4526C2.40555 55.6146 1.4278 54.0781 1.14844 52.5416V51.4242L19.167 61.9001Z" fill="#F6F5F5" stroke="#041C2D" stroke-miterlimit="10" stroke-linejoin="round"/>
<path d="M37.0635 52.6812C36.7841 54.2177 35.8064 55.7542 34.2699 56.5922L22.1179 63.5762C21.1401 64.1349 20.1624 64.4143 19.1846 64.4143C18.2068 64.4143 17.2291 64.1349 16.2513 63.5762L3.95958 56.4526C2.42311 55.6145 1.44536 54.078 1.166 52.5415C0.746963 50.167 1.58504 47.6528 3.95958 46.256L16.1117 39.272C17.9275 38.1546 20.1624 38.1546 21.9782 39.272L34.2699 46.3957C36.6445 47.7925 37.6222 50.4464 37.0635 52.6812Z" fill="white" stroke="#041C2D" stroke-miterlimit="10" stroke-linejoin="round"/>
<path d="M19.1504 64.4144V124.895" stroke="#041C2D" stroke-miterlimit="10" stroke-linejoin="round"/>
<path d="M6.85938 58.4081V96.2611" stroke="#041C2D" stroke-miterlimit="10"/>
<path d="M12.1562 61.3417V99.1947" stroke="#041C2D" stroke-miterlimit="10"/>
</svg>
